%TF.GenerationSoftware,KiCad,Pcbnew,8.0.6*%
%TF.CreationDate,2025-01-11T15:36:53-06:00*%
%TF.ProjectId,babelfox,62616265-6c66-46f7-982e-6b696361645f,rev?*%
%TF.SameCoordinates,Original*%
%TF.FileFunction,Paste,Top*%
%TF.FilePolarity,Positive*%
%FSLAX46Y46*%
G04 Gerber Fmt 4.6, Leading zero omitted, Abs format (unit mm)*
G04 Created by KiCad (PCBNEW 8.0.6) date 2025-01-11 15:36:53*
%MOMM*%
%LPD*%
G01*
G04 APERTURE LIST*
G04 Aperture macros list*
%AMRoundRect*
0 Rectangle with rounded corners*
0 $1 Rounding radius*
0 $2 $3 $4 $5 $6 $7 $8 $9 X,Y pos of 4 corners*
0 Add a 4 corners polygon primitive as box body*
4,1,4,$2,$3,$4,$5,$6,$7,$8,$9,$2,$3,0*
0 Add four circle primitives for the rounded corners*
1,1,$1+$1,$2,$3*
1,1,$1+$1,$4,$5*
1,1,$1+$1,$6,$7*
1,1,$1+$1,$8,$9*
0 Add four rect primitives between the rounded corners*
20,1,$1+$1,$2,$3,$4,$5,0*
20,1,$1+$1,$4,$5,$6,$7,0*
20,1,$1+$1,$6,$7,$8,$9,0*
20,1,$1+$1,$8,$9,$2,$3,0*%
G04 Aperture macros list end*
%ADD10RoundRect,0.150000X0.625000X-0.150000X0.625000X0.150000X-0.625000X0.150000X-0.625000X-0.150000X0*%
%ADD11RoundRect,0.250000X0.650000X-0.350000X0.650000X0.350000X-0.650000X0.350000X-0.650000X-0.350000X0*%
%ADD12RoundRect,0.375000X-0.375000X0.625000X-0.375000X-0.625000X0.375000X-0.625000X0.375000X0.625000X0*%
%ADD13RoundRect,0.500000X-1.400000X0.500000X-1.400000X-0.500000X1.400000X-0.500000X1.400000X0.500000X0*%
%ADD14RoundRect,0.250000X0.337500X0.475000X-0.337500X0.475000X-0.337500X-0.475000X0.337500X-0.475000X0*%
%ADD15RoundRect,0.381000X0.381000X-1.119000X0.381000X1.119000X-0.381000X1.119000X-0.381000X-1.119000X0*%
%ADD16RoundRect,0.250000X0.450000X-0.350000X0.450000X0.350000X-0.450000X0.350000X-0.450000X-0.350000X0*%
%ADD17O,1.800000X0.550000*%
%ADD18O,0.550000X1.800000*%
%ADD19RoundRect,0.250000X-0.650000X1.500000X-0.650000X-1.500000X0.650000X-1.500000X0.650000X1.500000X0*%
%ADD20RoundRect,0.250000X-0.450000X0.350000X-0.450000X-0.350000X0.450000X-0.350000X0.450000X0.350000X0*%
%ADD21RoundRect,0.050000X0.285000X0.100000X-0.285000X0.100000X-0.285000X-0.100000X0.285000X-0.100000X0*%
%ADD22R,0.820000X1.600000*%
%ADD23RoundRect,0.250000X-0.337500X-0.475000X0.337500X-0.475000X0.337500X0.475000X-0.337500X0.475000X0*%
%ADD24RoundRect,0.250000X-0.450000X0.325000X-0.450000X-0.325000X0.450000X-0.325000X0.450000X0.325000X0*%
%ADD25RoundRect,0.250000X0.275000X-0.850000X0.275000X0.850000X-0.275000X0.850000X-0.275000X-0.850000X0*%
%ADD26RoundRect,0.250000X0.250000X-0.275000X0.250000X0.275000X-0.250000X0.275000X-0.250000X-0.275000X0*%
%ADD27RoundRect,0.250000X-0.350000X-0.450000X0.350000X-0.450000X0.350000X0.450000X-0.350000X0.450000X0*%
%ADD28RoundRect,0.150000X-0.150000X0.825000X-0.150000X-0.825000X0.150000X-0.825000X0.150000X0.825000X0*%
%ADD29RoundRect,0.250001X-0.849999X0.462499X-0.849999X-0.462499X0.849999X-0.462499X0.849999X0.462499X0*%
G04 APERTURE END LIST*
D10*
%TO.C,J4*%
X162712400Y-116944400D03*
X162712400Y-115944400D03*
X162712400Y-114944400D03*
X162712400Y-113944400D03*
D11*
X160187400Y-118244400D03*
X160187400Y-112644400D03*
%TD*%
D12*
%TO.C,Q1*%
X175121600Y-96519201D03*
X172821600Y-96519202D03*
X170521600Y-96519201D03*
D13*
X172821600Y-102819200D03*
%TD*%
D14*
%TO.C,C1*%
X179581900Y-101787901D03*
X181656900Y-101787901D03*
%TD*%
D15*
%TO.C,U5*%
X127812001Y-102455000D03*
X125812000Y-102455000D03*
X123812000Y-102454999D03*
X127312000Y-129955000D03*
X125312000Y-129955000D03*
X123312001Y-129955000D03*
X121312000Y-129955000D03*
X119312000Y-129954999D03*
X117312000Y-129955000D03*
X115311999Y-129955000D03*
%TD*%
D16*
%TO.C,R2*%
X177673000Y-96094800D03*
X177673000Y-98094800D03*
%TD*%
D17*
%TO.C,U3*%
X128924400Y-92906400D03*
X128924400Y-90706400D03*
X128924400Y-89606400D03*
X128924400Y-88506400D03*
X128924400Y-87406400D03*
X128924400Y-86306400D03*
X128924400Y-85206400D03*
X128924400Y-84106400D03*
X128924400Y-83006400D03*
X128924400Y-80806400D03*
X128924399Y-91806400D03*
X128924399Y-81906400D03*
D18*
X125374400Y-95756400D03*
X125374400Y-77956400D03*
X124274400Y-95756400D03*
X124274400Y-77956400D03*
X123174400Y-95756400D03*
X123174400Y-77956400D03*
X122074400Y-95756400D03*
X122074400Y-77956400D03*
X120974400Y-95756400D03*
X120974400Y-77956400D03*
X119874400Y-95756400D03*
X119874400Y-77956400D03*
X118774400Y-95756400D03*
X118774400Y-77956400D03*
X117674400Y-95756400D03*
X117674400Y-77956400D03*
X116574400Y-95756400D03*
X116574400Y-77956400D03*
D17*
X113024401Y-91806400D03*
X113024401Y-81906400D03*
X113024400Y-92906400D03*
X113024400Y-90706400D03*
X113024400Y-89606400D03*
X113024400Y-88506400D03*
X113024400Y-87406400D03*
X113024400Y-86306400D03*
X113024400Y-85206400D03*
X113024400Y-84106400D03*
X113024400Y-83006400D03*
X113024400Y-80806400D03*
%TD*%
D19*
%TO.C,D2*%
X159465851Y-102132551D03*
X159465851Y-97132551D03*
%TD*%
D20*
%TO.C,R9*%
X158496000Y-80772000D03*
X158496000Y-78772000D03*
%TD*%
D14*
%TO.C,C7*%
X161903500Y-93887401D03*
X163978500Y-93887401D03*
%TD*%
D21*
%TO.C,U1*%
X179857401Y-100042601D03*
X179857401Y-99542601D03*
X179857401Y-99042601D03*
X179857401Y-98542601D03*
X181337401Y-98542601D03*
X181337401Y-99042601D03*
X181337401Y-99542601D03*
X181337401Y-100042601D03*
%TD*%
D14*
%TO.C,C8*%
X179632700Y-96646301D03*
X181707700Y-96646301D03*
%TD*%
D22*
%TO.C,U4*%
X155956000Y-113943200D03*
X154686000Y-113943200D03*
X153416000Y-113943200D03*
X152146000Y-113943200D03*
X150876000Y-113943200D03*
X149606000Y-113943200D03*
X148336000Y-113943200D03*
X147066000Y-113943200D03*
X135896000Y-113943200D03*
X134626000Y-113943200D03*
X133356000Y-113943200D03*
X133356000Y-129743200D03*
X134626000Y-129743200D03*
X135896000Y-129743200D03*
X147066000Y-129743200D03*
X148336000Y-129743200D03*
X149606000Y-129743200D03*
X150876000Y-129743200D03*
X152146000Y-129743200D03*
X153416000Y-129743200D03*
X154686000Y-129743200D03*
X155956000Y-129743200D03*
%TD*%
D23*
%TO.C,C4*%
X118690300Y-97993200D03*
X116615300Y-97993200D03*
%TD*%
D24*
%TO.C,D3*%
X179679600Y-85699199D03*
X179679600Y-83649201D03*
%TD*%
D20*
%TO.C,R5*%
X162306001Y-101837600D03*
X162306001Y-99837600D03*
%TD*%
D25*
%TO.C,J9*%
X127306600Y-98765800D03*
X124356600Y-98765800D03*
D26*
X125831600Y-100290800D03*
%TD*%
D27*
%TO.C,R6*%
X168019051Y-103696551D03*
X166019051Y-103696551D03*
%TD*%
D20*
%TO.C,R4*%
X162331400Y-97986201D03*
X162331400Y-95986201D03*
%TD*%
D28*
%TO.C,U9*%
X168046400Y-101356802D03*
X166776400Y-101356802D03*
X165506400Y-101356802D03*
X164236400Y-101356802D03*
X164236400Y-96406802D03*
X165506400Y-96406802D03*
X166776400Y-96406802D03*
X168046400Y-96406802D03*
%TD*%
D27*
%TO.C,R3*%
X172729400Y-94192201D03*
X170729400Y-94192201D03*
%TD*%
D29*
%TO.C,L1*%
X184175400Y-100721101D03*
X184175400Y-98396099D03*
%TD*%
D20*
%TO.C,R8*%
X158496000Y-85886800D03*
X158496000Y-83886800D03*
%TD*%
D16*
%TO.C,R1*%
X177673000Y-99904800D03*
X177673000Y-101904800D03*
%TD*%
M02*
