%TF.GenerationSoftware,KiCad,Pcbnew,8.0.6*%
%TF.CreationDate,2025-01-11T15:36:53-06:00*%
%TF.ProjectId,babelfox,62616265-6c66-46f7-982e-6b696361645f,rev?*%
%TF.SameCoordinates,Original*%
%TF.FileFunction,Copper,L2,Inr*%
%TF.FilePolarity,Positive*%
%FSLAX46Y46*%
G04 Gerber Fmt 4.6, Leading zero omitted, Abs format (unit mm)*
G04 Created by KiCad (PCBNEW 8.0.6) date 2025-01-11 15:36:53*
%MOMM*%
%LPD*%
G01*
G04 APERTURE LIST*
G04 Aperture macros list*
%AMRoundRect*
0 Rectangle with rounded corners*
0 $1 Rounding radius*
0 $2 $3 $4 $5 $6 $7 $8 $9 X,Y pos of 4 corners*
0 Add a 4 corners polygon primitive as box body*
4,1,4,$2,$3,$4,$5,$6,$7,$8,$9,$2,$3,0*
0 Add four circle primitives for the rounded corners*
1,1,$1+$1,$2,$3*
1,1,$1+$1,$4,$5*
1,1,$1+$1,$6,$7*
1,1,$1+$1,$8,$9*
0 Add four rect primitives between the rounded corners*
20,1,$1+$1,$2,$3,$4,$5,0*
20,1,$1+$1,$4,$5,$6,$7,0*
20,1,$1+$1,$6,$7,$8,$9,0*
20,1,$1+$1,$8,$9,$2,$3,0*%
G04 Aperture macros list end*
%TA.AperFunction,ComponentPad*%
%ADD10O,1.700000X1.700000*%
%TD*%
%TA.AperFunction,ComponentPad*%
%ADD11R,1.700000X1.700000*%
%TD*%
%TA.AperFunction,ComponentPad*%
%ADD12R,1.900000X1.900000*%
%TD*%
%TA.AperFunction,ComponentPad*%
%ADD13C,1.900000*%
%TD*%
%TA.AperFunction,ComponentPad*%
%ADD14C,2.100000*%
%TD*%
%TA.AperFunction,ComponentPad*%
%ADD15C,2.600000*%
%TD*%
%TA.AperFunction,ComponentPad*%
%ADD16O,1.500000X2.300000*%
%TD*%
%TA.AperFunction,ComponentPad*%
%ADD17R,1.500000X2.300000*%
%TD*%
%TA.AperFunction,ComponentPad*%
%ADD18C,2.250000*%
%TD*%
%TA.AperFunction,ComponentPad*%
%ADD19O,0.800000X1.300000*%
%TD*%
%TA.AperFunction,ComponentPad*%
%ADD20RoundRect,0.200000X0.200000X0.450000X-0.200000X0.450000X-0.200000X-0.450000X0.200000X-0.450000X0*%
%TD*%
%TA.AperFunction,ComponentPad*%
%ADD21C,2.200000*%
%TD*%
%TA.AperFunction,ComponentPad*%
%ADD22O,1.700000X2.000000*%
%TD*%
%TA.AperFunction,ComponentPad*%
%ADD23RoundRect,0.250000X-0.600000X-0.750000X0.600000X-0.750000X0.600000X0.750000X-0.600000X0.750000X0*%
%TD*%
%TA.AperFunction,ViaPad*%
%ADD24C,0.600000*%
%TD*%
%TA.AperFunction,Conductor*%
%ADD25C,1.270000*%
%TD*%
%TA.AperFunction,Conductor*%
%ADD26C,1.500000*%
%TD*%
%TA.AperFunction,Conductor*%
%ADD27C,0.400000*%
%TD*%
G04 APERTURE END LIST*
D10*
%TO.N,DBUG_TX*%
%TO.C,J10*%
X160553000Y-126004000D03*
D11*
%TO.N,DBUG_RX*%
X160553000Y-123464000D03*
%TD*%
%TO.N,3v3*%
%TO.C,J3*%
X145034000Y-78862000D03*
D10*
%TO.N,5Vcc*%
X145034000Y-81402000D03*
%TO.N,UART3_TX*%
X142494000Y-78862000D03*
%TO.N,GPIO4*%
X142494000Y-81402000D03*
%TO.N,UART3_RX*%
X139954001Y-78862000D03*
%TO.N,GPIO0*%
X139954000Y-81402000D03*
%TO.N,GND*%
X137414000Y-78862000D03*
%TO.N,ADC0*%
X137414000Y-81402000D03*
%TO.N,GND*%
X134874000Y-78862000D03*
X134874000Y-81402000D03*
%TD*%
D12*
%TO.N,Net-(J5-TD+)*%
%TO.C,J5*%
X169801000Y-125370000D03*
D13*
%TO.N,GND*%
X167261000Y-124100000D03*
%TO.N,Net-(J5-TD-)*%
X169801000Y-122830000D03*
%TO.N,Net-(J5-RD+)*%
X167261000Y-121560000D03*
%TO.N,GND*%
X169801000Y-120290001D03*
%TO.N,Net-(J5-RD-)*%
X167261000Y-119020000D03*
%TO.N,unconnected-(J5-NC-Pad7)*%
X169801000Y-117750000D03*
%TO.N,GND*%
X167261000Y-116480000D03*
D14*
%TO.N,unconnected-(J5-PadL1)*%
X180211000Y-127550000D03*
%TO.N,unconnected-(J5-PadL2)*%
X180211000Y-125010000D03*
%TO.N,unconnected-(J5-PadL3)*%
X180211000Y-116840000D03*
%TO.N,unconnected-(J5-PadL4)*%
X180211001Y-114300000D03*
D15*
%TO.N,GND*%
X173101000Y-128670000D03*
X173101000Y-113180000D03*
%TD*%
D16*
%TO.N,5V_dc*%
%TO.C,U10*%
X169418000Y-80010000D03*
%TO.N,GND*%
X171957999Y-80010000D03*
D17*
%TO.N,DCin*%
X174497999Y-80010000D03*
%TD*%
D18*
%TO.N,GND*%
%TO.C,J8*%
X109423200Y-86969600D03*
X104343200Y-86969600D03*
X109423200Y-92049600D03*
X104343200Y-92049600D03*
%TO.N,Net-(J8-In)*%
X106883200Y-89509600D03*
%TD*%
D19*
%TO.N,GND*%
%TO.C,J2*%
X182778400Y-84277200D03*
D20*
%TO.N,BAT_Vcc*%
X184028399Y-84277200D03*
%TD*%
D21*
%TO.N,GND*%
%TO.C,J7*%
X104282400Y-120558400D03*
X109382400Y-120558400D03*
X104282400Y-115458400D03*
X109382400Y-115458400D03*
%TD*%
D22*
%TO.N,GND*%
%TO.C,J1*%
X183926800Y-79049600D03*
D23*
%TO.N,DCin*%
X181426800Y-79049600D03*
%TD*%
D21*
%TO.N,GND*%
%TO.C,J6*%
X104282400Y-106309000D03*
X109382400Y-106309000D03*
X104282400Y-101209000D03*
X109382400Y-101209000D03*
%TD*%
D10*
%TO.N,DBUG_TX*%
%TO.C,U2*%
X184200800Y-108077000D03*
%TO.N,DBUG_RX*%
X181660800Y-108077000D03*
D11*
%TO.N,GND*%
X179120800Y-108077000D03*
D10*
%TO.N,LTE_CTS*%
X176580800Y-108077000D03*
%TO.N,LTE_RTS*%
X174040800Y-108077000D03*
%TO.N,LTE_TX*%
X171500800Y-108077000D03*
%TO.N,LTE_RX*%
X168960800Y-108077000D03*
D11*
%TO.N,GND*%
X166420800Y-108077000D03*
D10*
%TO.N,I2C_SDA*%
X163880800Y-108077000D03*
%TO.N,I2C_SCL*%
X161340800Y-108077000D03*
%TO.N,LORA_BUSY*%
X158800800Y-108077000D03*
%TO.N,LORA_CS*%
X156260800Y-108077000D03*
D11*
%TO.N,GND*%
X153720800Y-108077000D03*
D10*
%TO.N,LORA_CLK*%
X151180800Y-108077000D03*
%TO.N,LORA_MOSI*%
X148640800Y-108077000D03*
%TO.N,LORA_MISO*%
X146100800Y-108077000D03*
%TO.N,LORA_NRST*%
X143560800Y-108077000D03*
D11*
%TO.N,GND*%
X141020800Y-108077000D03*
D10*
%TO.N,UART3_TX*%
X138480800Y-108077000D03*
%TO.N,UART3_RX*%
X135940800Y-108077000D03*
%TO.N,GPIO0*%
X135940800Y-90297000D03*
%TO.N,LNA_RXEN*%
X138480800Y-90297000D03*
D11*
%TO.N,GND*%
X141020800Y-90297000D03*
D10*
%TO.N,LNA_TXEN*%
X143560800Y-90297000D03*
%TO.N,LTE_WAKEUP*%
X146100800Y-90297000D03*
%TO.N,GPIO4*%
X148640800Y-90297000D03*
%TO.N,LORA_IRQ*%
X151180800Y-90297000D03*
D11*
%TO.N,GND*%
X153720800Y-90297000D03*
D10*
%TO.N,N/C*%
X156260800Y-90297000D03*
X158800800Y-90297000D03*
%TO.N,ADC0*%
X161340800Y-90297000D03*
%TO.N,ADC1*%
X163880800Y-90297000D03*
D11*
%TO.N,GND*%
X166420800Y-90297000D03*
D10*
%TO.N,N/C*%
X168960800Y-90297000D03*
X171500800Y-90297000D03*
%TO.N,3v3*%
X174040800Y-90297000D03*
%TO.N,unconnected-(U2-3V3_EN-Pad37)_1*%
X176580800Y-90297000D03*
D11*
%TO.N,GND*%
X179120800Y-90297000D03*
D10*
%TO.N,5Vcc*%
X181660800Y-90297000D03*
%TO.N,5V_usb*%
X184200800Y-90297000D03*
%TO.N,Net-(J5-TD+)*%
X134570800Y-104287001D03*
%TO.N,Net-(J5-TD-)*%
X134570800Y-101737000D03*
%TO.N,GND*%
X134570800Y-99187000D03*
%TO.N,Net-(J5-RD+)*%
X134570800Y-96586999D03*
%TO.N,Net-(J5-RD-)*%
X134570800Y-94037000D03*
%TD*%
D24*
%TO.N,GND*%
X180263800Y-103530400D03*
X178968400Y-103505000D03*
X179095400Y-95148400D03*
X180543200Y-95199200D03*
X124841000Y-126365000D03*
X134874000Y-126492000D03*
X130810000Y-125730000D03*
X129032000Y-125730000D03*
X129921000Y-125730000D03*
%TO.N,LORA_IRQ*%
X151130000Y-93853000D03*
%TO.N,LTE_WAKEUP*%
X122174000Y-97536000D03*
%TO.N,5Vcc*%
X115366800Y-127152400D03*
X173583600Y-86004400D03*
X165201600Y-95148400D03*
X115529108Y-125943108D03*
X155295600Y-97132551D03*
X115366800Y-126542800D03*
X155905200Y-97132551D03*
X171602400Y-95148400D03*
X154076400Y-97129600D03*
X115960907Y-125511307D03*
X154686000Y-97132551D03*
X175615600Y-86004400D03*
X174599600Y-86004400D03*
%TO.N,GND*%
X128828800Y-97942400D03*
X158394400Y-93624400D03*
X128828800Y-109524800D03*
X141071600Y-87680800D03*
X164134800Y-99314000D03*
X174904400Y-99974400D03*
X133604000Y-128117600D03*
X135940800Y-128066800D03*
X112014000Y-89052400D03*
X123494800Y-127711200D03*
X133045200Y-127558800D03*
X172313600Y-100888800D03*
X147574000Y-112014000D03*
X178206400Y-88392000D03*
X127457200Y-127609600D03*
X126492000Y-127609600D03*
X112014000Y-92354400D03*
X163271200Y-103733600D03*
X175818800Y-103581200D03*
X132232400Y-127558800D03*
X128371600Y-127609600D03*
X175514000Y-92151200D03*
X182930800Y-91694000D03*
%TO.N,3v3*%
X154736800Y-128117600D03*
X161340800Y-115976400D03*
X115083000Y-97840800D03*
X164388800Y-116078000D03*
%TO.N,BAT_Vcc*%
X168656000Y-93167200D03*
X160036000Y-77927200D03*
%TO.N,LTE_RTS*%
X130352800Y-90271600D03*
%TO.N,Net-(U3-SIM_CLK)*%
X124764800Y-89306400D03*
%TO.N,Net-(U3-SIM_VDD)*%
X117348000Y-89408000D03*
%TO.N,LTE_TX*%
X130149600Y-92456000D03*
%TO.N,LTE_RX*%
X130352800Y-93421200D03*
%TO.N,Net-(U3-SIM_RST)*%
X120853200Y-88392000D03*
%TO.N,LTE_CTS*%
X131114800Y-91135200D03*
%TO.N,Net-(U3-SIM_DATA)*%
X124764800Y-86969600D03*
%TO.N,LORA_CLK*%
X150977600Y-112623600D03*
%TO.N,LORA_IRQ*%
X150063200Y-112623600D03*
%TO.N,LNA_TXEN*%
X119329200Y-127660400D03*
X131622800Y-93827600D03*
%TO.N,LNA_RXEN*%
X121310400Y-127762000D03*
X132232400Y-94386400D03*
%TO.N,Net-(D3-K)*%
X179730400Y-82651600D03*
%TO.N,Net-(J5-TD-)*%
X173278800Y-124104400D03*
%TO.N,Net-(J5-RD-)*%
X164693600Y-121615200D03*
%TD*%
D25*
%TO.N,5Vcc*%
X149555200Y-85923200D02*
X149555200Y-86004400D01*
X145034000Y-81402000D02*
X149555200Y-85923200D01*
D26*
X137210800Y-86004400D02*
X149555200Y-86004400D01*
X149555200Y-86004400D02*
X173583600Y-86004400D01*
X155905200Y-97132551D02*
X144339664Y-97132551D01*
X115960908Y-125511307D02*
X115960907Y-125511307D01*
X134140800Y-89074400D02*
X137210800Y-86004400D01*
X140230766Y-97132551D02*
X134140800Y-91042585D01*
X144339664Y-97132551D02*
X115960908Y-125511307D01*
X175615600Y-86004400D02*
X174599600Y-86004400D01*
X173583600Y-86004400D02*
X174599600Y-86004400D01*
X134140800Y-91042585D02*
X134140800Y-89074400D01*
D27*
X171602400Y-95148400D02*
X165201600Y-95148400D01*
D26*
X115366800Y-126105415D02*
X115366800Y-126542800D01*
X178570281Y-86004400D02*
X175615600Y-86004400D01*
X115529107Y-125943108D02*
X115366800Y-126105415D01*
X181660800Y-90297000D02*
X181660800Y-89094919D01*
X115366800Y-126542800D02*
X115366800Y-127152400D01*
X144339664Y-97132551D02*
X140230766Y-97132551D01*
X115529108Y-125943108D02*
X115529107Y-125943108D01*
X181660800Y-89094919D02*
X178570281Y-86004400D01*
%TD*%
%TA.AperFunction,Conductor*%
%TO.N,3v3*%
G36*
X140264814Y-87274585D02*
G01*
X140310569Y-87327389D01*
X140320513Y-87396547D01*
X140314816Y-87419855D01*
X140286233Y-87501537D01*
X140286230Y-87501550D01*
X140266035Y-87680796D01*
X140266035Y-87680803D01*
X140286230Y-87860049D01*
X140286231Y-87860054D01*
X140345811Y-88030323D01*
X140353449Y-88042478D01*
X140441784Y-88183062D01*
X140569338Y-88310616D01*
X140659680Y-88367382D01*
X140698864Y-88392003D01*
X140722078Y-88406589D01*
X140892345Y-88466168D01*
X140892350Y-88466169D01*
X141071596Y-88486365D01*
X141071600Y-88486365D01*
X141071604Y-88486365D01*
X141250849Y-88466169D01*
X141250852Y-88466168D01*
X141250855Y-88466168D01*
X141421122Y-88406589D01*
X141573862Y-88310616D01*
X141701416Y-88183062D01*
X141797389Y-88030322D01*
X141856968Y-87860055D01*
X141866533Y-87775165D01*
X141877165Y-87680803D01*
X141877165Y-87680796D01*
X141856969Y-87501550D01*
X141856966Y-87501537D01*
X141828384Y-87419855D01*
X141824822Y-87350076D01*
X141859550Y-87289449D01*
X141921543Y-87257221D01*
X141945425Y-87254900D01*
X149456783Y-87254900D01*
X173485183Y-87254900D01*
X174501183Y-87254900D01*
X175517183Y-87254900D01*
X178000945Y-87254900D01*
X178067984Y-87274585D01*
X178088626Y-87291219D01*
X178183801Y-87386394D01*
X178217286Y-87447717D01*
X178212302Y-87517409D01*
X178170430Y-87573342D01*
X178110004Y-87597295D01*
X178027149Y-87606630D01*
X178027145Y-87606631D01*
X177856876Y-87666211D01*
X177704137Y-87762184D01*
X177576584Y-87889737D01*
X177480611Y-88042476D01*
X177421031Y-88212745D01*
X177421030Y-88212750D01*
X177400835Y-88391996D01*
X177400835Y-88392003D01*
X177421030Y-88571249D01*
X177421031Y-88571254D01*
X177480611Y-88741523D01*
X177527592Y-88816292D01*
X177576584Y-88894262D01*
X177704138Y-89021816D01*
X177773432Y-89065356D01*
X177819722Y-89117689D01*
X177830371Y-89186743D01*
X177823641Y-89213682D01*
X177777989Y-89336082D01*
X177736118Y-89392016D01*
X177670654Y-89416433D01*
X177602381Y-89401582D01*
X177574126Y-89380430D01*
X177452202Y-89258506D01*
X177452195Y-89258501D01*
X177258634Y-89122967D01*
X177258630Y-89122965D01*
X177247316Y-89117689D01*
X177044463Y-89023097D01*
X177044459Y-89023096D01*
X177044455Y-89023094D01*
X176816213Y-88961938D01*
X176816203Y-88961936D01*
X176580801Y-88941341D01*
X176580799Y-88941341D01*
X176345396Y-88961936D01*
X176345386Y-88961938D01*
X176117144Y-89023094D01*
X176117135Y-89023098D01*
X175902971Y-89122964D01*
X175902969Y-89122965D01*
X175709397Y-89258505D01*
X175542308Y-89425594D01*
X175412069Y-89611595D01*
X175357492Y-89655219D01*
X175287993Y-89662412D01*
X175225639Y-89630890D01*
X175208919Y-89611594D01*
X175078913Y-89425926D01*
X175078908Y-89425920D01*
X174911882Y-89258894D01*
X174718378Y-89123399D01*
X174504292Y-89023570D01*
X174504286Y-89023567D01*
X174290800Y-88966364D01*
X174290800Y-89852439D01*
X174237653Y-89821755D01*
X174107943Y-89787000D01*
X173973657Y-89787000D01*
X173843947Y-89821755D01*
X173790800Y-89852439D01*
X173790800Y-88966364D01*
X173790799Y-88966364D01*
X173577313Y-89023567D01*
X173577307Y-89023570D01*
X173363222Y-89123399D01*
X173363220Y-89123400D01*
X173169726Y-89258886D01*
X173169720Y-89258891D01*
X173002691Y-89425920D01*
X173002690Y-89425922D01*
X172872680Y-89611595D01*
X172818103Y-89655219D01*
X172748604Y-89662412D01*
X172686250Y-89630890D01*
X172669530Y-89611594D01*
X172539294Y-89425597D01*
X172372202Y-89258506D01*
X172372195Y-89258501D01*
X172178634Y-89122967D01*
X172178630Y-89122965D01*
X172167316Y-89117689D01*
X171964463Y-89023097D01*
X171964459Y-89023096D01*
X171964455Y-89023094D01*
X171736213Y-88961938D01*
X171736203Y-88961936D01*
X171500801Y-88941341D01*
X171500799Y-88941341D01*
X171265396Y-88961936D01*
X171265386Y-88961938D01*
X171037144Y-89023094D01*
X171037135Y-89023098D01*
X170822971Y-89122964D01*
X170822969Y-89122965D01*
X170629397Y-89258505D01*
X170462305Y-89425597D01*
X170332375Y-89611158D01*
X170277798Y-89654783D01*
X170208300Y-89661977D01*
X170145945Y-89630454D01*
X170129225Y-89611158D01*
X169999294Y-89425597D01*
X169832202Y-89258506D01*
X169832195Y-89258501D01*
X169638634Y-89122967D01*
X169638630Y-89122965D01*
X169627316Y-89117689D01*
X169424463Y-89023097D01*
X169424459Y-89023096D01*
X169424455Y-89023094D01*
X169196213Y-88961938D01*
X169196203Y-88961936D01*
X168960801Y-88941341D01*
X168960799Y-88941341D01*
X168725396Y-88961936D01*
X168725386Y-88961938D01*
X168497144Y-89023094D01*
X168497135Y-89023098D01*
X168282971Y-89122964D01*
X168282969Y-89122965D01*
X168089400Y-89258503D01*
X167967473Y-89380430D01*
X167906150Y-89413914D01*
X167836458Y-89408930D01*
X167780525Y-89367058D01*
X167763610Y-89336081D01*
X167714597Y-89204671D01*
X167714593Y-89204664D01*
X167628347Y-89089455D01*
X167628344Y-89089452D01*
X167513135Y-89003206D01*
X167513128Y-89003202D01*
X167378282Y-88952908D01*
X167378283Y-88952908D01*
X167318683Y-88946501D01*
X167318681Y-88946500D01*
X167318673Y-88946500D01*
X167318664Y-88946500D01*
X165522929Y-88946500D01*
X165522923Y-88946501D01*
X165463316Y-88952908D01*
X165328471Y-89003202D01*
X165328464Y-89003206D01*
X165213255Y-89089452D01*
X165213252Y-89089455D01*
X165127006Y-89204664D01*
X165127003Y-89204669D01*
X165077989Y-89336083D01*
X165036117Y-89392016D01*
X164970653Y-89416433D01*
X164902380Y-89401581D01*
X164874126Y-89380430D01*
X164752202Y-89258506D01*
X164752195Y-89258501D01*
X164558634Y-89122967D01*
X164558630Y-89122965D01*
X164547316Y-89117689D01*
X164344463Y-89023097D01*
X164344459Y-89023096D01*
X164344455Y-89023094D01*
X164116213Y-88961938D01*
X164116203Y-88961936D01*
X163880801Y-88941341D01*
X163880799Y-88941341D01*
X163645396Y-88961936D01*
X163645386Y-88961938D01*
X163417144Y-89023094D01*
X163417135Y-89023098D01*
X163202971Y-89122964D01*
X163202969Y-89122965D01*
X163009397Y-89258505D01*
X162842305Y-89425597D01*
X162712375Y-89611158D01*
X162657798Y-89654783D01*
X162588300Y-89661977D01*
X162525945Y-89630454D01*
X162509225Y-89611158D01*
X162379294Y-89425597D01*
X162212202Y-89258506D01*
X162212195Y-89258501D01*
X162018634Y-89122967D01*
X162018630Y-89122965D01*
X162007316Y-89117689D01*
X161804463Y-89023097D01*
X161804459Y-89023096D01*
X161804455Y-89023094D01*
X161576213Y-88961938D01*
X161576203Y-88961936D01*
X161340801Y-88941341D01*
X161340799Y-88941341D01*
X161105396Y-88961936D01*
X161105386Y-88961938D01*
X160877144Y-89023094D01*
X160877135Y-89023098D01*
X160662971Y-89122964D01*
X160662969Y-89122965D01*
X160469397Y-89258505D01*
X160302305Y-89425597D01*
X160172375Y-89611158D01*
X160117798Y-89654783D01*
X160048300Y-89661977D01*
X159985945Y-89630454D01*
X159969225Y-89611158D01*
X159839294Y-89425597D01*
X159672202Y-89258506D01*
X159672195Y-89258501D01*
X159478634Y-89122967D01*
X159478630Y-89122965D01*
X159467316Y-89117689D01*
X159264463Y-89023097D01*
X159264459Y-89023096D01*
X159264455Y-89023094D01*
X159036213Y-88961938D01*
X159036203Y-88961936D01*
X158800801Y-88941341D01*
X158800799Y-88941341D01*
X158565396Y-88961936D01*
X158565386Y-88961938D01*
X158337144Y-89023094D01*
X158337135Y-89023098D01*
X158122971Y-89122964D01*
X158122969Y-89122965D01*
X157929397Y-89258505D01*
X157762305Y-89425597D01*
X157632375Y-89611158D01*
X157577798Y-89654783D01*
X157508300Y-89661977D01*
X157445945Y-89630454D01*
X157429225Y-89611158D01*
X157299294Y-89425597D01*
X157132202Y-89258506D01*
X157132195Y-89258501D01*
X156938634Y-89122967D01*
X156938630Y-89122965D01*
X156927316Y-89117689D01*
X156724463Y-89023097D01*
X156724459Y-89023096D01*
X156724455Y-89023094D01*
X156496213Y-88961938D01*
X156496203Y-88961936D01*
X156260801Y-88941341D01*
X156260799Y-88941341D01*
X156025396Y-88961936D01*
X156025386Y-88961938D01*
X155797144Y-89023094D01*
X155797135Y-89023098D01*
X155582971Y-89122964D01*
X155582969Y-89122965D01*
X155389400Y-89258503D01*
X155267473Y-89380430D01*
X155206150Y-89413914D01*
X155136458Y-89408930D01*
X155080525Y-89367058D01*
X155063610Y-89336081D01*
X155014597Y-89204671D01*
X155014593Y-89204664D01*
X154928347Y-89089455D01*
X154928344Y-89089452D01*
X154813135Y-89003206D01*
X154813128Y-89003202D01*
X154678282Y-88952908D01*
X154678283Y-88952908D01*
X154618683Y-88946501D01*
X154618681Y-88946500D01*
X154618673Y-88946500D01*
X154618664Y-88946500D01*
X152822929Y-88946500D01*
X152822923Y-88946501D01*
X152763316Y-88952908D01*
X152628471Y-89003202D01*
X152628464Y-89003206D01*
X152513255Y-89089452D01*
X152513252Y-89089455D01*
X152427006Y-89204664D01*
X152427003Y-89204669D01*
X152377989Y-89336083D01*
X152336117Y-89392016D01*
X152270653Y-89416433D01*
X152202380Y-89401581D01*
X152174126Y-89380430D01*
X152052202Y-89258506D01*
X152052195Y-89258501D01*
X151858634Y-89122967D01*
X151858630Y-89122965D01*
X151847316Y-89117689D01*
X151644463Y-89023097D01*
X151644459Y-89023096D01*
X151644455Y-89023094D01*
X151416213Y-88961938D01*
X151416203Y-88961936D01*
X151180801Y-88941341D01*
X151180799Y-88941341D01*
X150945396Y-88961936D01*
X150945386Y-88961938D01*
X150717144Y-89023094D01*
X150717135Y-89023098D01*
X150502971Y-89122964D01*
X150502969Y-89122965D01*
X150309397Y-89258505D01*
X150142305Y-89425597D01*
X150012375Y-89611158D01*
X149957798Y-89654783D01*
X149888300Y-89661977D01*
X149825945Y-89630454D01*
X149809225Y-89611158D01*
X149679294Y-89425597D01*
X149512202Y-89258506D01*
X149512195Y-89258501D01*
X149318634Y-89122967D01*
X149318630Y-89122965D01*
X149307316Y-89117689D01*
X149104463Y-89023097D01*
X149104459Y-89023096D01*
X149104455Y-89023094D01*
X148876213Y-88961938D01*
X148876203Y-88961936D01*
X148640801Y-88941341D01*
X148640799Y-88941341D01*
X148405396Y-88961936D01*
X148405386Y-88961938D01*
X148177144Y-89023094D01*
X148177135Y-89023098D01*
X147962971Y-89122964D01*
X147962969Y-89122965D01*
X147769397Y-89258505D01*
X147602305Y-89425597D01*
X147472375Y-89611158D01*
X147417798Y-89654783D01*
X147348300Y-89661977D01*
X147285945Y-89630454D01*
X147269225Y-89611158D01*
X147139294Y-89425597D01*
X146972202Y-89258506D01*
X146972195Y-89258501D01*
X146778634Y-89122967D01*
X146778630Y-89122965D01*
X146767316Y-89117689D01*
X146564463Y-89023097D01*
X146564459Y-89023096D01*
X146564455Y-89023094D01*
X146336213Y-88961938D01*
X146336203Y-88961936D01*
X146100801Y-88941341D01*
X146100799Y-88941341D01*
X145865396Y-88961936D01*
X145865386Y-88961938D01*
X145637144Y-89023094D01*
X145637135Y-89023098D01*
X145422971Y-89122964D01*
X145422969Y-89122965D01*
X145229397Y-89258505D01*
X145062305Y-89425597D01*
X144932375Y-89611158D01*
X144877798Y-89654783D01*
X144808300Y-89661977D01*
X144745945Y-89630454D01*
X144729225Y-89611158D01*
X144599294Y-89425597D01*
X144432202Y-89258506D01*
X144432195Y-89258501D01*
X144238634Y-89122967D01*
X144238630Y-89122965D01*
X144227316Y-89117689D01*
X144024463Y-89023097D01*
X144024459Y-89023096D01*
X144024455Y-89023094D01*
X143796213Y-88961938D01*
X143796203Y-88961936D01*
X143560801Y-88941341D01*
X143560799Y-88941341D01*
X143325396Y-88961936D01*
X143325386Y-88961938D01*
X143097144Y-89023094D01*
X143097135Y-89023098D01*
X142882971Y-89122964D01*
X142882969Y-89122965D01*
X142689400Y-89258503D01*
X142567473Y-89380430D01*
X142506150Y-89413914D01*
X142436458Y-89408930D01*
X142380525Y-89367058D01*
X142363610Y-89336081D01*
X142314597Y-89204671D01*
X142314593Y-89204664D01*
X142228347Y-89089455D01*
X142228344Y-89089452D01*
X142113135Y-89003206D01*
X142113128Y-89003202D01*
X141978282Y-88952908D01*
X141978283Y-88952908D01*
X141918683Y-88946501D01*
X141918681Y-88946500D01*
X141918673Y-88946500D01*
X141918664Y-88946500D01*
X140122929Y-88946500D01*
X140122923Y-88946501D01*
X140063316Y-88952908D01*
X139928471Y-89003202D01*
X139928464Y-89003206D01*
X139813255Y-89089452D01*
X139813252Y-89089455D01*
X139727006Y-89204664D01*
X139727003Y-89204669D01*
X139677989Y-89336083D01*
X139636117Y-89392016D01*
X139570653Y-89416433D01*
X139502380Y-89401581D01*
X139474126Y-89380430D01*
X139352202Y-89258506D01*
X139352195Y-89258501D01*
X139158634Y-89122967D01*
X139158630Y-89122965D01*
X139147316Y-89117689D01*
X138944463Y-89023097D01*
X138944459Y-89023096D01*
X138944455Y-89023094D01*
X138716213Y-88961938D01*
X138716203Y-88961936D01*
X138480801Y-88941341D01*
X138480799Y-88941341D01*
X138245396Y-88961936D01*
X138245386Y-88961938D01*
X138017144Y-89023094D01*
X138017135Y-89023098D01*
X137802971Y-89122964D01*
X137802969Y-89122965D01*
X137609397Y-89258505D01*
X137442305Y-89425597D01*
X137312375Y-89611158D01*
X137257798Y-89654783D01*
X137188300Y-89661977D01*
X137125945Y-89630454D01*
X137109225Y-89611158D01*
X136979294Y-89425597D01*
X136812202Y-89258506D01*
X136812195Y-89258501D01*
X136618634Y-89122967D01*
X136618630Y-89122965D01*
X136607316Y-89117689D01*
X136404463Y-89023097D01*
X136404459Y-89023096D01*
X136404455Y-89023094D01*
X136261836Y-88984880D01*
X136202175Y-88948515D01*
X136171646Y-88885668D01*
X136179941Y-88816292D01*
X136206245Y-88777427D01*
X137692455Y-87291219D01*
X137753778Y-87257734D01*
X137780136Y-87254900D01*
X140197775Y-87254900D01*
X140264814Y-87274585D01*
G37*
%TD.AperFunction*%
%TA.AperFunction,Conductor*%
G36*
X186193098Y-76795749D02*
G01*
X186287595Y-76807023D01*
X186314501Y-76813336D01*
X186398085Y-76843104D01*
X186422920Y-76855219D01*
X186497832Y-76902765D01*
X186519365Y-76920078D01*
X186581888Y-76983043D01*
X186599053Y-77004701D01*
X186646066Y-77079943D01*
X186658009Y-77104872D01*
X186687184Y-77188655D01*
X186693308Y-77215610D01*
X186703970Y-77310660D01*
X186704743Y-77324483D01*
X186704743Y-131311071D01*
X186703970Y-131324894D01*
X186693303Y-131419989D01*
X186687179Y-131446944D01*
X186658005Y-131530724D01*
X186646062Y-131555653D01*
X186599049Y-131630894D01*
X186581879Y-131652559D01*
X186522403Y-131712456D01*
X186519369Y-131715511D01*
X186497827Y-131732832D01*
X186422923Y-131780373D01*
X186398076Y-131792493D01*
X186314501Y-131822257D01*
X186287590Y-131828571D01*
X186193068Y-131839848D01*
X186178367Y-131840721D01*
X137129089Y-131836456D01*
X137062051Y-131816766D01*
X137016301Y-131763958D01*
X137005100Y-131712456D01*
X137005100Y-128833998D01*
X161727709Y-128833998D01*
X161727709Y-128834001D01*
X161746848Y-129101594D01*
X161746849Y-129101601D01*
X161803872Y-129363734D01*
X161897627Y-129615102D01*
X161897629Y-129615106D01*
X162026195Y-129850556D01*
X162026200Y-129850564D01*
X162186964Y-130065321D01*
X162186980Y-130065339D01*
X162376660Y-130255019D01*
X162376678Y-130255035D01*
X162591435Y-130415799D01*
X162591443Y-130415804D01*
X162826893Y-130544370D01*
X162826897Y-130544372D01*
X162826899Y-130544373D01*
X163078261Y-130638126D01*
X163078264Y-130638126D01*
X163078265Y-130638127D01*
X163276126Y-130681168D01*
X163340407Y-130695152D01*
X163587385Y-130712816D01*
X163607999Y-130714291D01*
X163608000Y-130714291D01*
X163608001Y-130714291D01*
X163627140Y-130712922D01*
X163875593Y-130695152D01*
X164137739Y-130638126D01*
X164389101Y-130544373D01*
X164624562Y-130415801D01*
X164839329Y-130255029D01*
X165029029Y-130065329D01*
X165189801Y-129850562D01*
X165318373Y-129615101D01*
X165412126Y-129363739D01*
X165469152Y-129101593D01*
X165488291Y-128834000D01*
X165476561Y-128669995D01*
X171295451Y-128669995D01*
X171295451Y-128670004D01*
X171315616Y-128939101D01*
X171353549Y-129105294D01*
X171375666Y-129202195D01*
X171474257Y-129453398D01*
X171609185Y-129687102D01*
X171622429Y-129703709D01*
X171777442Y-129898089D01*
X171957677Y-130065321D01*
X171975259Y-130081635D01*
X172198226Y-130233651D01*
X172441359Y-130350738D01*
X172699228Y-130430280D01*
X172699229Y-130430280D01*
X172699232Y-130430281D01*
X172966063Y-130470499D01*
X172966068Y-130470499D01*
X172966071Y-130470500D01*
X172966072Y-130470500D01*
X173235928Y-130470500D01*
X173235929Y-130470500D01*
X173235936Y-130470499D01*
X173502767Y-130430281D01*
X173502768Y-130430280D01*
X173502772Y-130430280D01*
X173760641Y-130350738D01*
X174003775Y-130233651D01*
X174226741Y-130081635D01*
X174424561Y-129898085D01*
X174592815Y-129687102D01*
X174727743Y-129453398D01*
X174826334Y-129202195D01*
X174886383Y-128939103D01*
X174906549Y-128670000D01*
X174905032Y-128649759D01*
X174889746Y-128445769D01*
X174886383Y-128400897D01*
X174861313Y-128291058D01*
X174865586Y-128221322D01*
X174906884Y-128164964D01*
X174972096Y-128139880D01*
X175040517Y-128154034D01*
X175057690Y-128165091D01*
X175092342Y-128191680D01*
X175106792Y-128202768D01*
X175319708Y-128325695D01*
X175546847Y-128419779D01*
X175784323Y-128483410D01*
X176028073Y-128515501D01*
X176028080Y-128515501D01*
X176273920Y-128515501D01*
X176273927Y-128515501D01*
X176517677Y-128483410D01*
X176755153Y-128419779D01*
X176982292Y-128325695D01*
X177195208Y-128202768D01*
X177390256Y-128053102D01*
X177564101Y-127879257D01*
X177713767Y-127684209D01*
X177836694Y-127471293D01*
X177930778Y-127244154D01*
X177994409Y-127006678D01*
X178026500Y-126762928D01*
X178026500Y-126517074D01*
X177994409Y-126273324D01*
X177930778Y-126035848D01*
X177918825Y-126006992D01*
X177884521Y-125924173D01*
X177836694Y-125808709D01*
X177713767Y-125595793D01*
X177633059Y-125490612D01*
X177564102Y-125400746D01*
X177564096Y-125400739D01*
X177390261Y-125226904D01*
X177390254Y-125226898D01*
X177195212Y-125077237D01*
X177195211Y-125077236D01*
X177195208Y-125077234D01*
X177078755Y-125010000D01*
X178655706Y-125010000D01*
X178674853Y-125253297D01*
X178674853Y-125253300D01*
X178674854Y-125253302D01*
X178717968Y-125432883D01*
X178731830Y-125490619D01*
X178825222Y-125716089D01*
X178952737Y-125924173D01*
X178952738Y-125924176D01*
X178952741Y-125924179D01*
X179111241Y-126109759D01*
X179179250Y-126167844D01*
X179200168Y-126185710D01*
X179238361Y-126244217D01*
X179238859Y-126314085D01*
X179201505Y-126373131D01*
X179200168Y-126374290D01*
X179111241Y-126450241D01*
X178952738Y-126635823D01*
X178952737Y-126635826D01*
X178825222Y-126843910D01*
X178731830Y-127069380D01*
X178674853Y-127306702D01*
X178655706Y-127550000D01*
X178674853Y-127793297D01*
X178674853Y-127793300D01*
X178674854Y-127793302D01*
X178716567Y-127967048D01*
X178731830Y-128030619D01*
X178825222Y-128256089D01*
X178952737Y-128464173D01*
X178952738Y-128464176D01*
X178972905Y-128487788D01*
X179111241Y-128649759D01*
X179254897Y-128772453D01*
X179296823Y-128808261D01*
X179296826Y-128808262D01*
X179504910Y-128935777D01*
X179730381Y-129029169D01*
X179730378Y-129029169D01*
X179730384Y-129029170D01*
X179730388Y-129029172D01*
X179967698Y-129086146D01*
X180211000Y-129105294D01*
X180454302Y-129086146D01*
X180691612Y-129029172D01*
X180917089Y-128935777D01*
X181125179Y-128808259D01*
X181310759Y-128649759D01*
X181469259Y-128464179D01*
X181596777Y-128256089D01*
X181690172Y-128030612D01*
X181747146Y-127793302D01*
X181766294Y-127550000D01*
X181747146Y-127306698D01*
X181690172Y-127069388D01*
X181664193Y-127006669D01*
X181596777Y-126843910D01*
X181469262Y-126635826D01*
X181469261Y-126635823D01*
X181367845Y-126517080D01*
X181310759Y-126450241D01*
X181310757Y-126450239D01*
X181310756Y-126450238D01*
X181221832Y-126374290D01*
X181183638Y-126315784D01*
X181183139Y-126245916D01*
X181220493Y-126186869D01*
X181221832Y-126185710D01*
X181253276Y-126158853D01*
X181310759Y-126109759D01*
X181469259Y-125924179D01*
X181596777Y-125716089D01*
X181690172Y-125490612D01*
X181747146Y-125253302D01*
X181766294Y-125010000D01*
X181747146Y-124766698D01*
X181690172Y-124529388D01*
X181658914Y-124453923D01*
X181596777Y-124303910D01*
X181469262Y-124095826D01*
X181469261Y-124095823D01*
X181367098Y-123976206D01*
X181310759Y-123910241D01*
X181168141Y-123788434D01*
X181125176Y-123751738D01*
X181125173Y-123751737D01*
X180917089Y-123624222D01*
X180691618Y-123530830D01*
X180691621Y-123530830D01*
X180585992Y-123505470D01*
X180454302Y-123473854D01*
X180454300Y-123473853D01*
X180454297Y-123473853D01*
X180211000Y-123454706D01*
X179967702Y-123473853D01*
X179967698Y-123473854D01*
X179764127Y-123522728D01*
X179730380Y-123530830D01*
X179504910Y-123624222D01*
X179296826Y-123751737D01*
X179296823Y-123751738D01*
X179111241Y-123910241D01*
X178952738Y-124095823D01*
X178952737Y-124095826D01*
X178825222Y-124303910D01*
X178731830Y-124529380D01*
X178731828Y-124529387D01*
X178731828Y-124529388D01*
X178725085Y-124557476D01*
X178674853Y-124766702D01*
X178655706Y-125010000D01*
X177078755Y-125010000D01*
X176982292Y-124954307D01*
X176913439Y-124925787D01*
X176755162Y-124860226D01*
X176755155Y-124860224D01*
X176755153Y-124860223D01*
X176517677Y-124796592D01*
X176476939Y-124791228D01*
X176273934Y-124764501D01*
X176273927Y-124764501D01*
X176028073Y-124764501D01*
X176028065Y-124764501D01*
X175796059Y-124795046D01*
X175784323Y-124796592D01*
X175589923Y-124848681D01*
X175546847Y-124860223D01*
X175546837Y-124860226D01*
X175319714Y-124954304D01*
X175319705Y-124954308D01*
X175106787Y-125077237D01*
X174911745Y-125226898D01*
X174911738Y-125226904D01*
X174737903Y-125400739D01*
X174737897Y-125400746D01*
X174588236Y-125595788D01*
X174465307Y-125808706D01*
X174465303Y-125808715D01*
X174371225Y-126035838D01*
X174371222Y-126035848D01*
X174316678Y-126239413D01*
X174307592Y-126273321D01*
X174307590Y-126273332D01*
X174275500Y-126517066D01*
X174275500Y-126762935D01*
X174294826Y-126909720D01*
X174307591Y-127006678D01*
X174317188Y-127042493D01*
X174321681Y-127059262D01*
X174320018Y-127129112D01*
X174280855Y-127186974D01*
X174216626Y-127214478D01*
X174147724Y-127202891D01*
X174132060Y-127193812D01*
X174003775Y-127106349D01*
X174003769Y-127106346D01*
X174003768Y-127106345D01*
X174003767Y-127106344D01*
X173760643Y-126989263D01*
X173760645Y-126989263D01*
X173502773Y-126909720D01*
X173502767Y-126909718D01*
X173235936Y-126869500D01*
X173235929Y-126869500D01*
X172966071Y-126869500D01*
X172966063Y-126869500D01*
X172699232Y-126909718D01*
X172699226Y-126909720D01*
X172441358Y-126989262D01*
X172198230Y-127106346D01*
X171975258Y-127258365D01*
X171777442Y-127441910D01*
X171609185Y-127652898D01*
X171474258Y-127886599D01*
X171474256Y-127886603D01*
X171375666Y-128137804D01*
X171375664Y-128137811D01*
X171315616Y-128400898D01*
X171295451Y-128669995D01*
X165476561Y-128669995D01*
X165469152Y-128566407D01*
X165446913Y-128464176D01*
X165412127Y-128304265D01*
X165394158Y-128256089D01*
X165318373Y-128052899D01*
X165306203Y-128030612D01*
X165189804Y-127817443D01*
X165189799Y-127817435D01*
X165029035Y-127602678D01*
X165029019Y-127602660D01*
X164839339Y-127412980D01*
X164839321Y-127412964D01*
X164624564Y-127252200D01*
X164624556Y-127252195D01*
X164389106Y-127123629D01*
X164389102Y-127123627D01*
X164137734Y-127029872D01*
X163875601Y-126972849D01*
X163875594Y-126972848D01*
X163608001Y-126953709D01*
X163607999Y-126953709D01*
X163340405Y-126972848D01*
X163340398Y-126972849D01*
X163078265Y-127029872D01*
X162826897Y-127123627D01*
X162826893Y-127123629D01*
X162591443Y-127252195D01*
X162591435Y-127252200D01*
X162376678Y-127412964D01*
X162376660Y-127412980D01*
X162186980Y-127602660D01*
X162186964Y-127602678D01*
X162026200Y-127817435D01*
X162026195Y-127817443D01*
X161897629Y-128052893D01*
X161897627Y-128052897D01*
X161803872Y-128304265D01*
X161746849Y-128566398D01*
X161746848Y-128566405D01*
X161727709Y-128833998D01*
X137005100Y-128833998D01*
X137005100Y-126003999D01*
X159197341Y-126003999D01*
X159197341Y-126004000D01*
X159217936Y-126239403D01*
X159217938Y-126239413D01*
X159279094Y-126467655D01*
X159279096Y-126467659D01*
X159279097Y-126467663D01*
X159357511Y-126635821D01*
X159378965Y-126681830D01*
X159378967Y-126681834D01*
X159435750Y-126762928D01*
X159514505Y-126875401D01*
X159681599Y-127042495D01*
X159772785Y-127106344D01*
X159875165Y-127178032D01*
X159875167Y-127178033D01*
X159875170Y-127178035D01*
X160089337Y-127277903D01*
X160317592Y-127339063D01*
X160505918Y-127355539D01*
X160552999Y-127359659D01*
X160553000Y-127359659D01*
X160553001Y-127359659D01*
X160592234Y-127356226D01*
X160788408Y-127339063D01*
X161016663Y-127277903D01*
X161230830Y-127178035D01*
X161424401Y-127042495D01*
X161591495Y-126875401D01*
X161727035Y-126681830D01*
X161826903Y-126467663D01*
X161888063Y-126239408D01*
X161908659Y-126004000D01*
X161888063Y-125768592D01*
X161826903Y-125540337D01*
X161727035Y-125326171D01*
X161721644Y-125318472D01*
X161591496Y-125132600D01*
X161536130Y-125077234D01*
X161469567Y-125010671D01*
X161436084Y-124949351D01*
X161441068Y-124879659D01*
X161482939Y-124823725D01*
X161513915Y-124806810D01*
X161645331Y-124757796D01*
X161760546Y-124671546D01*
X161846796Y-124556331D01*
X161897091Y-124421483D01*
X161903500Y-124361873D01*
X161903499Y-122566128D01*
X161897091Y-122506517D01*
X161877492Y-122453970D01*
X161846797Y-122371671D01*
X161846793Y-122371664D01*
X161760547Y-122256455D01*
X161760544Y-122256452D01*
X161645335Y-122170206D01*
X161645328Y-122170202D01*
X161510482Y-122119908D01*
X161510483Y-122119908D01*
X161450883Y-122113501D01*
X161450881Y-122113500D01*
X161450873Y-122113500D01*
X161450864Y-122113500D01*
X159655129Y-122113500D01*
X159655123Y-122113501D01*
X159595516Y-122119908D01*
X159460671Y-122170202D01*
X159460664Y-122170206D01*
X159345455Y-122256452D01*
X159345452Y-122256455D01*
X159259206Y-122371664D01*
X159259202Y-122371671D01*
X159208908Y-122506517D01*
X159202501Y-122566116D01*
X159202501Y-122566123D01*
X159202500Y-122566135D01*
X159202500Y-124361870D01*
X159202501Y-124361876D01*
X159208908Y-124421483D01*
X159259202Y-124556328D01*
X159259206Y-124556335D01*
X159345452Y-124671544D01*
X159345455Y-124671547D01*
X159460664Y-124757793D01*
X159460671Y-124757797D01*
X159592081Y-124806810D01*
X159648015Y-124848681D01*
X159672432Y-124914145D01*
X159657580Y-124982418D01*
X159636430Y-125010673D01*
X159514503Y-125132600D01*
X159378965Y-125326169D01*
X159378964Y-125326171D01*
X159279098Y-125540335D01*
X159279094Y-125540344D01*
X159217938Y-125768586D01*
X159217936Y-125768596D01*
X159197341Y-126003999D01*
X137005100Y-126003999D01*
X137005100Y-125498410D01*
X137005100Y-125498400D01*
X136993547Y-125390944D01*
X136982341Y-125339433D01*
X136977926Y-125326169D01*
X136948216Y-125236902D01*
X136948213Y-125236896D01*
X136905754Y-125170830D01*
X136870425Y-125115857D01*
X136836961Y-125077237D01*
X136824676Y-125063059D01*
X136824672Y-125063056D01*
X136824670Y-125063053D01*
X136715936Y-124968833D01*
X136715933Y-124968831D01*
X136715931Y-124968830D01*
X136585065Y-124909064D01*
X136585060Y-124909062D01*
X136585059Y-124909062D01*
X136518020Y-124889377D01*
X136518022Y-124889377D01*
X136518017Y-124889376D01*
X136455947Y-124880452D01*
X136375600Y-124868900D01*
X122653600Y-124868900D01*
X122653591Y-124868900D01*
X122653590Y-124868901D01*
X122546149Y-124880452D01*
X122546137Y-124880454D01*
X122494627Y-124891660D01*
X122392102Y-124925783D01*
X122392096Y-124925786D01*
X122271062Y-125003571D01*
X122271051Y-125003579D01*
X122218259Y-125049323D01*
X122124033Y-125158064D01*
X122124030Y-125158068D01*
X122064264Y-125288934D01*
X122044576Y-125355982D01*
X122039549Y-125390949D01*
X122024102Y-125498390D01*
X122024100Y-125498401D01*
X122024100Y-127044260D01*
X122004415Y-127111299D01*
X121951611Y-127157054D01*
X121882453Y-127166998D01*
X121818897Y-127137973D01*
X121812788Y-127132285D01*
X121812662Y-127132184D01*
X121659923Y-127036211D01*
X121489654Y-126976631D01*
X121489649Y-126976630D01*
X121310404Y-126956435D01*
X121310396Y-126956435D01*
X121131150Y-126976630D01*
X121131145Y-126976631D01*
X120960876Y-127036211D01*
X120808137Y-127132184D01*
X120680584Y-127259737D01*
X120584611Y-127412476D01*
X120525031Y-127582745D01*
X120525030Y-127582750D01*
X120504835Y-127761996D01*
X120504835Y-127762003D01*
X120525030Y-127941249D01*
X120525031Y-127941254D01*
X120584611Y-128111523D01*
X120653981Y-128221924D01*
X120680584Y-128264262D01*
X120808138Y-128391816D01*
X120852641Y-128419779D01*
X120953905Y-128483408D01*
X120960878Y-128487789D01*
X121131145Y-128547368D01*
X121131150Y-128547369D01*
X121310396Y-128567565D01*
X121310400Y-128567565D01*
X121310404Y-128567565D01*
X121489649Y-128547369D01*
X121489652Y-128547368D01*
X121489655Y-128547368D01*
X121659922Y-128487789D01*
X121812662Y-128391816D01*
X121812666Y-128391811D01*
X121818105Y-128387475D01*
X121818926Y-128388505D01*
X121873742Y-128358574D01*
X121943434Y-128363558D01*
X121999367Y-128405430D01*
X122023784Y-128470894D01*
X122024100Y-128479740D01*
X122024100Y-131711131D01*
X122004415Y-131778170D01*
X121951611Y-131823925D01*
X121900089Y-131835131D01*
X103134751Y-131833500D01*
X103120136Y-131832634D01*
X103026073Y-131821461D01*
X102999274Y-131815203D01*
X102916028Y-131785698D01*
X102891274Y-131773685D01*
X102816578Y-131726541D01*
X102795084Y-131709363D01*
X102732636Y-131646915D01*
X102715459Y-131625422D01*
X102668312Y-131550721D01*
X102656301Y-131525970D01*
X102626796Y-131442723D01*
X102620539Y-131415930D01*
X102609364Y-131321857D01*
X102608498Y-131307247D01*
X102608166Y-128833998D01*
X103727709Y-128833998D01*
X103727709Y-128834001D01*
X103746848Y-129101594D01*
X103746849Y-129101601D01*
X103803872Y-129363734D01*
X103897627Y-129615102D01*
X103897629Y-129615106D01*
X104026195Y-129850556D01*
X104026200Y-129850564D01*
X104186964Y-130065321D01*
X104186980Y-130065339D01*
X104376660Y-130255019D01*
X104376678Y-130255035D01*
X104591435Y-130415799D01*
X104591443Y-130415804D01*
X104826893Y-130544370D01*
X104826897Y-130544372D01*
X104826899Y-130544373D01*
X105078261Y-130638126D01*
X105078264Y-130638126D01*
X105078265Y-130638127D01*
X105276126Y-130681168D01*
X105340407Y-130695152D01*
X105587385Y-130712816D01*
X105607999Y-130714291D01*
X105608000Y-130714291D01*
X105608001Y-130714291D01*
X105627140Y-130712922D01*
X105875593Y-130695152D01*
X106137739Y-130638126D01*
X106389101Y-130544373D01*
X106624562Y-130415801D01*
X106839329Y-130255029D01*
X107029029Y-130065329D01*
X107189801Y-129850562D01*
X107318373Y-129615101D01*
X107412126Y-129363739D01*
X107469152Y-129101593D01*
X107488291Y-128834000D01*
X107469152Y-128566407D01*
X107446913Y-128464176D01*
X107412127Y-128304265D01*
X107394158Y-128256089D01*
X107318373Y-128052899D01*
X107306203Y-128030612D01*
X107189804Y-127817443D01*
X107189799Y-127817435D01*
X107029035Y-127602678D01*
X107029019Y-127602660D01*
X106839339Y-127412980D01*
X106839321Y-127412964D01*
X106624564Y-127252200D01*
X106624556Y-127252195D01*
X106389106Y-127123629D01*
X106389102Y-127123627D01*
X106137734Y-127029872D01*
X105875601Y-126972849D01*
X105875594Y-126972848D01*
X105608001Y-126953709D01*
X105607999Y-126953709D01*
X105340405Y-126972848D01*
X105340398Y-126972849D01*
X105078265Y-127029872D01*
X104826897Y-127123627D01*
X104826893Y-127123629D01*
X104591443Y-127252195D01*
X104591435Y-127252200D01*
X104376678Y-127412964D01*
X104376660Y-127412980D01*
X104186980Y-127602660D01*
X104186964Y-127602678D01*
X104026200Y-127817435D01*
X104026195Y-127817443D01*
X103897629Y-128052893D01*
X103897627Y-128052897D01*
X103803872Y-128304265D01*
X103746849Y-128566398D01*
X103746848Y-128566405D01*
X103727709Y-128833998D01*
X102608166Y-128833998D01*
X102608084Y-128221322D01*
X102607787Y-126006992D01*
X114116300Y-126006992D01*
X114116300Y-127250822D01*
X114147090Y-127445226D01*
X114207917Y-127632429D01*
X114273935Y-127761996D01*
X114297276Y-127807805D01*
X114412972Y-127967046D01*
X114552154Y-128106228D01*
X114711395Y-128221924D01*
X114778448Y-128256089D01*
X114886770Y-128311282D01*
X114886772Y-128311282D01*
X114886775Y-128311284D01*
X114987117Y-128343887D01*
X115073973Y-128372109D01*
X115268378Y-128402900D01*
X115268383Y-128402900D01*
X115465222Y-128402900D01*
X115659626Y-128372109D01*
X115701282Y-128358574D01*
X115846825Y-128311284D01*
X116022205Y-128221924D01*
X116181446Y-128106228D01*
X116320628Y-127967046D01*
X116436324Y-127807805D01*
X116511432Y-127660396D01*
X118523635Y-127660396D01*
X118523635Y-127660403D01*
X118543830Y-127839649D01*
X118543831Y-127839654D01*
X118603411Y-128009923D01*
X118667251Y-128111523D01*
X118699384Y-128162662D01*
X118826938Y-128290216D01*
X118979678Y-128386189D01*
X119075670Y-128419778D01*
X119149945Y-128445768D01*
X119149950Y-128445769D01*
X119329196Y-128465965D01*
X119329200Y-128465965D01*
X119329204Y-128465965D01*
X119508449Y-128445769D01*
X119508452Y-128445768D01*
X119508455Y-128445768D01*
X119678722Y-128386189D01*
X119831462Y-128290216D01*
X119959016Y-128162662D01*
X120054989Y-128009922D01*
X120114568Y-127839655D01*
X120117071Y-127817443D01*
X120134765Y-127660403D01*
X120134765Y-127660396D01*
X120114569Y-127481150D01*
X120114568Y-127481145D01*
X120064851Y-127339063D01*
X120054989Y-127310878D01*
X120034269Y-127277903D01*
X119987136Y-127202891D01*
X119959016Y-127158138D01*
X119831462Y-127030584D01*
X119793402Y-127006669D01*
X119678723Y-126934611D01*
X119508454Y-126875031D01*
X119508449Y-126875030D01*
X119329204Y-126854835D01*
X119329196Y-126854835D01*
X119149950Y-126875030D01*
X119149945Y-126875031D01*
X118979676Y-126934611D01*
X118826937Y-127030584D01*
X118699384Y-127158137D01*
X118603411Y-127310876D01*
X118543831Y-127481145D01*
X118543830Y-127481150D01*
X118523635Y-127660396D01*
X116511432Y-127660396D01*
X116525684Y-127632425D01*
X116586509Y-127445226D01*
X116594743Y-127393238D01*
X116617300Y-127250822D01*
X116617300Y-126643293D01*
X116636985Y-126576254D01*
X116668409Y-126542979D01*
X116775554Y-126465135D01*
X121625492Y-121615196D01*
X163888035Y-121615196D01*
X163888035Y-121615203D01*
X163908230Y-121794449D01*
X163908231Y-121794454D01*
X163967811Y-121964723D01*
X164061295Y-122113501D01*
X164063784Y-122117462D01*
X164191338Y-122245016D01*
X164344078Y-122340989D01*
X164514345Y-122400568D01*
X164514350Y-122400569D01*
X164693596Y-122420765D01*
X164693600Y-122420765D01*
X164693604Y-122420765D01*
X164872849Y-122400569D01*
X164872852Y-122400568D01*
X164872855Y-122400568D01*
X165043122Y-122340989D01*
X165195862Y-122245016D01*
X165323416Y-122117462D01*
X165419389Y-121964722D01*
X165478968Y-121794455D01*
X165482943Y-121759175D01*
X165499165Y-121615203D01*
X165499165Y-121615196D01*
X165478969Y-121435950D01*
X165478968Y-121435945D01*
X165438301Y-121319725D01*
X165419389Y-121265678D01*
X165382469Y-121206921D01*
X165368048Y-121183970D01*
X165323416Y-121112938D01*
X165195862Y-120985384D01*
X165191637Y-120982729D01*
X165043123Y-120889411D01*
X164872854Y-120829831D01*
X164872849Y-120829830D01*
X164693604Y-120809635D01*
X164693596Y-120809635D01*
X164514350Y-120829830D01*
X164514345Y-120829831D01*
X164344076Y-120889411D01*
X164191337Y-120985384D01*
X164063784Y-121112937D01*
X163967811Y-121265676D01*
X163908231Y-121435945D01*
X163908230Y-121435950D01*
X163888035Y-121615196D01*
X121625492Y-121615196D01*
X126760693Y-116479994D01*
X165805529Y-116479994D01*
X165805529Y-116480005D01*
X165825379Y-116719559D01*
X165884389Y-116952589D01*
X165980951Y-117172729D01*
X166112427Y-117373966D01*
X166112429Y-117373969D01*
X166275236Y-117550825D01*
X166346144Y-117606014D01*
X166405414Y-117652147D01*
X166446227Y-117708857D01*
X166449901Y-117778630D01*
X166415269Y-117839313D01*
X166405414Y-117847853D01*
X166275238Y-117949173D01*
X166112430Y-118126029D01*
X166112427Y-118126033D01*
X165980951Y-118327270D01*
X165884389Y-118547410D01*
X165825379Y-118780440D01*
X165805529Y-119019994D01*
X165805529Y-119020005D01*
X165825379Y-119259559D01*
X165884389Y-119492589D01*
X165980951Y-119712729D01*
X166102939Y-119899443D01*
X166112429Y-119913969D01*
X166275236Y-120090825D01*
X166346144Y-120146014D01*
X166405414Y-120192147D01*
X166446227Y-120248857D01*
X166449901Y-120318630D01*
X166415269Y-120379313D01*
X166405414Y-120387853D01*
X166275238Y-120489173D01*
X166112430Y-120666029D01*
X166112427Y-120666033D01*
X165980951Y-120867270D01*
X165884389Y-121087410D01*
X165825379Y-121320440D01*
X165805529Y-121559994D01*
X165805529Y-121560005D01*
X165825379Y-121799559D01*
X165884389Y-122032589D01*
X165980951Y-122252729D01*
X166112427Y-122453966D01*
X166112429Y-122453969D01*
X166275236Y-122630825D01*
X166346144Y-122686014D01*
X166405414Y-122732147D01*
X166446227Y-122788857D01*
X166449901Y-122858630D01*
X166415269Y-122919313D01*
X166405414Y-122927853D01*
X166275238Y-123029173D01*
X166112430Y-123206029D01*
X166112427Y-123206033D01*
X165980951Y-123407270D01*
X165884389Y-123627410D01*
X165825379Y-123860440D01*
X165805529Y-124099994D01*
X165805529Y-124100005D01*
X165825379Y-124339559D01*
X165884389Y-124572589D01*
X165980951Y-124792729D01*
X166067883Y-124925787D01*
X166112429Y-124993969D01*
X166275236Y-125170825D01*
X166275239Y-125170827D01*
X166275242Y-125170830D01*
X166464924Y-125318466D01*
X166464930Y-125318470D01*
X166464933Y-125318472D01*
X166676344Y-125432882D01*
X166676347Y-125432883D01*
X166903699Y-125510933D01*
X166903701Y-125510933D01*
X166903703Y-125510934D01*
X167140808Y-125550500D01*
X167140809Y-125550500D01*
X167381191Y-125550500D01*
X167381192Y-125550500D01*
X167618297Y-125510934D01*
X167845656Y-125432882D01*
X168057067Y-125318472D01*
X168150337Y-125245876D01*
X168215331Y-125220234D01*
X168283871Y-125233800D01*
X168334196Y-125282269D01*
X168350500Y-125343730D01*
X168350500Y-126367870D01*
X168350501Y-126367876D01*
X168356908Y-126427483D01*
X168407202Y-126562328D01*
X168407206Y-126562335D01*
X168493452Y-126677544D01*
X168493455Y-126677547D01*
X168608664Y-126763793D01*
X168608671Y-126763797D01*
X168743517Y-126814091D01*
X168743516Y-126814091D01*
X168750444Y-126814835D01*
X168803127Y-126820500D01*
X170798872Y-126820499D01*
X170858483Y-126814091D01*
X170993331Y-126763796D01*
X171108546Y-126677546D01*
X171194796Y-126562331D01*
X171245091Y-126427483D01*
X171251500Y-126367873D01*
X171251499Y-124372128D01*
X171245091Y-124312517D01*
X171241881Y-124303911D01*
X171194797Y-124177671D01*
X171194793Y-124177664D01*
X171139944Y-124104396D01*
X172473235Y-124104396D01*
X172473235Y-124104403D01*
X172493430Y-124283649D01*
X172493431Y-124283654D01*
X172553011Y-124453923D01*
X172600424Y-124529380D01*
X172648984Y-124606662D01*
X172776538Y-124734216D01*
X172828233Y-124766698D01*
X172928921Y-124829965D01*
X172929278Y-124830189D01*
X173072924Y-124880453D01*
X173099545Y-124889768D01*
X173099550Y-124889769D01*
X173278796Y-124909965D01*
X173278800Y-124909965D01*
X173278804Y-124909965D01*
X173458049Y-124889769D01*
X173458052Y-124889768D01*
X173458055Y-124889768D01*
X173628322Y-124830189D01*
X173781062Y-124734216D01*
X173908616Y-124606662D01*
X174004589Y-124453922D01*
X174064168Y-124283655D01*
X174064169Y-124283649D01*
X174084365Y-124104403D01*
X174084365Y-124104396D01*
X174064169Y-123925150D01*
X174064168Y-123925145D01*
X174004588Y-123754876D01*
X173908615Y-123602137D01*
X173781062Y-123474584D01*
X173628323Y-123378611D01*
X173458054Y-123319031D01*
X173458049Y-123319030D01*
X173278804Y-123298835D01*
X173278796Y-123298835D01*
X173099550Y-123319030D01*
X173099545Y-123319031D01*
X172929276Y-123378611D01*
X172776537Y-123474584D01*
X172648984Y-123602137D01*
X172553011Y-123754876D01*
X172493431Y-123925145D01*
X172493430Y-123925150D01*
X172473235Y-124104396D01*
X171139944Y-124104396D01*
X171108547Y-124062455D01*
X171108544Y-124062452D01*
X170993335Y-123976206D01*
X170993329Y-123976203D01*
X170960727Y-123964043D01*
X170904794Y-123922171D01*
X170880377Y-123856706D01*
X170895229Y-123788434D01*
X170912827Y-123763882D01*
X170949571Y-123723969D01*
X171081049Y-123522728D01*
X171177610Y-123302591D01*
X171236620Y-123069563D01*
X171256471Y-122830000D01*
X171252201Y-122778472D01*
X171236620Y-122590440D01*
X171236620Y-122590437D01*
X171177610Y-122357409D01*
X171081049Y-122137272D01*
X171069704Y-122119908D01*
X170984090Y-121988866D01*
X170949571Y-121936031D01*
X170786764Y-121759175D01*
X170702543Y-121693623D01*
X170656586Y-121657853D01*
X170615773Y-121601143D01*
X170612099Y-121531370D01*
X170646731Y-121470687D01*
X170656578Y-121462153D01*
X170786764Y-121360826D01*
X170949571Y-121183970D01*
X171081049Y-120982729D01*
X171177610Y-120762592D01*
X171236620Y-120529564D01*
X171249070Y-120379313D01*
X171256471Y-120290006D01*
X171256471Y-120289995D01*
X171239967Y-120090826D01*
X171236620Y-120050438D01*
X171177610Y-119817410D01*
X171081049Y-119597273D01*
X170949571Y-119396032D01*
X170786764Y-119219176D01*
X170786759Y-119219172D01*
X170786757Y-119219170D01*
X170656585Y-119117853D01*
X170615772Y-119061143D01*
X170612097Y-118991370D01*
X170646729Y-118930687D01*
X170656570Y-118922158D01*
X170786764Y-118820825D01*
X170949571Y-118643969D01*
X171081049Y-118442728D01*
X171177610Y-118222591D01*
X171236620Y-117989563D01*
X171256125Y-117754176D01*
X171256471Y-117750005D01*
X171256471Y-117749994D01*
X171236620Y-117510440D01*
X171236620Y-117510437D01*
X171177610Y-117277409D01*
X171081049Y-117057272D01*
X171072431Y-117044082D01*
X171012656Y-116952589D01*
X170949571Y-116856031D01*
X170786764Y-116679175D01*
X170786759Y-116679171D01*
X170786757Y-116679169D01*
X170597075Y-116531533D01*
X170597069Y-116531529D01*
X170385657Y-116417118D01*
X170385652Y-116417116D01*
X170158300Y-116339066D01*
X169980468Y-116309391D01*
X169921192Y-116299500D01*
X169680808Y-116299500D01*
X169633387Y-116307413D01*
X169443699Y-116339066D01*
X169216347Y-116417116D01*
X169216342Y-116417118D01*
X169004931Y-116531529D01*
X168915103Y-116601445D01*
X168850109Y-116627087D01*
X168781569Y-116613520D01*
X168731244Y-116565052D01*
X168715113Y-116497070D01*
X168715365Y-116493350D01*
X168716471Y-116480004D01*
X168716471Y-116479994D01*
X168696620Y-116240440D01*
X168696620Y-116240437D01*
X168637610Y-116007409D01*
X168541049Y-115787272D01*
X168409571Y-115586031D01*
X168246764Y-115409175D01*
X168246759Y-115409171D01*
X168246757Y-115409169D01*
X168057075Y-115261533D01*
X168057069Y-115261529D01*
X167845657Y-115147118D01*
X167845652Y-115147116D01*
X167618300Y-115069066D01*
X167440468Y-115039391D01*
X167381192Y-115029500D01*
X167140808Y-115029500D01*
X167093387Y-115037413D01*
X166903699Y-115069066D01*
X166676347Y-115147116D01*
X166676342Y-115147118D01*
X166464930Y-115261529D01*
X166464924Y-115261533D01*
X166275242Y-115409169D01*
X166275239Y-115409172D01*
X166112430Y-115586029D01*
X166112427Y-115586033D01*
X165980951Y-115787270D01*
X165884389Y-116007410D01*
X165825379Y-116240440D01*
X165805529Y-116479994D01*
X126760693Y-116479994D01*
X131226691Y-112013996D01*
X146768435Y-112013996D01*
X146768435Y-112014003D01*
X146788630Y-112193249D01*
X146788631Y-112193254D01*
X146848211Y-112363523D01*
X146944184Y-112516262D01*
X147071738Y-112643816D01*
X147224478Y-112739789D01*
X147293249Y-112763853D01*
X147394745Y-112799368D01*
X147394750Y-112799369D01*
X147573996Y-112819565D01*
X147574000Y-112819565D01*
X147574004Y-112819565D01*
X147753249Y-112799369D01*
X147753252Y-112799368D01*
X147753255Y-112799368D01*
X147923522Y-112739789D01*
X148076262Y-112643816D01*
X148096482Y-112623596D01*
X149257635Y-112623596D01*
X149257635Y-112623603D01*
X149277830Y-112802849D01*
X149277831Y-112802854D01*
X149337411Y-112973123D01*
X149380525Y-113041738D01*
X149433384Y-113125862D01*
X149560938Y-113253416D01*
X149713678Y-113349389D01*
X149817809Y-113385826D01*
X149883945Y-113408968D01*
X149883950Y-113408969D01*
X150063196Y-113429165D01*
X150063200Y-113429165D01*
X150063204Y-113429165D01*
X150242449Y-113408969D01*
X150242452Y-113408968D01*
X150242455Y-113408968D01*
X150412722Y-113349389D01*
X150454427Y-113323184D01*
X150521664Y-113304183D01*
X150586373Y-113323184D01*
X150628075Y-113349388D01*
X150798345Y-113408968D01*
X150798350Y-113408969D01*
X150977596Y-113429165D01*
X150977600Y-113429165D01*
X150977604Y-113429165D01*
X151156849Y-113408969D01*
X151156852Y-113408968D01*
X151156855Y-113408968D01*
X151327122Y-113349389D01*
X151479862Y-113253416D01*
X151553283Y-113179995D01*
X171295451Y-113179995D01*
X171295451Y-113180004D01*
X171315616Y-113449101D01*
X171375664Y-113712188D01*
X171375666Y-113712195D01*
X171474257Y-113963398D01*
X171609185Y-114197102D01*
X171709726Y-114323176D01*
X171777442Y-114408089D01*
X171892389Y-114514743D01*
X171975259Y-114591635D01*
X172198226Y-114743651D01*
X172441359Y-114860738D01*
X172699228Y-114940280D01*
X172699229Y-114940280D01*
X172699232Y-114940281D01*
X172966063Y-114980499D01*
X172966068Y-114980499D01*
X172966071Y-114980500D01*
X172966072Y-114980500D01*
X173235928Y-114980500D01*
X173235929Y-114980500D01*
X173235936Y-114980499D01*
X173502767Y-114940281D01*
X173502768Y-114940280D01*
X173502772Y-114940280D01*
X173760641Y-114860738D01*
X174003775Y-114743651D01*
X174132055Y-114656190D01*
X174198533Y-114634690D01*
X174266083Y-114652544D01*
X174313257Y-114704083D01*
X174325078Y-114772946D01*
X174321681Y-114790736D01*
X174307593Y-114843315D01*
X174307591Y-114843323D01*
X174307590Y-114843331D01*
X174275500Y-115087065D01*
X174275500Y-115332934D01*
X174302001Y-115534215D01*
X174307591Y-115576677D01*
X174371222Y-115814152D01*
X174371225Y-115814162D01*
X174465303Y-116041285D01*
X174465306Y-116041292D01*
X174588233Y-116254208D01*
X174588235Y-116254211D01*
X174588236Y-116254212D01*
X174737897Y-116449254D01*
X174737903Y-116449261D01*
X174911738Y-116623096D01*
X174911745Y-116623102D01*
X174984813Y-116679169D01*
X175106792Y-116772767D01*
X175319708Y-116895694D01*
X175546847Y-116989778D01*
X175784323Y-117053409D01*
X176028073Y-117085500D01*
X176028080Y-117085500D01*
X176273920Y-117085500D01*
X176273927Y-117085500D01*
X176517677Y-117053409D01*
X176755153Y-116989778D01*
X176982292Y-116895694D01*
X177078757Y-116840000D01*
X178655706Y-116840000D01*
X178674853Y-117083297D01*
X178674853Y-117083300D01*
X178674854Y-117083302D01*
X178675381Y-117085499D01*
X178731830Y-117320619D01*
X178825222Y-117546089D01*
X178952737Y-117754173D01*
X178952738Y-117754176D01*
X178952741Y-117754179D01*
X179111241Y-117939759D01*
X179254897Y-118062453D01*
X179296823Y-118098261D01*
X179296826Y-118098262D01*
X179504910Y-118225777D01*
X179730381Y-118319169D01*
X179730378Y-118319169D01*
X179730384Y-118319170D01*
X179730388Y-118319172D01*
X179967698Y-118376146D01*
X180211000Y-118395294D01*
X180454302Y-118376146D01*
X180691612Y-118319172D01*
X180917089Y-118225777D01*
X181125179Y-118098259D01*
X181310759Y-117939759D01*
X181469259Y-117754179D01*
X181596777Y-117546089D01*
X181690172Y-117320612D01*
X181747146Y-117083302D01*
X181766294Y-116840000D01*
X181747146Y-116596698D01*
X181690172Y-116359388D01*
X181690169Y-116359380D01*
X181596777Y-116133910D01*
X181469262Y-115925826D01*
X181469261Y-115925823D01*
X181310756Y-115740238D01*
X181221832Y-115664290D01*
X181183638Y-115605784D01*
X181183139Y-115535916D01*
X181220493Y-115476869D01*
X181221705Y-115475818D01*
X181310760Y-115399759D01*
X181469260Y-115214179D01*
X181596778Y-115006089D01*
X181690173Y-114780612D01*
X181747147Y-114543302D01*
X181766295Y-114300000D01*
X181747147Y-114056698D01*
X181690173Y-113819388D01*
X181690170Y-113819380D01*
X181596778Y-113593910D01*
X181469263Y-113385826D01*
X181469262Y-113385823D01*
X181415763Y-113323184D01*
X181310760Y-113200241D01*
X181188064Y-113095449D01*
X181125177Y-113041738D01*
X181125174Y-113041737D01*
X180917090Y-112914222D01*
X180691619Y-112820830D01*
X180691622Y-112820830D01*
X180585993Y-112795470D01*
X180454303Y-112763854D01*
X180454301Y-112763853D01*
X180454298Y-112763853D01*
X180211001Y-112744706D01*
X179967703Y-112763853D01*
X179730381Y-112820830D01*
X179504911Y-112914222D01*
X179296827Y-113041737D01*
X179296824Y-113041738D01*
X179111242Y-113200241D01*
X178952739Y-113385823D01*
X178952738Y-113385826D01*
X178825223Y-113593910D01*
X178731831Y-113819380D01*
X178731829Y-113819387D01*
X178731829Y-113819388D01*
X178695491Y-113970744D01*
X178674854Y-114056702D01*
X178655707Y-114300000D01*
X178674854Y-114543297D01*
X178674854Y-114543300D01*
X178674855Y-114543302D01*
X178725616Y-114754735D01*
X178731831Y-114780619D01*
X178825223Y-115006089D01*
X178952738Y-115214173D01*
X178952739Y-115214176D01*
X178993186Y-115261533D01*
X179111242Y-115399759D01*
X179200169Y-115475709D01*
X179238362Y-115534215D01*
X179238861Y-115604083D01*
X179201507Y-115663130D01*
X179200169Y-115664289D01*
X179111241Y-115740241D01*
X178952738Y-115925823D01*
X178952737Y-115925826D01*
X178825222Y-116133910D01*
X178731830Y-116359380D01*
X178674853Y-116596702D01*
X178655706Y-116840000D01*
X177078757Y-116840000D01*
X177195208Y-116772767D01*
X177390256Y-116623101D01*
X177564101Y-116449256D01*
X177713767Y-116254208D01*
X177836694Y-116041292D01*
X177930778Y-115814153D01*
X177994409Y-115576677D01*
X178026500Y-115332927D01*
X178026500Y-115087073D01*
X177994409Y-114843323D01*
X177930778Y-114605847D01*
X177836694Y-114378708D01*
X177713767Y-114165792D01*
X177564101Y-113970744D01*
X177564096Y-113970738D01*
X177390261Y-113796903D01*
X177390254Y-113796897D01*
X177195212Y-113647236D01*
X177195211Y-113647235D01*
X177195208Y-113647233D01*
X176982292Y-113524306D01*
X176982285Y-113524303D01*
X176755162Y-113430225D01*
X176755155Y-113430223D01*
X176755153Y-113430222D01*
X176517677Y-113366591D01*
X176476939Y-113361227D01*
X176273934Y-113334500D01*
X176273927Y-113334500D01*
X176028073Y-113334500D01*
X176028065Y-113334500D01*
X175796059Y-113365045D01*
X175784323Y-113366591D01*
X175626169Y-113408968D01*
X175546847Y-113430222D01*
X175546837Y-113430225D01*
X175319714Y-113524303D01*
X175319705Y-113524307D01*
X175106788Y-113647235D01*
X175057689Y-113684910D01*
X174992520Y-113710103D01*
X174924075Y-113696064D01*
X174874086Y-113647249D01*
X174858424Y-113579158D01*
X174861313Y-113558940D01*
X174869219Y-113524303D01*
X174886383Y-113449103D01*
X174898926Y-113281730D01*
X174906549Y-113180004D01*
X174906549Y-113179995D01*
X174886383Y-112910898D01*
X174861723Y-112802854D01*
X174826334Y-112647805D01*
X174727743Y-112396602D01*
X174592815Y-112162898D01*
X174424561Y-111951915D01*
X174424560Y-111951914D01*
X174424557Y-111951910D01*
X174226741Y-111768365D01*
X174003775Y-111616349D01*
X174003769Y-111616346D01*
X174003768Y-111616345D01*
X174003767Y-111616344D01*
X173760643Y-111499263D01*
X173760645Y-111499263D01*
X173502773Y-111419720D01*
X173502767Y-111419718D01*
X173235936Y-111379500D01*
X173235929Y-111379500D01*
X172966071Y-111379500D01*
X172966063Y-111379500D01*
X172699232Y-111419718D01*
X172699226Y-111419720D01*
X172441358Y-111499262D01*
X172198230Y-111616346D01*
X171975258Y-111768365D01*
X171777442Y-111951910D01*
X171609185Y-112162898D01*
X171474258Y-112396599D01*
X171474256Y-112396603D01*
X171375666Y-112647804D01*
X171375664Y-112647811D01*
X171315616Y-112910898D01*
X171295451Y-113179995D01*
X151553283Y-113179995D01*
X151607416Y-113125862D01*
X151703389Y-112973122D01*
X151762968Y-112802855D01*
X151763361Y-112799368D01*
X151783165Y-112623603D01*
X151783165Y-112623596D01*
X151762969Y-112444350D01*
X151762968Y-112444345D01*
X151703388Y-112274076D01*
X151607415Y-112121337D01*
X151479862Y-111993784D01*
X151327123Y-111897811D01*
X151156854Y-111838231D01*
X151156849Y-111838230D01*
X150977604Y-111818035D01*
X150977596Y-111818035D01*
X150798350Y-111838230D01*
X150798337Y-111838233D01*
X150628080Y-111897809D01*
X150586370Y-111924017D01*
X150519133Y-111943016D01*
X150454430Y-111924017D01*
X150412719Y-111897809D01*
X150242462Y-111838233D01*
X150242449Y-111838230D01*
X150063204Y-111818035D01*
X150063196Y-111818035D01*
X149883950Y-111838230D01*
X149883945Y-111838231D01*
X149713676Y-111897811D01*
X149560937Y-111993784D01*
X149433384Y-112121337D01*
X149337411Y-112274076D01*
X149277831Y-112444345D01*
X149277830Y-112444350D01*
X149257635Y-112623596D01*
X148096482Y-112623596D01*
X148203816Y-112516262D01*
X148299789Y-112363522D01*
X148359368Y-112193255D01*
X148359369Y-112193249D01*
X148379565Y-112014003D01*
X148379565Y-112013996D01*
X148359369Y-111834750D01*
X148359368Y-111834745D01*
X148299788Y-111664476D01*
X148203815Y-111511737D01*
X148076262Y-111384184D01*
X147923523Y-111288211D01*
X147753254Y-111228631D01*
X147753249Y-111228630D01*
X147574004Y-111208435D01*
X147573996Y-111208435D01*
X147394750Y-111228630D01*
X147394745Y-111228631D01*
X147224476Y-111288211D01*
X147071737Y-111384184D01*
X146944184Y-111511737D01*
X146848211Y-111664476D01*
X146788631Y-111834745D01*
X146788630Y-111834750D01*
X146768435Y-112013996D01*
X131226691Y-112013996D01*
X134552212Y-108688475D01*
X134613533Y-108654992D01*
X134683225Y-108659976D01*
X134739158Y-108701848D01*
X134752273Y-108723752D01*
X134766766Y-108754832D01*
X134772375Y-108762842D01*
X134902305Y-108948401D01*
X135069399Y-109115495D01*
X135154775Y-109175276D01*
X135262965Y-109251032D01*
X135262967Y-109251033D01*
X135262970Y-109251035D01*
X135477137Y-109350903D01*
X135705392Y-109412063D01*
X135881834Y-109427500D01*
X135940799Y-109432659D01*
X135940800Y-109432659D01*
X135940801Y-109432659D01*
X135999766Y-109427500D01*
X136176208Y-109412063D01*
X136404463Y-109350903D01*
X136618630Y-109251035D01*
X136812201Y-109115495D01*
X136979295Y-108948401D01*
X137109225Y-108762842D01*
X137163802Y-108719217D01*
X137233300Y-108712023D01*
X137295655Y-108743546D01*
X137312375Y-108762842D01*
X137442300Y-108948395D01*
X137442305Y-108948401D01*
X137609399Y-109115495D01*
X137694775Y-109175276D01*
X137802965Y-109251032D01*
X137802967Y-109251033D01*
X137802970Y-109251035D01*
X138017137Y-109350903D01*
X138245392Y-109412063D01*
X138421834Y-109427500D01*
X138480799Y-109432659D01*
X138480800Y-109432659D01*
X138480801Y-109432659D01*
X138539766Y-109427500D01*
X138716208Y-109412063D01*
X138944463Y-109350903D01*
X139158630Y-109251035D01*
X139352201Y-109115495D01*
X139474129Y-108993566D01*
X139535448Y-108960084D01*
X139605140Y-108965068D01*
X139661074Y-109006939D01*
X139677989Y-109037917D01*
X139727002Y-109169328D01*
X139727006Y-109169335D01*
X139813252Y-109284544D01*
X139813255Y-109284547D01*
X139928464Y-109370793D01*
X139928471Y-109370797D01*
X140063317Y-109421091D01*
X140063316Y-109421091D01*
X140070244Y-109421835D01*
X140122927Y-109427500D01*
X141918672Y-109427499D01*
X141978283Y-109421091D01*
X142113131Y-109370796D01*
X142228346Y-109284546D01*
X142314596Y-109169331D01*
X142363610Y-109037916D01*
X142405481Y-108981984D01*
X142470945Y-108957566D01*
X142539218Y-108972417D01*
X142567473Y-108993569D01*
X142689399Y-109115495D01*
X142774775Y-109175276D01*
X142882965Y-109251032D01*
X142882967Y-109251033D01*
X142882970Y-109251035D01*
X143097137Y-109350903D01*
X143325392Y-109412063D01*
X143501834Y-109427500D01*
X143560799Y-109432659D01*
X143560800Y-109432659D01*
X143560801Y-109432659D01*
X143619766Y-109427500D01*
X143796208Y-109412063D01*
X144024463Y-109350903D01*
X144238630Y-109251035D01*
X144432201Y-109115495D01*
X144599295Y-108948401D01*
X144729225Y-108762842D01*
X144783802Y-108719217D01*
X144853300Y-108712023D01*
X144915655Y-108743546D01*
X144932375Y-108762842D01*
X145062300Y-108948395D01*
X145062305Y-108948401D01*
X145229399Y-109115495D01*
X145314775Y-109175276D01*
X145422965Y-109251032D01*
X145422967Y-109251033D01*
X145422970Y-109251035D01*
X145637137Y-109350903D01*
X145865392Y-109412063D01*
X146041834Y-109427500D01*
X146100799Y-109432659D01*
X146100800Y-109432659D01*
X146100801Y-109432659D01*
X146159766Y-109427500D01*
X146336208Y-109412063D01*
X146564463Y-109350903D01*
X146778630Y-109251035D01*
X146972201Y-109115495D01*
X147139295Y-108948401D01*
X147269225Y-108762842D01*
X147323802Y-108719217D01*
X147393300Y-108712023D01*
X147455655Y-108743546D01*
X147472375Y-108762842D01*
X147602300Y-108948395D01*
X147602305Y-108948401D01*
X147769399Y-109115495D01*
X147854775Y-109175276D01*
X147962965Y-109251032D01*
X147962967Y-109251033D01*
X147962970Y-109251035D01*
X148177137Y-109350903D01*
X148405392Y-109412063D01*
X148581834Y-109427500D01*
X148640799Y-109432659D01*
X148640800Y-109432659D01*
X148640801Y-109432659D01*
X148699766Y-109427500D01*
X148876208Y-109412063D01*
X149104463Y-109350903D01*
X149318630Y-109251035D01*
X149512201Y-109115495D01*
X149679295Y-108948401D01*
X149809225Y-108762842D01*
X149863802Y-108719217D01*
X149933300Y-108712023D01*
X149995655Y-108743546D01*
X150012375Y-108762842D01*
X150142300Y-108948395D01*
X150142305Y-108948401D01*
X150309399Y-109115495D01*
X150394775Y-109175276D01*
X150502965Y-109251032D01*
X150502967Y-109251033D01*
X150502970Y-109251035D01*
X150717137Y-109350903D01*
X150945392Y-109412063D01*
X151121834Y-109427500D01*
X151180799Y-109432659D01*
X151180800Y-109432659D01*
X151180801Y-109432659D01*
X151239766Y-109427500D01*
X151416208Y-109412063D01*
X151644463Y-109350903D01*
X151858630Y-109251035D01*
X152052201Y-109115495D01*
X152174129Y-108993566D01*
X152235448Y-108960084D01*
X152305140Y-108965068D01*
X152361074Y-109006939D01*
X152377989Y-109037917D01*
X152427002Y-109169328D01*
X152427006Y-109169335D01*
X152513252Y-109284544D01*
X152513255Y-109284547D01*
X152628464Y-109370793D01*
X152628471Y-109370797D01*
X152763317Y-109421091D01*
X152763316Y-109421091D01*
X152770244Y-109421835D01*
X152822927Y-109427500D01*
X154618672Y-109427499D01*
X154678283Y-109421091D01*
X154813131Y-109370796D01*
X154928346Y-109284546D01*
X155014596Y-109169331D01*
X155063610Y-109037916D01*
X155105481Y-108981984D01*
X155170945Y-108957566D01*
X155239218Y-108972417D01*
X155267473Y-108993569D01*
X155389399Y-109115495D01*
X155474775Y-109175276D01*
X155582965Y-109251032D01*
X155582967Y-109251033D01*
X155582970Y-109251035D01*
X155797137Y-109350903D01*
X156025392Y-109412063D01*
X156201834Y-109427500D01*
X156260799Y-109432659D01*
X156260800Y-109432659D01*
X156260801Y-109432659D01*
X156319766Y-109427500D01*
X156496208Y-109412063D01*
X156724463Y-109350903D01*
X156938630Y-109251035D01*
X157132201Y-109115495D01*
X157299295Y-108948401D01*
X157429225Y-108762842D01*
X157483802Y-108719217D01*
X157553300Y-108712023D01*
X157615655Y-108743546D01*
X157632375Y-108762842D01*
X157762300Y-108948395D01*
X157762305Y-108948401D01*
X157929399Y-109115495D01*
X158014775Y-109175276D01*
X158122965Y-109251032D01*
X158122967Y-109251033D01*
X158122970Y-109251035D01*
X158337137Y-109350903D01*
X158565392Y-109412063D01*
X158741834Y-109427500D01*
X158800799Y-109432659D01*
X158800800Y-109432659D01*
X158800801Y-109432659D01*
X158859766Y-109427500D01*
X159036208Y-109412063D01*
X159264463Y-109350903D01*
X159478630Y-109251035D01*
X159672201Y-109115495D01*
X159839295Y-108948401D01*
X159969225Y-108762842D01*
X160023802Y-108719217D01*
X160093300Y-108712023D01*
X160155655Y-108743546D01*
X160172375Y-108762842D01*
X160302300Y-108948395D01*
X160302305Y-108948401D01*
X160469399Y-109115495D01*
X160554775Y-109175276D01*
X160662965Y-109251032D01*
X160662967Y-109251033D01*
X160662970Y-109251035D01*
X160877137Y-109350903D01*
X161105392Y-109412063D01*
X161281834Y-109427500D01*
X161340799Y-109432659D01*
X161340800Y-109432659D01*
X161340801Y-109432659D01*
X161399766Y-109427500D01*
X161576208Y-109412063D01*
X161804463Y-109350903D01*
X162018630Y-109251035D01*
X162212201Y-109115495D01*
X162379295Y-108948401D01*
X162509225Y-108762842D01*
X162563802Y-108719217D01*
X162633300Y-108712023D01*
X162695655Y-108743546D01*
X162712375Y-108762842D01*
X162842300Y-108948395D01*
X162842305Y-108948401D01*
X163009399Y-109115495D01*
X163094775Y-109175276D01*
X163202965Y-109251032D01*
X163202967Y-109251033D01*
X163202970Y-109251035D01*
X163417137Y-109350903D01*
X163645392Y-109412063D01*
X163821834Y-109427500D01*
X163880799Y-109432659D01*
X163880800Y-109432659D01*
X163880801Y-109432659D01*
X163939766Y-109427500D01*
X164116208Y-109412063D01*
X164344463Y-109350903D01*
X164558630Y-109251035D01*
X164752201Y-109115495D01*
X164874129Y-108993566D01*
X164935448Y-108960084D01*
X165005140Y-108965068D01*
X165061074Y-109006939D01*
X165077989Y-109037917D01*
X165127002Y-109169328D01*
X165127006Y-109169335D01*
X165213252Y-109284544D01*
X165213255Y-109284547D01*
X165328464Y-109370793D01*
X165328471Y-109370797D01*
X165463317Y-109421091D01*
X165463316Y-109421091D01*
X165470244Y-109421835D01*
X165522927Y-109427500D01*
X167318672Y-109427499D01*
X167378283Y-109421091D01*
X167513131Y-109370796D01*
X167628346Y-109284546D01*
X167714596Y-109169331D01*
X167763610Y-109037916D01*
X167805481Y-108981984D01*
X167870945Y-108957566D01*
X167939218Y-108972417D01*
X167967473Y-108993569D01*
X168089399Y-109115495D01*
X168174775Y-109175276D01*
X168282965Y-109251032D01*
X168282967Y-109251033D01*
X168282970Y-109251035D01*
X168497137Y-109350903D01*
X168725392Y-109412063D01*
X168901834Y-109427500D01*
X168960799Y-109432659D01*
X168960800Y-109432659D01*
X168960801Y-109432659D01*
X169019766Y-109427500D01*
X169196208Y-109412063D01*
X169424463Y-109350903D01*
X169638630Y-109251035D01*
X169832201Y-109115495D01*
X169999295Y-108948401D01*
X170129225Y-108762842D01*
X170183802Y-108719217D01*
X170253300Y-108712023D01*
X170315655Y-108743546D01*
X170332375Y-108762842D01*
X170462300Y-108948395D01*
X170462305Y-108948401D01*
X170629399Y-109115495D01*
X170714775Y-109175276D01*
X170822965Y-109251032D01*
X170822967Y-109251033D01*
X170822970Y-109251035D01*
X171037137Y-109350903D01*
X171265392Y-109412063D01*
X171441834Y-109427500D01*
X171500799Y-109432659D01*
X171500800Y-109432659D01*
X171500801Y-109432659D01*
X171559766Y-109427500D01*
X171736208Y-109412063D01*
X171964463Y-109350903D01*
X172178630Y-109251035D01*
X172372201Y-109115495D01*
X172539295Y-108948401D01*
X172669225Y-108762842D01*
X172723802Y-108719217D01*
X172793300Y-108712023D01*
X172855655Y-108743546D01*
X172872375Y-108762842D01*
X173002300Y-108948395D01*
X173002305Y-108948401D01*
X173169399Y-109115495D01*
X173254775Y-109175276D01*
X173362965Y-109251032D01*
X173362967Y-109251033D01*
X173362970Y-109251035D01*
X173577137Y-109350903D01*
X173805392Y-109412063D01*
X173981834Y-109427500D01*
X174040799Y-109432659D01*
X174040800Y-109432659D01*
X174040801Y-109432659D01*
X174099766Y-109427500D01*
X174276208Y-109412063D01*
X174504463Y-109350903D01*
X174718630Y-109251035D01*
X174912201Y-109115495D01*
X175079295Y-108948401D01*
X175209225Y-108762842D01*
X175263802Y-108719217D01*
X175333300Y-108712023D01*
X175395655Y-108743546D01*
X175412375Y-108762842D01*
X175542300Y-108948395D01*
X175542305Y-108948401D01*
X175709399Y-109115495D01*
X175794775Y-109175276D01*
X175902965Y-109251032D01*
X175902967Y-109251033D01*
X175902970Y-109251035D01*
X176117137Y-109350903D01*
X176345392Y-109412063D01*
X176521834Y-109427500D01*
X176580799Y-109432659D01*
X176580800Y-109432659D01*
X176580801Y-109432659D01*
X176639766Y-109427500D01*
X176816208Y-109412063D01*
X177044463Y-109350903D01*
X177258630Y-109251035D01*
X177452201Y-109115495D01*
X177574129Y-108993566D01*
X177635448Y-108960084D01*
X177705140Y-108965068D01*
X177761074Y-109006939D01*
X177777989Y-109037917D01*
X177827002Y-109169328D01*
X177827006Y-109169335D01*
X177913252Y-109284544D01*
X177913255Y-109284547D01*
X178028464Y-109370793D01*
X178028471Y-109370797D01*
X178163317Y-109421091D01*
X178163316Y-109421091D01*
X178170244Y-109421835D01*
X178222927Y-109427500D01*
X180018672Y-109427499D01*
X180078283Y-109421091D01*
X180213131Y-109370796D01*
X180328346Y-109284546D01*
X180414596Y-109169331D01*
X180463610Y-109037916D01*
X180505481Y-108981984D01*
X180570945Y-108957566D01*
X180639218Y-108972417D01*
X180667473Y-108993569D01*
X180789399Y-109115495D01*
X180874775Y-109175276D01*
X180982965Y-109251032D01*
X180982967Y-109251033D01*
X180982970Y-109251035D01*
X181197137Y-109350903D01*
X181425392Y-109412063D01*
X181601834Y-109427500D01*
X181660799Y-109432659D01*
X181660800Y-109432659D01*
X181660801Y-109432659D01*
X181719766Y-109427500D01*
X181896208Y-109412063D01*
X182124463Y-109350903D01*
X182338630Y-109251035D01*
X182532201Y-109115495D01*
X182699295Y-108948401D01*
X182829225Y-108762842D01*
X182883802Y-108719217D01*
X182953300Y-108712023D01*
X183015655Y-108743546D01*
X183032375Y-108762842D01*
X183162300Y-108948395D01*
X183162305Y-108948401D01*
X183329399Y-109115495D01*
X183414775Y-109175276D01*
X183522965Y-109251032D01*
X183522967Y-109251033D01*
X183522970Y-109251035D01*
X183737137Y-109350903D01*
X183965392Y-109412063D01*
X184141834Y-109427500D01*
X184200799Y-109432659D01*
X184200800Y-109432659D01*
X184200801Y-109432659D01*
X184259766Y-109427500D01*
X184436208Y-109412063D01*
X184664463Y-109350903D01*
X184878630Y-109251035D01*
X185072201Y-109115495D01*
X185239295Y-108948401D01*
X185374835Y-108754830D01*
X185474703Y-108540663D01*
X185535863Y-108312408D01*
X185556459Y-108077000D01*
X185535863Y-107841592D01*
X185474703Y-107613337D01*
X185374835Y-107399171D01*
X185369225Y-107391158D01*
X185239294Y-107205597D01*
X185072202Y-107038506D01*
X185072195Y-107038501D01*
X184878634Y-106902967D01*
X184878630Y-106902965D01*
X184847552Y-106888473D01*
X184664463Y-106803097D01*
X184664459Y-106803096D01*
X184664455Y-106803094D01*
X184436213Y-106741938D01*
X184436203Y-106741936D01*
X184200801Y-106721341D01*
X184200799Y-106721341D01*
X183965396Y-106741936D01*
X183965386Y-106741938D01*
X183737144Y-106803094D01*
X183737135Y-106803098D01*
X183522971Y-106902964D01*
X183522969Y-106902965D01*
X183329397Y-107038505D01*
X183162305Y-107205597D01*
X183032375Y-107391158D01*
X182977798Y-107434783D01*
X182908300Y-107441977D01*
X182845945Y-107410454D01*
X182829225Y-107391158D01*
X182699294Y-107205597D01*
X182532202Y-107038506D01*
X182532195Y-107038501D01*
X182338634Y-106902967D01*
X182338630Y-106902965D01*
X182307552Y-106888473D01*
X182124463Y-106803097D01*
X182124459Y-106803096D01*
X182124455Y-106803094D01*
X181896213Y-106741938D01*
X181896203Y-106741936D01*
X181660801Y-106721341D01*
X181660799Y-106721341D01*
X181425396Y-106741936D01*
X181425386Y-106741938D01*
X181197144Y-106803094D01*
X181197135Y-106803098D01*
X180982971Y-106902964D01*
X180982969Y-106902965D01*
X180789400Y-107038503D01*
X180667473Y-107160430D01*
X180606150Y-107193914D01*
X180536458Y-107188930D01*
X180480525Y-107147058D01*
X180463610Y-107116081D01*
X180414597Y-106984671D01*
X180414593Y-106984664D01*
X180328347Y-106869455D01*
X180328344Y-106869452D01*
X180213135Y-106783206D01*
X180213128Y-106783202D01*
X180078282Y-106732908D01*
X180078283Y-106732908D01*
X180018683Y-106726501D01*
X180018681Y-106726500D01*
X180018673Y-106726500D01*
X180018664Y-106726500D01*
X178222929Y-106726500D01*
X178222923Y-106726501D01*
X178163316Y-106732908D01*
X178028471Y-106783202D01*
X178028464Y-106783206D01*
X177913255Y-106869452D01*
X177913252Y-106869455D01*
X177827006Y-106984664D01*
X177827003Y-106984669D01*
X177777989Y-107116083D01*
X177736117Y-107172016D01*
X177670653Y-107196433D01*
X177602380Y-107181581D01*
X177574126Y-107160430D01*
X177452202Y-107038506D01*
X177452195Y-107038501D01*
X177258634Y-106902967D01*
X177258630Y-106902965D01*
X177227552Y-106888473D01*
X177044463Y-106803097D01*
X177044459Y-106803096D01*
X177044455Y-106803094D01*
X176816213Y-106741938D01*
X176816203Y-106741936D01*
X176580801Y-106721341D01*
X176580799Y-106721341D01*
X176345396Y-106741936D01*
X176345386Y-106741938D01*
X176117144Y-106803094D01*
X176117135Y-106803098D01*
X175902971Y-106902964D01*
X175902969Y-106902965D01*
X175709397Y-107038505D01*
X175542305Y-107205597D01*
X175412375Y-107391158D01*
X175357798Y-107434783D01*
X175288300Y-107441977D01*
X175225945Y-107410454D01*
X175209225Y-107391158D01*
X175079294Y-107205597D01*
X174912202Y-107038506D01*
X174912195Y-107038501D01*
X174718634Y-106902967D01*
X174718630Y-106902965D01*
X174687552Y-106888473D01*
X174504463Y-106803097D01*
X174504459Y-106803096D01*
X174504455Y-106803094D01*
X174276213Y-106741938D01*
X174276203Y-106741936D01*
X174040801Y-106721341D01*
X174040799Y-106721341D01*
X173805396Y-106741936D01*
X173805386Y-106741938D01*
X173577144Y-106803094D01*
X173577135Y-106803098D01*
X173362971Y-106902964D01*
X173362969Y-106902965D01*
X173169397Y-107038505D01*
X173002305Y-107205597D01*
X172872375Y-107391158D01*
X172817798Y-107434783D01*
X172748300Y-107441977D01*
X172685945Y-107410454D01*
X172669225Y-107391158D01*
X172539294Y-107205597D01*
X172372202Y-107038506D01*
X172372195Y-107038501D01*
X172178634Y-106902967D01*
X172178630Y-106902965D01*
X172147552Y-106888473D01*
X171964463Y-106803097D01*
X171964459Y-106803096D01*
X171964455Y-106803094D01*
X171736213Y-106741938D01*
X171736203Y-106741936D01*
X171500801Y-106721341D01*
X171500799Y-106721341D01*
X171265396Y-106741936D01*
X171265386Y-106741938D01*
X171037144Y-106803094D01*
X171037135Y-106803098D01*
X170822971Y-106902964D01*
X170822969Y-106902965D01*
X170629397Y-107038505D01*
X170462305Y-107205597D01*
X170332375Y-107391158D01*
X170277798Y-107434783D01*
X170208300Y-107441977D01*
X170145945Y-107410454D01*
X170129225Y-107391158D01*
X169999294Y-107205597D01*
X169832202Y-107038506D01*
X169832195Y-107038501D01*
X169638634Y-106902967D01*
X169638630Y-106902965D01*
X169607552Y-106888473D01*
X169424463Y-106803097D01*
X169424459Y-106803096D01*
X169424455Y-106803094D01*
X169196213Y-106741938D01*
X169196203Y-106741936D01*
X168960801Y-106721341D01*
X168960799Y-106721341D01*
X168725396Y-106741936D01*
X168725386Y-106741938D01*
X168497144Y-106803094D01*
X168497135Y-106803098D01*
X168282971Y-106902964D01*
X168282969Y-106902965D01*
X168089400Y-107038503D01*
X167967473Y-107160430D01*
X167906150Y-107193914D01*
X167836458Y-107188930D01*
X167780525Y-107147058D01*
X167763610Y-107116081D01*
X167714597Y-106984671D01*
X167714593Y-106984664D01*
X167628347Y-106869455D01*
X167628344Y-106869452D01*
X167513135Y-106783206D01*
X167513128Y-106783202D01*
X167378282Y-106732908D01*
X167378283Y-106732908D01*
X167318683Y-106726501D01*
X167318681Y-106726500D01*
X167318673Y-106726500D01*
X167318664Y-106726500D01*
X165522929Y-106726500D01*
X165522923Y-106726501D01*
X165463316Y-106732908D01*
X165328471Y-106783202D01*
X165328464Y-106783206D01*
X165213255Y-106869452D01*
X165213252Y-106869455D01*
X165127006Y-106984664D01*
X165127003Y-106984669D01*
X165077989Y-107116083D01*
X165036117Y-107172016D01*
X164970653Y-107196433D01*
X164902380Y-107181581D01*
X164874126Y-107160430D01*
X164752202Y-107038506D01*
X164752195Y-107038501D01*
X164558634Y-106902967D01*
X164558630Y-106902965D01*
X164527552Y-106888473D01*
X164344463Y-106803097D01*
X164344459Y-106803096D01*
X164344455Y-106803094D01*
X164116213Y-106741938D01*
X164116203Y-106741936D01*
X163880801Y-106721341D01*
X163880799Y-106721341D01*
X163645396Y-106741936D01*
X163645386Y-106741938D01*
X163417144Y-106803094D01*
X163417135Y-106803098D01*
X163202971Y-106902964D01*
X163202969Y-106902965D01*
X163009397Y-107038505D01*
X162842305Y-107205597D01*
X162712375Y-107391158D01*
X162657798Y-107434783D01*
X162588300Y-107441977D01*
X162525945Y-107410454D01*
X162509225Y-107391158D01*
X162379294Y-107205597D01*
X162212202Y-107038506D01*
X162212195Y-107038501D01*
X162018634Y-106902967D01*
X162018630Y-106902965D01*
X161987552Y-106888473D01*
X161804463Y-106803097D01*
X161804459Y-106803096D01*
X161804455Y-106803094D01*
X161576213Y-106741938D01*
X161576203Y-106741936D01*
X161340801Y-106721341D01*
X161340799Y-106721341D01*
X161105396Y-106741936D01*
X161105386Y-106741938D01*
X160877144Y-106803094D01*
X160877135Y-106803098D01*
X160662971Y-106902964D01*
X160662969Y-106902965D01*
X160469397Y-107038505D01*
X160302305Y-107205597D01*
X160172375Y-107391158D01*
X160117798Y-107434783D01*
X160048300Y-107441977D01*
X159985945Y-107410454D01*
X159969225Y-107391158D01*
X159839294Y-107205597D01*
X159672202Y-107038506D01*
X159672195Y-107038501D01*
X159478634Y-106902967D01*
X159478630Y-106902965D01*
X159447552Y-106888473D01*
X159264463Y-106803097D01*
X159264459Y-106803096D01*
X159264455Y-106803094D01*
X159036213Y-106741938D01*
X159036203Y-106741936D01*
X158800801Y-106721341D01*
X158800799Y-106721341D01*
X158565396Y-106741936D01*
X158565386Y-106741938D01*
X158337144Y-106803094D01*
X158337135Y-106803098D01*
X158122971Y-106902964D01*
X158122969Y-106902965D01*
X157929397Y-107038505D01*
X157762305Y-107205597D01*
X157632375Y-107391158D01*
X157577798Y-107434783D01*
X157508300Y-107441977D01*
X157445945Y-107410454D01*
X157429225Y-107391158D01*
X157299294Y-107205597D01*
X157132202Y-107038506D01*
X157132195Y-107038501D01*
X156938634Y-106902967D01*
X156938630Y-106902965D01*
X156907552Y-106888473D01*
X156724463Y-106803097D01*
X156724459Y-106803096D01*
X156724455Y-106803094D01*
X156496213Y-106741938D01*
X156496203Y-106741936D01*
X156260801Y-106721341D01*
X156260799Y-106721341D01*
X156025396Y-106741936D01*
X156025386Y-106741938D01*
X155797144Y-106803094D01*
X155797135Y-106803098D01*
X155582971Y-106902964D01*
X155582969Y-106902965D01*
X155389400Y-107038503D01*
X155267473Y-107160430D01*
X155206150Y-107193914D01*
X155136458Y-107188930D01*
X155080525Y-107147058D01*
X155063610Y-107116081D01*
X155014597Y-106984671D01*
X155014593Y-106984664D01*
X154928347Y-106869455D01*
X154928344Y-106869452D01*
X154813135Y-106783206D01*
X154813128Y-106783202D01*
X154678282Y-106732908D01*
X154678283Y-106732908D01*
X154618683Y-106726501D01*
X154618681Y-106726500D01*
X154618673Y-106726500D01*
X154618664Y-106726500D01*
X152822929Y-106726500D01*
X152822923Y-106726501D01*
X152763316Y-106732908D01*
X152628471Y-106783202D01*
X152628464Y-106783206D01*
X152513255Y-106869452D01*
X152513252Y-106869455D01*
X152427006Y-106984664D01*
X152427003Y-106984669D01*
X152377989Y-107116083D01*
X152336117Y-107172016D01*
X152270653Y-107196433D01*
X152202380Y-107181581D01*
X152174126Y-107160430D01*
X152052202Y-107038506D01*
X152052195Y-107038501D01*
X151858634Y-106902967D01*
X151858630Y-106902965D01*
X151827552Y-106888473D01*
X151644463Y-106803097D01*
X151644459Y-106803096D01*
X151644455Y-106803094D01*
X151416213Y-106741938D01*
X151416203Y-106741936D01*
X151180801Y-106721341D01*
X151180799Y-106721341D01*
X150945396Y-106741936D01*
X150945386Y-106741938D01*
X150717144Y-106803094D01*
X150717135Y-106803098D01*
X150502971Y-106902964D01*
X150502969Y-106902965D01*
X150309397Y-107038505D01*
X150142305Y-107205597D01*
X150012375Y-107391158D01*
X149957798Y-107434783D01*
X149888300Y-107441977D01*
X149825945Y-107410454D01*
X149809225Y-107391158D01*
X149679294Y-107205597D01*
X149512202Y-107038506D01*
X149512195Y-107038501D01*
X149318634Y-106902967D01*
X149318630Y-106902965D01*
X149287552Y-106888473D01*
X149104463Y-106803097D01*
X149104459Y-106803096D01*
X149104455Y-106803094D01*
X148876213Y-106741938D01*
X148876203Y-106741936D01*
X148640801Y-106721341D01*
X148640799Y-106721341D01*
X148405396Y-106741936D01*
X148405386Y-106741938D01*
X148177144Y-106803094D01*
X148177135Y-106803098D01*
X147962971Y-106902964D01*
X147962969Y-106902965D01*
X147769397Y-107038505D01*
X147602305Y-107205597D01*
X147472375Y-107391158D01*
X147417798Y-107434783D01*
X147348300Y-107441977D01*
X147285945Y-107410454D01*
X147269225Y-107391158D01*
X147139294Y-107205597D01*
X146972202Y-107038506D01*
X146972195Y-107038501D01*
X146778634Y-106902967D01*
X146778630Y-106902965D01*
X146747552Y-106888473D01*
X146564463Y-106803097D01*
X146564459Y-106803096D01*
X146564455Y-106803094D01*
X146336213Y-106741938D01*
X146336203Y-106741936D01*
X146100801Y-106721341D01*
X146100799Y-106721341D01*
X145865396Y-106741936D01*
X145865386Y-106741938D01*
X145637144Y-106803094D01*
X145637135Y-106803098D01*
X145422971Y-106902964D01*
X145422969Y-106902965D01*
X145229397Y-107038505D01*
X145062305Y-107205597D01*
X144932375Y-107391158D01*
X144877798Y-107434783D01*
X144808300Y-107441977D01*
X144745945Y-107410454D01*
X144729225Y-107391158D01*
X144599294Y-107205597D01*
X144432202Y-107038506D01*
X144432195Y-107038501D01*
X144238634Y-106902967D01*
X144238630Y-106902965D01*
X144207552Y-106888473D01*
X144024463Y-106803097D01*
X144024459Y-106803096D01*
X144024455Y-106803094D01*
X143796213Y-106741938D01*
X143796203Y-106741936D01*
X143560801Y-106721341D01*
X143560799Y-106721341D01*
X143325396Y-106741936D01*
X143325386Y-106741938D01*
X143097144Y-106803094D01*
X143097135Y-106803098D01*
X142882971Y-106902964D01*
X142882969Y-106902965D01*
X142689400Y-107038503D01*
X142567473Y-107160430D01*
X142506150Y-107193914D01*
X142436458Y-107188930D01*
X142380525Y-107147058D01*
X142363610Y-107116081D01*
X142314597Y-106984671D01*
X142314593Y-106984664D01*
X142228347Y-106869455D01*
X142228344Y-106869452D01*
X142113135Y-106783206D01*
X142113128Y-106783202D01*
X141978282Y-106732908D01*
X141978283Y-106732908D01*
X141918683Y-106726501D01*
X141918681Y-106726500D01*
X141918673Y-106726500D01*
X141918664Y-106726500D01*
X140122929Y-106726500D01*
X140122923Y-106726501D01*
X140063316Y-106732908D01*
X139928471Y-106783202D01*
X139928464Y-106783206D01*
X139813255Y-106869452D01*
X139813252Y-106869455D01*
X139727006Y-106984664D01*
X139727003Y-106984669D01*
X139677989Y-107116083D01*
X139636117Y-107172016D01*
X139570653Y-107196433D01*
X139502380Y-107181581D01*
X139474126Y-107160430D01*
X139352202Y-107038506D01*
X139352195Y-107038501D01*
X139158634Y-106902967D01*
X139158630Y-106902965D01*
X139127552Y-106888473D01*
X138944463Y-106803097D01*
X138944459Y-106803096D01*
X138944455Y-106803094D01*
X138716213Y-106741938D01*
X138716203Y-106741936D01*
X138480801Y-106721341D01*
X138480799Y-106721341D01*
X138245396Y-106741936D01*
X138245386Y-106741938D01*
X138017144Y-106803094D01*
X138017135Y-106803098D01*
X137802971Y-106902964D01*
X137802969Y-106902965D01*
X137609397Y-107038505D01*
X137442305Y-107205597D01*
X137312375Y-107391158D01*
X137257798Y-107434783D01*
X137188300Y-107441977D01*
X137125945Y-107410454D01*
X137109225Y-107391158D01*
X136979294Y-107205597D01*
X136812202Y-107038506D01*
X136812195Y-107038501D01*
X136618632Y-106902966D01*
X136587552Y-106888473D01*
X136535113Y-106842300D01*
X136515962Y-106775106D01*
X136536178Y-106708225D01*
X136552272Y-106688415D01*
X139507092Y-103733596D01*
X162465635Y-103733596D01*
X162465635Y-103733603D01*
X162485830Y-103912849D01*
X162485831Y-103912854D01*
X162545411Y-104083123D01*
X162625772Y-104211016D01*
X162641384Y-104235862D01*
X162768938Y-104363416D01*
X162921678Y-104459389D01*
X163091945Y-104518968D01*
X163091950Y-104518969D01*
X163271196Y-104539165D01*
X163271200Y-104539165D01*
X163271204Y-104539165D01*
X163450449Y-104518969D01*
X163450452Y-104518968D01*
X163450455Y-104518968D01*
X163620722Y-104459389D01*
X163773462Y-104363416D01*
X163901016Y-104235862D01*
X163996989Y-104083122D01*
X164056568Y-103912855D01*
X164060279Y-103879922D01*
X164076765Y-103733603D01*
X164076765Y-103733596D01*
X164059594Y-103581196D01*
X175013235Y-103581196D01*
X175013235Y-103581203D01*
X175033430Y-103760449D01*
X175033431Y-103760454D01*
X175093011Y-103930723D01*
X175168959Y-104051593D01*
X175188984Y-104083462D01*
X175316538Y-104211016D01*
X175469278Y-104306989D01*
X175552087Y-104335965D01*
X175639545Y-104366568D01*
X175639550Y-104366569D01*
X175818796Y-104386765D01*
X175818800Y-104386765D01*
X175818804Y-104386765D01*
X175998049Y-104366569D01*
X175998052Y-104366568D01*
X175998055Y-104366568D01*
X176168322Y-104306989D01*
X176321062Y-104211016D01*
X176448616Y-104083462D01*
X176544589Y-103930722D01*
X176604168Y-103760455D01*
X176604676Y-103755947D01*
X176624365Y-103581203D01*
X176624365Y-103581196D01*
X176615779Y-103504996D01*
X178162835Y-103504996D01*
X178162835Y-103505003D01*
X178183030Y-103684249D01*
X178183031Y-103684254D01*
X178242611Y-103854523D01*
X178290491Y-103930723D01*
X178338584Y-104007262D01*
X178466138Y-104134816D01*
X178618878Y-104230789D01*
X178779520Y-104287000D01*
X178789145Y-104290368D01*
X178789150Y-104290369D01*
X178968396Y-104310565D01*
X178968400Y-104310565D01*
X178968404Y-104310565D01*
X179147649Y-104290369D01*
X179147652Y-104290368D01*
X179147655Y-104290368D01*
X179317922Y-104230789D01*
X179470662Y-104134816D01*
X179515719Y-104089759D01*
X179577042Y-104056274D01*
X179646734Y-104061258D01*
X179691081Y-104089759D01*
X179761538Y-104160216D01*
X179842384Y-104211015D01*
X179873852Y-104230788D01*
X179914278Y-104256189D01*
X180002331Y-104287000D01*
X180084545Y-104315768D01*
X180084550Y-104315769D01*
X180263796Y-104335965D01*
X180263800Y-104335965D01*
X180263804Y-104335965D01*
X180443049Y-104315769D01*
X180443052Y-104315768D01*
X180443055Y-104315768D01*
X180613322Y-104256189D01*
X180766062Y-104160216D01*
X180893616Y-104032662D01*
X180989589Y-103879922D01*
X181049168Y-103709655D01*
X181063641Y-103581203D01*
X181069365Y-103530403D01*
X181069365Y-103530396D01*
X181049169Y-103351150D01*
X181049168Y-103351145D01*
X181013253Y-103248506D01*
X180989589Y-103180878D01*
X180893616Y-103028138D01*
X180766062Y-102900584D01*
X180694170Y-102855411D01*
X180613323Y-102804611D01*
X180443054Y-102745031D01*
X180443049Y-102745030D01*
X180263804Y-102724835D01*
X180263796Y-102724835D01*
X180084550Y-102745030D01*
X180084545Y-102745031D01*
X179914276Y-102804611D01*
X179761537Y-102900584D01*
X179716480Y-102945641D01*
X179655157Y-102979125D01*
X179585465Y-102974140D01*
X179541119Y-102945641D01*
X179505903Y-102910425D01*
X179470662Y-102875184D01*
X179374003Y-102814449D01*
X179317923Y-102779211D01*
X179147654Y-102719631D01*
X179147649Y-102719630D01*
X178968404Y-102699435D01*
X178968396Y-102699435D01*
X178789150Y-102719630D01*
X178789145Y-102719631D01*
X178618876Y-102779211D01*
X178466137Y-102875184D01*
X178338584Y-103002737D01*
X178242611Y-103155476D01*
X178183031Y-103325745D01*
X178183030Y-103325750D01*
X178162835Y-103504996D01*
X176615779Y-103504996D01*
X176604169Y-103401950D01*
X176604168Y-103401945D01*
X176550478Y-103248509D01*
X176544589Y-103231678D01*
X176544375Y-103231338D01*
X176448615Y-103078937D01*
X176321062Y-102951384D01*
X176168323Y-102855411D01*
X175998054Y-102795831D01*
X175998049Y-102795830D01*
X175818804Y-102775635D01*
X175818796Y-102775635D01*
X175639550Y-102795830D01*
X175639545Y-102795831D01*
X175469276Y-102855411D01*
X175316537Y-102951384D01*
X175188984Y-103078937D01*
X175093011Y-103231676D01*
X175033431Y-103401945D01*
X175033430Y-103401950D01*
X175013235Y-103581196D01*
X164059594Y-103581196D01*
X164056569Y-103554350D01*
X164056568Y-103554345D01*
X164008018Y-103415598D01*
X163996989Y-103384078D01*
X163901016Y-103231338D01*
X163773462Y-103103784D01*
X163733920Y-103078938D01*
X163620723Y-103007811D01*
X163450454Y-102948231D01*
X163450449Y-102948230D01*
X163271204Y-102928035D01*
X163271196Y-102928035D01*
X163091950Y-102948230D01*
X163091945Y-102948231D01*
X162921676Y-103007811D01*
X162768937Y-103103784D01*
X162641384Y-103231337D01*
X162545411Y-103384076D01*
X162485831Y-103554345D01*
X162485830Y-103554350D01*
X162465635Y-103733596D01*
X139507092Y-103733596D01*
X142351893Y-100888796D01*
X171508035Y-100888796D01*
X171508035Y-100888803D01*
X171528230Y-101068049D01*
X171528231Y-101068054D01*
X171587811Y-101238323D01*
X171683784Y-101391062D01*
X171811338Y-101518616D01*
X171964078Y-101614589D01*
X172134345Y-101674168D01*
X172134350Y-101674169D01*
X172313596Y-101694365D01*
X172313600Y-101694365D01*
X172313604Y-101694365D01*
X172492849Y-101674169D01*
X172492852Y-101674168D01*
X172492855Y-101674168D01*
X172663122Y-101614589D01*
X172815862Y-101518616D01*
X172943416Y-101391062D01*
X173039389Y-101238322D01*
X173098968Y-101068055D01*
X173099969Y-101059171D01*
X173119165Y-100888803D01*
X173119165Y-100888796D01*
X173098969Y-100709550D01*
X173098968Y-100709545D01*
X173047021Y-100561089D01*
X173039389Y-100539278D01*
X172943416Y-100386538D01*
X172815862Y-100258984D01*
X172663123Y-100163011D01*
X172492854Y-100103431D01*
X172492849Y-100103430D01*
X172313604Y-100083235D01*
X172313596Y-100083235D01*
X172134350Y-100103430D01*
X172134345Y-100103431D01*
X171964076Y-100163011D01*
X171811337Y-100258984D01*
X171683784Y-100386537D01*
X171587811Y-100539276D01*
X171528231Y-100709545D01*
X171528230Y-100709550D01*
X171508035Y-100888796D01*
X142351893Y-100888796D01*
X143926693Y-99313996D01*
X163329235Y-99313996D01*
X163329235Y-99314003D01*
X163349430Y-99493249D01*
X163349431Y-99493254D01*
X163409011Y-99663523D01*
X163466993Y-99755800D01*
X163504984Y-99816262D01*
X163632538Y-99943816D01*
X163785278Y-100039789D01*
X163909440Y-100083235D01*
X163955545Y-100099368D01*
X163955550Y-100099369D01*
X164134796Y-100119565D01*
X164134800Y-100119565D01*
X164134804Y-100119565D01*
X164314049Y-100099369D01*
X164314052Y-100099368D01*
X164314055Y-100099368D01*
X164484322Y-100039789D01*
X164588394Y-99974396D01*
X174098835Y-99974396D01*
X174098835Y-99974403D01*
X174119030Y-100153649D01*
X174119031Y-100153654D01*
X174178611Y-100323923D01*
X174274584Y-100476662D01*
X174402138Y-100604216D01*
X174492480Y-100660982D01*
X174552202Y-100698508D01*
X174554878Y-100700189D01*
X174591173Y-100712889D01*
X174725145Y-100759768D01*
X174725150Y-100759769D01*
X174904396Y-100779965D01*
X174904400Y-100779965D01*
X174904404Y-100779965D01*
X175083649Y-100759769D01*
X175083652Y-100759768D01*
X175083655Y-100759768D01*
X175253922Y-100700189D01*
X175406662Y-100604216D01*
X175534216Y-100476662D01*
X175630189Y-100323922D01*
X175689768Y-100153655D01*
X175695885Y-100099368D01*
X175709965Y-99974403D01*
X175709965Y-99974396D01*
X175689769Y-99795150D01*
X175689768Y-99795145D01*
X175639212Y-99650664D01*
X175630189Y-99624878D01*
X175616788Y-99603551D01*
X175590982Y-99562480D01*
X175534216Y-99472138D01*
X175406662Y-99344584D01*
X175357982Y-99313996D01*
X175253923Y-99248611D01*
X175083654Y-99189031D01*
X175083649Y-99189030D01*
X174904404Y-99168835D01*
X174904396Y-99168835D01*
X174725150Y-99189030D01*
X174725145Y-99189031D01*
X174554876Y-99248611D01*
X174402137Y-99344584D01*
X174274584Y-99472137D01*
X174178611Y-99624876D01*
X174119031Y-99795145D01*
X174119030Y-99795150D01*
X174098835Y-99974396D01*
X164588394Y-99974396D01*
X164637062Y-99943816D01*
X164764616Y-99816262D01*
X164860589Y-99663522D01*
X164920168Y-99493255D01*
X164920169Y-99493249D01*
X164940365Y-99314003D01*
X164940365Y-99313996D01*
X164920169Y-99134750D01*
X164920168Y-99134745D01*
X164860588Y-98964476D01*
X164764615Y-98811737D01*
X164637062Y-98684184D01*
X164484323Y-98588211D01*
X164314054Y-98528631D01*
X164314049Y-98528630D01*
X164134804Y-98508435D01*
X164134796Y-98508435D01*
X163955550Y-98528630D01*
X163955545Y-98528631D01*
X163785276Y-98588211D01*
X163632537Y-98684184D01*
X163504984Y-98811737D01*
X163409011Y-98964476D01*
X163349431Y-99134745D01*
X163349430Y-99134750D01*
X163329235Y-99313996D01*
X143926693Y-99313996D01*
X144821319Y-98419370D01*
X144882642Y-98385885D01*
X144909000Y-98383051D01*
X156003622Y-98383051D01*
X156198026Y-98352260D01*
X156385225Y-98291435D01*
X156560605Y-98202075D01*
X156719846Y-98086379D01*
X156859028Y-97947197D01*
X156974724Y-97787956D01*
X157064084Y-97612576D01*
X157124909Y-97425377D01*
X157155700Y-97230973D01*
X157155700Y-97034128D01*
X157124909Y-96839724D01*
X157064082Y-96652521D01*
X156974723Y-96477145D01*
X156859028Y-96317905D01*
X156719846Y-96178723D01*
X156560605Y-96063027D01*
X156385229Y-95973668D01*
X156198026Y-95912841D01*
X156003622Y-95882051D01*
X156003617Y-95882051D01*
X144438081Y-95882051D01*
X140800102Y-95882051D01*
X140733063Y-95862366D01*
X140712421Y-95845732D01*
X140015085Y-95148396D01*
X164396035Y-95148396D01*
X164396035Y-95148403D01*
X164416230Y-95327649D01*
X164416231Y-95327654D01*
X164475811Y-95497923D01*
X164507731Y-95548723D01*
X164571784Y-95650662D01*
X164699338Y-95778216D01*
X164699340Y-95778217D01*
X164852074Y-95874187D01*
X164852078Y-95874189D01*
X164952048Y-95909170D01*
X165022345Y-95933768D01*
X165022350Y-95933769D01*
X165201596Y-95953965D01*
X165201600Y-95953965D01*
X165201604Y-95953965D01*
X165380849Y-95933769D01*
X165380852Y-95933768D01*
X165380855Y-95933768D01*
X165551122Y-95874189D01*
X165552088Y-95873581D01*
X165561123Y-95867906D01*
X165627094Y-95848900D01*
X171176906Y-95848900D01*
X171242877Y-95867906D01*
X171252874Y-95874187D01*
X171252875Y-95874187D01*
X171252878Y-95874189D01*
X171398053Y-95924988D01*
X171423145Y-95933768D01*
X171423150Y-95933769D01*
X171602396Y-95953965D01*
X171602400Y-95953965D01*
X171602404Y-95953965D01*
X171781649Y-95933769D01*
X171781652Y-95933768D01*
X171781655Y-95933768D01*
X171951922Y-95874189D01*
X172104662Y-95778216D01*
X172232216Y-95650662D01*
X172328189Y-95497922D01*
X172387768Y-95327655D01*
X172387916Y-95326341D01*
X172407965Y-95148403D01*
X172407965Y-95148396D01*
X178289835Y-95148396D01*
X178289835Y-95148403D01*
X178310030Y-95327649D01*
X178310031Y-95327654D01*
X178369611Y-95497923D01*
X178401531Y-95548723D01*
X178465584Y-95650662D01*
X178593138Y-95778216D01*
X178593140Y-95778217D01*
X178745874Y-95874187D01*
X178745878Y-95874189D01*
X178845848Y-95909170D01*
X178916145Y-95933768D01*
X178916150Y-95933769D01*
X179095396Y-95953965D01*
X179095400Y-95953965D01*
X179095404Y-95953965D01*
X179274649Y-95933769D01*
X179274652Y-95933768D01*
X179274655Y-95933768D01*
X179444922Y-95874189D01*
X179597662Y-95778216D01*
X179711225Y-95664652D01*
X179772544Y-95631170D01*
X179842236Y-95636154D01*
X179898170Y-95678025D01*
X179903895Y-95686362D01*
X179913380Y-95701457D01*
X179913384Y-95701462D01*
X180040938Y-95829016D01*
X180094014Y-95862366D01*
X180174344Y-95912841D01*
X180193678Y-95924989D01*
X180276487Y-95953965D01*
X180363945Y-95984568D01*
X180363950Y-95984569D01*
X180543196Y-96004765D01*
X180543200Y-96004765D01*
X180543204Y-96004765D01*
X180722449Y-95984569D01*
X180722452Y-95984568D01*
X180722455Y-95984568D01*
X180892722Y-95924989D01*
X181045462Y-95829016D01*
X181173016Y-95701462D01*
X181268989Y-95548722D01*
X181328568Y-95378455D01*
X181328569Y-95378449D01*
X181348765Y-95199203D01*
X181348765Y-95199196D01*
X181328569Y-95019950D01*
X181328568Y-95019945D01*
X181296768Y-94929065D01*
X181268989Y-94849678D01*
X181173016Y-94696938D01*
X181045462Y-94569384D01*
X181020006Y-94553389D01*
X180892723Y-94473411D01*
X180722454Y-94413831D01*
X180722449Y-94413830D01*
X180543204Y-94393635D01*
X180543196Y-94393635D01*
X180363950Y-94413830D01*
X180363945Y-94413831D01*
X180193676Y-94473411D01*
X180040939Y-94569383D01*
X179927377Y-94682945D01*
X179866054Y-94716429D01*
X179796362Y-94711445D01*
X179740429Y-94669573D01*
X179734703Y-94661236D01*
X179725217Y-94646139D01*
X179597662Y-94518584D01*
X179444923Y-94422611D01*
X179274654Y-94363031D01*
X179274649Y-94363030D01*
X179095404Y-94342835D01*
X179095396Y-94342835D01*
X178916150Y-94363030D01*
X178916145Y-94363031D01*
X178745876Y-94422611D01*
X178593137Y-94518584D01*
X178465584Y-94646137D01*
X178369611Y-94798876D01*
X178310031Y-94969145D01*
X178310030Y-94969150D01*
X178289835Y-95148396D01*
X172407965Y-95148396D01*
X172387769Y-94969150D01*
X172387768Y-94969145D01*
X172350282Y-94862016D01*
X172328189Y-94798878D01*
X172232216Y-94646138D01*
X172104662Y-94518584D01*
X172007314Y-94457416D01*
X171951923Y-94422611D01*
X171781654Y-94363031D01*
X171781649Y-94363030D01*
X171602404Y-94342835D01*
X171602396Y-94342835D01*
X171423150Y-94363030D01*
X171423145Y-94363031D01*
X171252874Y-94422612D01*
X171242877Y-94428894D01*
X171176906Y-94447900D01*
X165627094Y-94447900D01*
X165561123Y-94428894D01*
X165551125Y-94422612D01*
X165380854Y-94363031D01*
X165380849Y-94363030D01*
X165201604Y-94342835D01*
X165201596Y-94342835D01*
X165022350Y-94363030D01*
X165022345Y-94363031D01*
X164852076Y-94422611D01*
X164699337Y-94518584D01*
X164571784Y-94646137D01*
X164475811Y-94798876D01*
X164416231Y-94969145D01*
X164416230Y-94969150D01*
X164396035Y-95148396D01*
X140015085Y-95148396D01*
X138719685Y-93852996D01*
X150324435Y-93852996D01*
X150324435Y-93853003D01*
X150344630Y-94032249D01*
X150344631Y-94032254D01*
X150404211Y-94202523D01*
X150448123Y-94272408D01*
X150500184Y-94355262D01*
X150627738Y-94482816D01*
X150780478Y-94578789D01*
X150896921Y-94619534D01*
X150950745Y-94638368D01*
X150950750Y-94638369D01*
X151129996Y-94658565D01*
X151130000Y-94658565D01*
X151130004Y-94658565D01*
X151309249Y-94638369D01*
X151309252Y-94638368D01*
X151309255Y-94638368D01*
X151479522Y-94578789D01*
X151632262Y-94482816D01*
X151759816Y-94355262D01*
X151855789Y-94202522D01*
X151915368Y-94032255D01*
X151915369Y-94032249D01*
X151935565Y-93853003D01*
X151935565Y-93852996D01*
X151915369Y-93673750D01*
X151915368Y-93673745D01*
X151910772Y-93660611D01*
X151898100Y-93624396D01*
X157588835Y-93624396D01*
X157588835Y-93624403D01*
X157609030Y-93803649D01*
X157609031Y-93803654D01*
X157668611Y-93973923D01*
X157736738Y-94082346D01*
X157764584Y-94126662D01*
X157892138Y-94254216D01*
X158044878Y-94350189D01*
X158111137Y-94373374D01*
X158215145Y-94409768D01*
X158215150Y-94409769D01*
X158394396Y-94429965D01*
X158394400Y-94429965D01*
X158394404Y-94429965D01*
X158573649Y-94409769D01*
X158573652Y-94409768D01*
X158573655Y-94409768D01*
X158743922Y-94350189D01*
X158896662Y-94254216D01*
X159024216Y-94126662D01*
X159120189Y-93973922D01*
X159179768Y-93803655D01*
X159180000Y-93801596D01*
X159199965Y-93624403D01*
X159199965Y-93624396D01*
X159179769Y-93445150D01*
X159179768Y-93445145D01*
X159149684Y-93359169D01*
X159120189Y-93274878D01*
X159087707Y-93223184D01*
X159052528Y-93167196D01*
X167850435Y-93167196D01*
X167850435Y-93167203D01*
X167870630Y-93346449D01*
X167870631Y-93346454D01*
X167930211Y-93516723D01*
X168020621Y-93660609D01*
X168026184Y-93669462D01*
X168153738Y-93797016D01*
X168164304Y-93803655D01*
X168292391Y-93884138D01*
X168306478Y-93892989D01*
X168393565Y-93923462D01*
X168476745Y-93952568D01*
X168476750Y-93952569D01*
X168655996Y-93972765D01*
X168656000Y-93972765D01*
X168656004Y-93972765D01*
X168835249Y-93952569D01*
X168835252Y-93952568D01*
X168835255Y-93952568D01*
X169005522Y-93892989D01*
X169158262Y-93797016D01*
X169285816Y-93669462D01*
X169381789Y-93516722D01*
X169441368Y-93346455D01*
X169441369Y-93346449D01*
X169461565Y-93167203D01*
X169461565Y-93167196D01*
X169441369Y-92987950D01*
X169441368Y-92987945D01*
X169402542Y-92876988D01*
X169381789Y-92817678D01*
X169374151Y-92805523D01*
X169285815Y-92664937D01*
X169158262Y-92537384D01*
X169005523Y-92441411D01*
X168835254Y-92381831D01*
X168835249Y-92381830D01*
X168656004Y-92361635D01*
X168655996Y-92361635D01*
X168476750Y-92381830D01*
X168476745Y-92381831D01*
X168306476Y-92441411D01*
X168153737Y-92537384D01*
X168026184Y-92664937D01*
X167930211Y-92817676D01*
X167870631Y-92987945D01*
X167870630Y-92987950D01*
X167850435Y-93167196D01*
X159052528Y-93167196D01*
X159031677Y-93134012D01*
X159024216Y-93122138D01*
X158896662Y-92994584D01*
X158838856Y-92958262D01*
X158743923Y-92898611D01*
X158573654Y-92839031D01*
X158573649Y-92839030D01*
X158394404Y-92818835D01*
X158394396Y-92818835D01*
X158215150Y-92839030D01*
X158215145Y-92839031D01*
X158044876Y-92898611D01*
X157892137Y-92994584D01*
X157764584Y-93122137D01*
X157668611Y-93274876D01*
X157609031Y-93445145D01*
X157609030Y-93445150D01*
X157588835Y-93624396D01*
X151898100Y-93624396D01*
X151855789Y-93503478D01*
X151759816Y-93350738D01*
X151632262Y-93223184D01*
X151543169Y-93167203D01*
X151479523Y-93127211D01*
X151309254Y-93067631D01*
X151309249Y-93067630D01*
X151130004Y-93047435D01*
X151129996Y-93047435D01*
X150950750Y-93067630D01*
X150950745Y-93067631D01*
X150780476Y-93127211D01*
X150627737Y-93223184D01*
X150500184Y-93350737D01*
X150404211Y-93503476D01*
X150344631Y-93673745D01*
X150344630Y-93673750D01*
X150324435Y-93852996D01*
X138719685Y-93852996D01*
X136552277Y-91685588D01*
X136518792Y-91624265D01*
X136523776Y-91554573D01*
X136565648Y-91498640D01*
X136587541Y-91485531D01*
X136618630Y-91471035D01*
X136812201Y-91335495D01*
X136979295Y-91168401D01*
X137109225Y-90982842D01*
X137163802Y-90939217D01*
X137233300Y-90932023D01*
X137295655Y-90963546D01*
X137312375Y-90982842D01*
X137442300Y-91168395D01*
X137442305Y-91168401D01*
X137609399Y-91335495D01*
X137706184Y-91403265D01*
X137802965Y-91471032D01*
X137802967Y-91471033D01*
X137802970Y-91471035D01*
X138017137Y-91570903D01*
X138245392Y-91632063D01*
X138421834Y-91647500D01*
X138480799Y-91652659D01*
X138480800Y-91652659D01*
X138480801Y-91652659D01*
X138539766Y-91647500D01*
X138716208Y-91632063D01*
X138944463Y-91570903D01*
X139158630Y-91471035D01*
X139352201Y-91335495D01*
X139474129Y-91213566D01*
X139535448Y-91180084D01*
X139605140Y-91185068D01*
X139661074Y-91226939D01*
X139677989Y-91257917D01*
X139727002Y-91389328D01*
X139727006Y-91389335D01*
X139813252Y-91504544D01*
X139813255Y-91504547D01*
X139928464Y-91590793D01*
X139928471Y-91590797D01*
X140063317Y-91641091D01*
X140063316Y-91641091D01*
X140070244Y-91641835D01*
X140122927Y-91647500D01*
X141918672Y-91647499D01*
X141978283Y-91641091D01*
X142113131Y-91590796D01*
X142228346Y-91504546D01*
X142314596Y-91389331D01*
X142363610Y-91257916D01*
X142405481Y-91201984D01*
X142470945Y-91177566D01*
X142539218Y-91192417D01*
X142567473Y-91213569D01*
X142689399Y-91335495D01*
X142786184Y-91403265D01*
X142882965Y-91471032D01*
X142882967Y-91471033D01*
X142882970Y-91471035D01*
X143097137Y-91570903D01*
X143325392Y-91632063D01*
X143501834Y-91647500D01*
X143560799Y-91652659D01*
X143560800Y-91652659D01*
X143560801Y-91652659D01*
X143619766Y-91647500D01*
X143796208Y-91632063D01*
X144024463Y-91570903D01*
X144238630Y-91471035D01*
X144432201Y-91335495D01*
X144599295Y-91168401D01*
X144729225Y-90982842D01*
X144783802Y-90939217D01*
X144853300Y-90932023D01*
X144915655Y-90963546D01*
X144932375Y-90982842D01*
X145062300Y-91168395D01*
X145062305Y-91168401D01*
X145229399Y-91335495D01*
X145326184Y-91403265D01*
X145422965Y-91471032D01*
X145422967Y-91471033D01*
X145422970Y-91471035D01*
X145637137Y-91570903D01*
X145865392Y-91632063D01*
X146041834Y-91647500D01*
X146100799Y-91652659D01*
X146100800Y-91652659D01*
X146100801Y-91652659D01*
X146159766Y-91647500D01*
X146336208Y-91632063D01*
X146564463Y-91570903D01*
X146778630Y-91471035D01*
X146972201Y-91335495D01*
X147139295Y-91168401D01*
X147269225Y-90982842D01*
X147323802Y-90939217D01*
X147393300Y-90932023D01*
X147455655Y-90963546D01*
X147472375Y-90982842D01*
X147602300Y-91168395D01*
X147602305Y-91168401D01*
X147769399Y-91335495D01*
X147866184Y-91403265D01*
X147962965Y-91471032D01*
X147962967Y-91471033D01*
X147962970Y-91471035D01*
X148177137Y-91570903D01*
X148405392Y-91632063D01*
X148581834Y-91647500D01*
X148640799Y-91652659D01*
X148640800Y-91652659D01*
X148640801Y-91652659D01*
X148699766Y-91647500D01*
X148876208Y-91632063D01*
X149104463Y-91570903D01*
X149318630Y-91471035D01*
X149512201Y-91335495D01*
X149679295Y-91168401D01*
X149809225Y-90982842D01*
X149863802Y-90939217D01*
X149933300Y-90932023D01*
X149995655Y-90963546D01*
X150012375Y-90982842D01*
X150142300Y-91168395D01*
X150142305Y-91168401D01*
X150309399Y-91335495D01*
X150406184Y-91403265D01*
X150502965Y-91471032D01*
X150502967Y-91471033D01*
X150502970Y-91471035D01*
X150717137Y-91570903D01*
X150945392Y-91632063D01*
X151121834Y-91647500D01*
X151180799Y-91652659D01*
X151180800Y-91652659D01*
X151180801Y-91652659D01*
X151239766Y-91647500D01*
X151416208Y-91632063D01*
X151644463Y-91570903D01*
X151858630Y-91471035D01*
X152052201Y-91335495D01*
X152174129Y-91213566D01*
X152235448Y-91180084D01*
X152305140Y-91185068D01*
X152361074Y-91226939D01*
X152377989Y-91257917D01*
X152427002Y-91389328D01*
X152427006Y-91389335D01*
X152513252Y-91504544D01*
X152513255Y-91504547D01*
X152628464Y-91590793D01*
X152628471Y-91590797D01*
X152763317Y-91641091D01*
X152763316Y-91641091D01*
X152770244Y-91641835D01*
X152822927Y-91647500D01*
X154618672Y-91647499D01*
X154678283Y-91641091D01*
X154813131Y-91590796D01*
X154928346Y-91504546D01*
X155014596Y-91389331D01*
X155063610Y-91257916D01*
X155105481Y-91201984D01*
X155170945Y-91177566D01*
X155239218Y-91192417D01*
X155267473Y-91213569D01*
X155389399Y-91335495D01*
X155486184Y-91403265D01*
X155582965Y-91471032D01*
X155582967Y-91471033D01*
X155582970Y-91471035D01*
X155797137Y-91570903D01*
X156025392Y-91632063D01*
X156201834Y-91647500D01*
X156260799Y-91652659D01*
X156260800Y-91652659D01*
X156260801Y-91652659D01*
X156319766Y-91647500D01*
X156496208Y-91632063D01*
X156724463Y-91570903D01*
X156938630Y-91471035D01*
X157132201Y-91335495D01*
X157299295Y-91168401D01*
X157429225Y-90982842D01*
X157483802Y-90939217D01*
X157553300Y-90932023D01*
X157615655Y-90963546D01*
X157632375Y-90982842D01*
X157762300Y-91168395D01*
X157762305Y-91168401D01*
X157929399Y-91335495D01*
X158026184Y-91403265D01*
X158122965Y-91471032D01*
X158122967Y-91471033D01*
X158122970Y-91471035D01*
X158337137Y-91570903D01*
X158565392Y-91632063D01*
X158741834Y-91647500D01*
X158800799Y-91652659D01*
X158800800Y-91652659D01*
X158800801Y-91652659D01*
X158859766Y-91647500D01*
X159036208Y-91632063D01*
X159264463Y-91570903D01*
X159478630Y-91471035D01*
X159672201Y-91335495D01*
X159839295Y-91168401D01*
X159969225Y-90982842D01*
X160023802Y-90939217D01*
X160093300Y-90932023D01*
X160155655Y-90963546D01*
X160172375Y-90982842D01*
X160302300Y-91168395D01*
X160302305Y-91168401D01*
X160469399Y-91335495D01*
X160566184Y-91403265D01*
X160662965Y-91471032D01*
X160662967Y-91471033D01*
X160662970Y-91471035D01*
X160877137Y-91570903D01*
X161105392Y-91632063D01*
X161281834Y-91647500D01*
X161340799Y-91652659D01*
X161340800Y-91652659D01*
X161340801Y-91652659D01*
X161399766Y-91647500D01*
X161576208Y-91632063D01*
X161804463Y-91570903D01*
X162018630Y-91471035D01*
X162212201Y-91335495D01*
X162379295Y-91168401D01*
X162509225Y-90982842D01*
X162563802Y-90939217D01*
X162633300Y-90932023D01*
X162695655Y-90963546D01*
X162712375Y-90982842D01*
X162842300Y-91168395D01*
X162842305Y-91168401D01*
X163009399Y-91335495D01*
X163106184Y-91403265D01*
X163202965Y-91471032D01*
X163202967Y-91471033D01*
X163202970Y-91471035D01*
X163417137Y-91570903D01*
X163645392Y-91632063D01*
X163821834Y-91647500D01*
X163880799Y-91652659D01*
X163880800Y-91652659D01*
X163880801Y-91652659D01*
X163939766Y-91647500D01*
X164116208Y-91632063D01*
X164344463Y-91570903D01*
X164558630Y-91471035D01*
X164752201Y-91335495D01*
X164874129Y-91213566D01*
X164935448Y-91180084D01*
X165005140Y-91185068D01*
X165061074Y-91226939D01*
X165077989Y-91257917D01*
X165127002Y-91389328D01*
X165127006Y-91389335D01*
X165213252Y-91504544D01*
X165213255Y-91504547D01*
X165328464Y-91590793D01*
X165328471Y-91590797D01*
X165463317Y-91641091D01*
X165463316Y-91641091D01*
X165470244Y-91641835D01*
X165522927Y-91647500D01*
X167318672Y-91647499D01*
X167378283Y-91641091D01*
X167513131Y-91590796D01*
X167628346Y-91504546D01*
X167714596Y-91389331D01*
X167763610Y-91257916D01*
X167805481Y-91201984D01*
X167870945Y-91177566D01*
X167939218Y-91192417D01*
X167967473Y-91213569D01*
X168089399Y-91335495D01*
X168186184Y-91403265D01*
X168282965Y-91471032D01*
X168282967Y-91471033D01*
X168282970Y-91471035D01*
X168497137Y-91570903D01*
X168725392Y-91632063D01*
X168901834Y-91647500D01*
X168960799Y-91652659D01*
X168960800Y-91652659D01*
X168960801Y-91652659D01*
X169019766Y-91647500D01*
X169196208Y-91632063D01*
X169424463Y-91570903D01*
X169638630Y-91471035D01*
X169832201Y-91335495D01*
X169999295Y-91168401D01*
X170129225Y-90982842D01*
X170183802Y-90939217D01*
X170253300Y-90932023D01*
X170315655Y-90963546D01*
X170332375Y-90982842D01*
X170462300Y-91168395D01*
X170462305Y-91168401D01*
X170629399Y-91335495D01*
X170726184Y-91403265D01*
X170822965Y-91471032D01*
X170822967Y-91471033D01*
X170822970Y-91471035D01*
X171037137Y-91570903D01*
X171265392Y-91632063D01*
X171441834Y-91647500D01*
X171500799Y-91652659D01*
X171500800Y-91652659D01*
X171500801Y-91652659D01*
X171559766Y-91647500D01*
X171736208Y-91632063D01*
X171964463Y-91570903D01*
X172178630Y-91471035D01*
X172372201Y-91335495D01*
X172539295Y-91168401D01*
X172669530Y-90982405D01*
X172724107Y-90938781D01*
X172793605Y-90931587D01*
X172855960Y-90963110D01*
X172872679Y-90982405D01*
X173002690Y-91168078D01*
X173169717Y-91335105D01*
X173363221Y-91470600D01*
X173577307Y-91570429D01*
X173577316Y-91570433D01*
X173790800Y-91627634D01*
X173790800Y-90741560D01*
X173843947Y-90772245D01*
X173973657Y-90807000D01*
X174107943Y-90807000D01*
X174237653Y-90772245D01*
X174290800Y-90741560D01*
X174290800Y-91627633D01*
X174504283Y-91570433D01*
X174504292Y-91570429D01*
X174718378Y-91470600D01*
X174721681Y-91468693D01*
X174789580Y-91452217D01*
X174855608Y-91475066D01*
X174898801Y-91529985D01*
X174905446Y-91599538D01*
X174885970Y-91641836D01*
X174887889Y-91643042D01*
X174884184Y-91648937D01*
X174884184Y-91648938D01*
X174878262Y-91658363D01*
X174788211Y-91801676D01*
X174728631Y-91971945D01*
X174728630Y-91971950D01*
X174708435Y-92151196D01*
X174708435Y-92151203D01*
X174728630Y-92330449D01*
X174728631Y-92330454D01*
X174788211Y-92500723D01*
X174811247Y-92537384D01*
X174884184Y-92653462D01*
X175011738Y-92781016D01*
X175164478Y-92876989D01*
X175334745Y-92936568D01*
X175334750Y-92936569D01*
X175513996Y-92956765D01*
X175514000Y-92956765D01*
X175514004Y-92956765D01*
X175693249Y-92936569D01*
X175693252Y-92936568D01*
X175693255Y-92936568D01*
X175863522Y-92876989D01*
X176016262Y-92781016D01*
X176143816Y-92653462D01*
X176239789Y-92500722D01*
X176299368Y-92330455D01*
X176315473Y-92187517D01*
X176319565Y-92151203D01*
X176319565Y-92151196D01*
X176299369Y-91971950D01*
X176299368Y-91971945D01*
X176238639Y-91798391D01*
X176235078Y-91728612D01*
X176269807Y-91667984D01*
X176331800Y-91635757D01*
X176366483Y-91633908D01*
X176555380Y-91650435D01*
X176580799Y-91652659D01*
X176580800Y-91652659D01*
X176580801Y-91652659D01*
X176639766Y-91647500D01*
X176816208Y-91632063D01*
X177044463Y-91570903D01*
X177258630Y-91471035D01*
X177452201Y-91335495D01*
X177574129Y-91213566D01*
X177635448Y-91180084D01*
X177705140Y-91185068D01*
X177761074Y-91226939D01*
X177777989Y-91257917D01*
X177827002Y-91389328D01*
X177827006Y-91389335D01*
X177913252Y-91504544D01*
X177913255Y-91504547D01*
X178028464Y-91590793D01*
X178028471Y-91590797D01*
X178163317Y-91641091D01*
X178163316Y-91641091D01*
X178170244Y-91641835D01*
X178222927Y-91647500D01*
X180018672Y-91647499D01*
X180078283Y-91641091D01*
X180213131Y-91590796D01*
X180328346Y-91504546D01*
X180414596Y-91389331D01*
X180463610Y-91257916D01*
X180505481Y-91201984D01*
X180570945Y-91177566D01*
X180639218Y-91192417D01*
X180667473Y-91213569D01*
X180789399Y-91335495D01*
X180886184Y-91403265D01*
X180982965Y-91471032D01*
X180982967Y-91471033D01*
X180982970Y-91471035D01*
X181197137Y-91570903D01*
X181425392Y-91632063D01*
X181601834Y-91647500D01*
X181660799Y-91652659D01*
X181660800Y-91652659D01*
X181660801Y-91652659D01*
X181719766Y-91647500D01*
X181896208Y-91632063D01*
X181972570Y-91611602D01*
X182042417Y-91613265D01*
X182100280Y-91652427D01*
X182127784Y-91716655D01*
X182127881Y-91717493D01*
X182145430Y-91873250D01*
X182145431Y-91873254D01*
X182205011Y-92043523D01*
X182295489Y-92187517D01*
X182300984Y-92196262D01*
X182428538Y-92323816D01*
X182581278Y-92419789D01*
X182684752Y-92455996D01*
X182751545Y-92479368D01*
X182751550Y-92479369D01*
X182930796Y-92499565D01*
X182930800Y-92499565D01*
X182930804Y-92499565D01*
X183110049Y-92479369D01*
X183110052Y-92479368D01*
X183110055Y-92479368D01*
X183280322Y-92419789D01*
X183433062Y-92323816D01*
X183560616Y-92196262D01*
X183656589Y-92043522D01*
X183716168Y-91873255D01*
X183717669Y-91859939D01*
X183733718Y-91717494D01*
X183760784Y-91653080D01*
X183818379Y-91613525D01*
X183888216Y-91611387D01*
X183888886Y-91611563D01*
X183965392Y-91632063D01*
X184141834Y-91647500D01*
X184200799Y-91652659D01*
X184200800Y-91652659D01*
X184200801Y-91652659D01*
X184259766Y-91647500D01*
X184436208Y-91632063D01*
X184664463Y-91570903D01*
X184878630Y-91471035D01*
X185072201Y-91335495D01*
X185239295Y-91168401D01*
X185374835Y-90974830D01*
X185474703Y-90760663D01*
X185535863Y-90532408D01*
X185556459Y-90297000D01*
X185535863Y-90061592D01*
X185474703Y-89833337D01*
X185374835Y-89619171D01*
X185369531Y-89611595D01*
X185239294Y-89425597D01*
X185072202Y-89258506D01*
X185072195Y-89258501D01*
X184878634Y-89122967D01*
X184878630Y-89122965D01*
X184867316Y-89117689D01*
X184664463Y-89023097D01*
X184664459Y-89023096D01*
X184664455Y-89023094D01*
X184436213Y-88961938D01*
X184436203Y-88961936D01*
X184200801Y-88941341D01*
X184200799Y-88941341D01*
X183965396Y-88961936D01*
X183965386Y-88961938D01*
X183737144Y-89023094D01*
X183737135Y-89023098D01*
X183522971Y-89122964D01*
X183522969Y-89122965D01*
X183329397Y-89258505D01*
X183162308Y-89425594D01*
X183136875Y-89461917D01*
X183082298Y-89505541D01*
X183012799Y-89512734D01*
X182950445Y-89481212D01*
X182915031Y-89420982D01*
X182911300Y-89390793D01*
X182911300Y-88996496D01*
X182880509Y-88802092D01*
X182841557Y-88682212D01*
X182841557Y-88682211D01*
X182819684Y-88614893D01*
X182819682Y-88614890D01*
X182819682Y-88614888D01*
X182771858Y-88521030D01*
X182730324Y-88439514D01*
X182614628Y-88280273D01*
X179384927Y-85050572D01*
X179225686Y-84934876D01*
X179215333Y-84929601D01*
X179050311Y-84845517D01*
X178863107Y-84784690D01*
X178668703Y-84753900D01*
X178668698Y-84753900D01*
X175714017Y-84753900D01*
X174698017Y-84753900D01*
X173682017Y-84753900D01*
X150043102Y-84753900D01*
X149976063Y-84734215D01*
X149955421Y-84717581D01*
X149176344Y-83938504D01*
X181877900Y-83938504D01*
X181877900Y-84615895D01*
X181912503Y-84789858D01*
X181912506Y-84789867D01*
X181980383Y-84953740D01*
X181980390Y-84953753D01*
X182078935Y-85101234D01*
X182078938Y-85101238D01*
X182204361Y-85226661D01*
X182204365Y-85226664D01*
X182351846Y-85325209D01*
X182351859Y-85325216D01*
X182461614Y-85370677D01*
X182515734Y-85393094D01*
X182515736Y-85393094D01*
X182515741Y-85393096D01*
X182689704Y-85427699D01*
X182689707Y-85427700D01*
X182689709Y-85427700D01*
X182867093Y-85427700D01*
X182867094Y-85427699D01*
X182925082Y-85416164D01*
X183041058Y-85393096D01*
X183041061Y-85393094D01*
X183041066Y-85393094D01*
X183204947Y-85325213D01*
X183262234Y-85286933D01*
X183328911Y-85266055D01*
X183395274Y-85283917D01*
X183538793Y-85370678D01*
X183701203Y-85421286D01*
X183771783Y-85427700D01*
X183771786Y-85427700D01*
X184285012Y-85427700D01*
X184285015Y-85427700D01*
X184355595Y-85421286D01*
X184518005Y-85370678D01*
X184663584Y-85282672D01*
X184783871Y-85162385D01*
X184871877Y-85016806D01*
X184922485Y-84854396D01*
X184928899Y-84783816D01*
X184928899Y-83770584D01*
X184922485Y-83700004D01*
X184871877Y-83537594D01*
X184783871Y-83392015D01*
X184783869Y-83392013D01*
X184783868Y-83392011D01*
X184663587Y-83271730D01*
X184518005Y-83183722D01*
X184422179Y-83153862D01*
X184355595Y-83133114D01*
X184355593Y-83133113D01*
X184355591Y-83133113D01*
X184306177Y-83128623D01*
X184285015Y-83126700D01*
X183771783Y-83126700D01*
X183752544Y-83128448D01*
X183701206Y-83133113D01*
X183538790Y-83183723D01*
X183395274Y-83270481D01*
X183327720Y-83288317D01*
X183262236Y-83267467D01*
X183204947Y-83229187D01*
X183204944Y-83229185D01*
X183204940Y-83229183D01*
X183041067Y-83161306D01*
X183041058Y-83161303D01*
X182867094Y-83126700D01*
X182867091Y-83126700D01*
X182689709Y-83126700D01*
X182689706Y-83126700D01*
X182515741Y-83161303D01*
X182515732Y-83161306D01*
X182351859Y-83229183D01*
X182351846Y-83229190D01*
X182204365Y-83327735D01*
X182204361Y-83327738D01*
X182078938Y-83453161D01*
X182078935Y-83453165D01*
X181980390Y-83600646D01*
X181980383Y-83600659D01*
X181912506Y-83764532D01*
X181912503Y-83764541D01*
X181877900Y-83938504D01*
X149176344Y-83938504D01*
X147889435Y-82651596D01*
X178924835Y-82651596D01*
X178924835Y-82651603D01*
X178945030Y-82830849D01*
X178945031Y-82830854D01*
X179004611Y-83001123D01*
X179087547Y-83133114D01*
X179100584Y-83153862D01*
X179228138Y-83281416D01*
X179380878Y-83377389D01*
X179422677Y-83392015D01*
X179551145Y-83436968D01*
X179551150Y-83436969D01*
X179730396Y-83457165D01*
X179730400Y-83457165D01*
X179730404Y-83457165D01*
X179909649Y-83436969D01*
X179909652Y-83436968D01*
X179909655Y-83436968D01*
X180079922Y-83377389D01*
X180232662Y-83281416D01*
X180360216Y-83153862D01*
X180456189Y-83001122D01*
X180515768Y-82830855D01*
X180524015Y-82757659D01*
X180535965Y-82651603D01*
X180535965Y-82651596D01*
X180515769Y-82472350D01*
X180515768Y-82472345D01*
X180504623Y-82440495D01*
X180456189Y-82302078D01*
X180360216Y-82149338D01*
X180232662Y-82021784D01*
X180079923Y-81925811D01*
X179909654Y-81866231D01*
X179909649Y-81866230D01*
X179730404Y-81846035D01*
X179730396Y-81846035D01*
X179551150Y-81866230D01*
X179551145Y-81866231D01*
X179380876Y-81925811D01*
X179228137Y-82021784D01*
X179100584Y-82149337D01*
X179004611Y-82302076D01*
X178945031Y-82472345D01*
X178945030Y-82472350D01*
X178924835Y-82651596D01*
X147889435Y-82651596D01*
X146379611Y-81141772D01*
X146347517Y-81086183D01*
X146307906Y-80938346D01*
X146307904Y-80938342D01*
X146307903Y-80938337D01*
X146208035Y-80724171D01*
X146202424Y-80716158D01*
X146072496Y-80530600D01*
X146018776Y-80476880D01*
X145950179Y-80408283D01*
X145916696Y-80346963D01*
X145921680Y-80277271D01*
X145963551Y-80221337D01*
X145994529Y-80204422D01*
X146126086Y-80155354D01*
X146126093Y-80155350D01*
X146241187Y-80069190D01*
X146241190Y-80069187D01*
X146327350Y-79954093D01*
X146327354Y-79954086D01*
X146374754Y-79826998D01*
X161727709Y-79826998D01*
X161727709Y-79827001D01*
X161746848Y-80094594D01*
X161746849Y-80094601D01*
X161803872Y-80356734D01*
X161897627Y-80608102D01*
X161897629Y-80608106D01*
X162026195Y-80843556D01*
X162026200Y-80843564D01*
X162186964Y-81058321D01*
X162186980Y-81058339D01*
X162376660Y-81248019D01*
X162376678Y-81248035D01*
X162591435Y-81408799D01*
X162591443Y-81408804D01*
X162826893Y-81537370D01*
X162826897Y-81537372D01*
X162826899Y-81537373D01*
X163078261Y-81631126D01*
X163078264Y-81631126D01*
X163078265Y-81631127D01*
X163107116Y-81637403D01*
X163340407Y-81688152D01*
X163587385Y-81705816D01*
X163607999Y-81707291D01*
X163608000Y-81707291D01*
X163608001Y-81707291D01*
X163627140Y-81705922D01*
X163875593Y-81688152D01*
X164137739Y-81631126D01*
X164389101Y-81537373D01*
X164624562Y-81408801D01*
X164839329Y-81248029D01*
X165029029Y-81058329D01*
X165189801Y-80843562D01*
X165318373Y-80608101D01*
X165412126Y-80356739D01*
X165469152Y-80094593D01*
X165488291Y-79827000D01*
X165487745Y-79819372D01*
X165483488Y-79759844D01*
X165469152Y-79559407D01*
X165458747Y-79511577D01*
X168167500Y-79511577D01*
X168167500Y-80508422D01*
X168198290Y-80702826D01*
X168259117Y-80890029D01*
X168329781Y-81028714D01*
X168348476Y-81065405D01*
X168464172Y-81224646D01*
X168603354Y-81363828D01*
X168762595Y-81479524D01*
X168837214Y-81517544D01*
X168937970Y-81568882D01*
X168937972Y-81568882D01*
X168937975Y-81568884D01*
X169038317Y-81601487D01*
X169125173Y-81629709D01*
X169319578Y-81660500D01*
X169319583Y-81660500D01*
X169516422Y-81660500D01*
X169710826Y-81629709D01*
X169790574Y-81603797D01*
X169898025Y-81568884D01*
X170073405Y-81479524D01*
X170232646Y-81363828D01*
X170371828Y-81224646D01*
X170487524Y-81065405D01*
X170576884Y-80890025D01*
X170576884Y-80890023D01*
X170577514Y-80888788D01*
X170625488Y-80837992D01*
X170693309Y-80821196D01*
X170759444Y-80843733D01*
X170798484Y-80888787D01*
X170866734Y-81022735D01*
X170888475Y-81065405D01*
X171004171Y-81224646D01*
X171143353Y-81363828D01*
X171302594Y-81479524D01*
X171377213Y-81517544D01*
X171477969Y-81568882D01*
X171477971Y-81568882D01*
X171477974Y-81568884D01*
X171578316Y-81601487D01*
X171665172Y-81629709D01*
X171859577Y-81660500D01*
X171859582Y-81660500D01*
X172056421Y-81660500D01*
X172250825Y-81629709D01*
X172330573Y-81603797D01*
X172438024Y-81568884D01*
X172613404Y-81479524D01*
X172772645Y-81363828D01*
X172911827Y-81224646D01*
X173023183Y-81071378D01*
X173078511Y-81028714D01*
X173148124Y-81022735D01*
X173209919Y-81055341D01*
X173244276Y-81116179D01*
X173247499Y-81144263D01*
X173247499Y-81207869D01*
X173247500Y-81207876D01*
X173253907Y-81267483D01*
X173304201Y-81402328D01*
X173304205Y-81402335D01*
X173390451Y-81517544D01*
X173390454Y-81517547D01*
X173505663Y-81603793D01*
X173505670Y-81603797D01*
X173640516Y-81654091D01*
X173640515Y-81654091D01*
X173647443Y-81654835D01*
X173700126Y-81660500D01*
X175295871Y-81660499D01*
X175355482Y-81654091D01*
X175490330Y-81603796D01*
X175605545Y-81517546D01*
X175691795Y-81402331D01*
X175742090Y-81267483D01*
X175748499Y-81207873D01*
X175748498Y-78812128D01*
X175742090Y-78752517D01*
X175727190Y-78712569D01*
X175691796Y-78617671D01*
X175691792Y-78617664D01*
X175605546Y-78502455D01*
X175605543Y-78502452D01*
X175490334Y-78416206D01*
X175490327Y-78416202D01*
X175355481Y-78365908D01*
X175355482Y-78365908D01*
X175295882Y-78359501D01*
X175295880Y-78359500D01*
X175295872Y-78359500D01*
X175295863Y-78359500D01*
X173700128Y-78359500D01*
X173700122Y-78359501D01*
X173640515Y-78365908D01*
X173505670Y-78416202D01*
X173505663Y-78416206D01*
X173390454Y-78502452D01*
X173390451Y-78502455D01*
X173304205Y-78617664D01*
X173304201Y-78617671D01*
X173253907Y-78752517D01*
X173247680Y-78810443D01*
X173247500Y-78812123D01*
X173247499Y-78812135D01*
X173247499Y-78875732D01*
X173227814Y-78942771D01*
X173175010Y-78988526D01*
X173105852Y-78998470D01*
X173042296Y-78969445D01*
X173023181Y-78948618D01*
X172924019Y-78812135D01*
X172911827Y-78795354D01*
X172772645Y-78656172D01*
X172613404Y-78540476D01*
X172438028Y-78451117D01*
X172250825Y-78390290D01*
X172056421Y-78359500D01*
X172056416Y-78359500D01*
X171859582Y-78359500D01*
X171859577Y-78359500D01*
X171665172Y-78390290D01*
X171477969Y-78451117D01*
X171302593Y-78540476D01*
X171226640Y-78595660D01*
X171143353Y-78656172D01*
X171143351Y-78656174D01*
X171143350Y-78656174D01*
X171004173Y-78795351D01*
X171004173Y-78795352D01*
X171004171Y-78795354D01*
X170991979Y-78812135D01*
X170888475Y-78954594D01*
X170798484Y-79131212D01*
X170750509Y-79182008D01*
X170682688Y-79198803D01*
X170616553Y-79176266D01*
X170577514Y-79131211D01*
X170487525Y-78954596D01*
X170420249Y-78862000D01*
X170371828Y-78795354D01*
X170232646Y-78656172D01*
X170073405Y-78540476D01*
X169898029Y-78451117D01*
X169710826Y-78390290D01*
X169516422Y-78359500D01*
X169516417Y-78359500D01*
X169319583Y-78359500D01*
X169319578Y-78359500D01*
X169125173Y-78390290D01*
X168937970Y-78451117D01*
X168762594Y-78540476D01*
X168686641Y-78595660D01*
X168603354Y-78656172D01*
X168603352Y-78656174D01*
X168603351Y-78656174D01*
X168464174Y-78795351D01*
X168464174Y-78795352D01*
X168464172Y-78795354D01*
X168451980Y-78812135D01*
X168348476Y-78954594D01*
X168259117Y-79129970D01*
X168198290Y-79317173D01*
X168167500Y-79511577D01*
X165458747Y-79511577D01*
X165426209Y-79362000D01*
X165412127Y-79297265D01*
X165367315Y-79177120D01*
X165318373Y-79045899D01*
X165290744Y-78995301D01*
X165189804Y-78810443D01*
X165189799Y-78810435D01*
X165029035Y-78595678D01*
X165029019Y-78595660D01*
X164839339Y-78405980D01*
X164839321Y-78405964D01*
X164630419Y-78249583D01*
X180076300Y-78249583D01*
X180076300Y-79849601D01*
X180076301Y-79849618D01*
X180086800Y-79952396D01*
X180086801Y-79952399D01*
X180141985Y-80118931D01*
X180141987Y-80118936D01*
X180163923Y-80154500D01*
X180234088Y-80268256D01*
X180358144Y-80392312D01*
X180507466Y-80484414D01*
X180674003Y-80539599D01*
X180776791Y-80550100D01*
X182076808Y-80550099D01*
X182179597Y-80539599D01*
X182346134Y-80484414D01*
X182495456Y-80392312D01*
X182619512Y-80268256D01*
X182711614Y-80118934D01*
X182711614Y-80118931D01*
X182714978Y-80113479D01*
X182766926Y-80066754D01*
X182835888Y-80055531D01*
X182899970Y-80083374D01*
X182908198Y-80090894D01*
X183047013Y-80229709D01*
X183218979Y-80354648D01*
X183218981Y-80354649D01*
X183218984Y-80354651D01*
X183408388Y-80451157D01*
X183610557Y-80516846D01*
X183820513Y-80550100D01*
X183820514Y-80550100D01*
X184033086Y-80550100D01*
X184033087Y-80550100D01*
X184243043Y-80516846D01*
X184445212Y-80451157D01*
X184634616Y-80354651D01*
X184656589Y-80338686D01*
X184806586Y-80229709D01*
X184806588Y-80229706D01*
X184806592Y-80229704D01*
X184956904Y-80079392D01*
X184956906Y-80079388D01*
X184956909Y-80079386D01*
X185081848Y-79907420D01*
X185081847Y-79907420D01*
X185081851Y-79907416D01*
X185178357Y-79718012D01*
X185244046Y-79515843D01*
X185277300Y-79305887D01*
X185277300Y-78793313D01*
X185244046Y-78583357D01*
X185178357Y-78381188D01*
X185081851Y-78191784D01*
X185081849Y-78191781D01*
X185081848Y-78191779D01*
X184956909Y-78019813D01*
X184806586Y-77869490D01*
X184634620Y-77744551D01*
X184445214Y-77648044D01*
X184445213Y-77648043D01*
X184445212Y-77648043D01*
X184243043Y-77582354D01*
X184243041Y-77582353D01*
X184243040Y-77582353D01*
X184081757Y-77556808D01*
X184033087Y-77549100D01*
X183820513Y-77549100D01*
X183771842Y-77556808D01*
X183610560Y-77582353D01*
X183408385Y-77648044D01*
X183218979Y-77744551D01*
X183047015Y-77869489D01*
X182908198Y-78008306D01*
X182846875Y-78041790D01*
X182777183Y-78036806D01*
X182721250Y-77994934D01*
X182714978Y-77985720D01*
X182619512Y-77830944D01*
X182495457Y-77706889D01*
X182495456Y-77706888D01*
X182346134Y-77614786D01*
X182179597Y-77559601D01*
X182179595Y-77559600D01*
X182076810Y-77549100D01*
X180776798Y-77549100D01*
X180776781Y-77549101D01*
X180674003Y-77559600D01*
X180674000Y-77559601D01*
X180507468Y-77614785D01*
X180507463Y-77614787D01*
X180358142Y-77706889D01*
X180234089Y-77830942D01*
X180141987Y-77980263D01*
X180141985Y-77980268D01*
X180138562Y-77990599D01*
X180086801Y-78146803D01*
X180086801Y-78146804D01*
X180086800Y-78146804D01*
X180076300Y-78249583D01*
X164630419Y-78249583D01*
X164624564Y-78245200D01*
X164624556Y-78245195D01*
X164389106Y-78116629D01*
X164389102Y-78116627D01*
X164137734Y-78022872D01*
X163875601Y-77965849D01*
X163875594Y-77965848D01*
X163608001Y-77946709D01*
X163607999Y-77946709D01*
X163340405Y-77965848D01*
X163340398Y-77965849D01*
X163078265Y-78022872D01*
X162826897Y-78116627D01*
X162826893Y-78116629D01*
X162591443Y-78245195D01*
X162591435Y-78245200D01*
X162376678Y-78405964D01*
X162376660Y-78405980D01*
X162186980Y-78595660D01*
X162186964Y-78595678D01*
X162026200Y-78810435D01*
X162026195Y-78810443D01*
X161897629Y-79045893D01*
X161897627Y-79045897D01*
X161803872Y-79297265D01*
X161746849Y-79559398D01*
X161746848Y-79559405D01*
X161727709Y-79826998D01*
X146374754Y-79826998D01*
X146377596Y-79819379D01*
X146377598Y-79819372D01*
X146383999Y-79759844D01*
X146384000Y-79759827D01*
X146384000Y-79112000D01*
X145467012Y-79112000D01*
X145499925Y-79054993D01*
X145534000Y-78927826D01*
X145534000Y-78796174D01*
X145499925Y-78669007D01*
X145467012Y-78612000D01*
X146384000Y-78612000D01*
X146384000Y-77964172D01*
X146383999Y-77964155D01*
X146380025Y-77927196D01*
X159230435Y-77927196D01*
X159230435Y-77927203D01*
X159250630Y-78106449D01*
X159250631Y-78106454D01*
X159310211Y-78276723D01*
X159386627Y-78398337D01*
X159406184Y-78429462D01*
X159533738Y-78557016D01*
X159686478Y-78652989D01*
X159732255Y-78669007D01*
X159856745Y-78712568D01*
X159856750Y-78712569D01*
X160035996Y-78732765D01*
X160036000Y-78732765D01*
X160036004Y-78732765D01*
X160215249Y-78712569D01*
X160215252Y-78712568D01*
X160215255Y-78712568D01*
X160385522Y-78652989D01*
X160538262Y-78557016D01*
X160665816Y-78429462D01*
X160761789Y-78276722D01*
X160821368Y-78106455D01*
X160828654Y-78041790D01*
X160841565Y-77927203D01*
X160841565Y-77927196D01*
X160821369Y-77747950D01*
X160821368Y-77747945D01*
X160807002Y-77706889D01*
X160761789Y-77577678D01*
X160750430Y-77559601D01*
X160665815Y-77424937D01*
X160538262Y-77297384D01*
X160385523Y-77201411D01*
X160215254Y-77141831D01*
X160215249Y-77141830D01*
X160036004Y-77121635D01*
X160035996Y-77121635D01*
X159856750Y-77141830D01*
X159856745Y-77141831D01*
X159686476Y-77201411D01*
X159533737Y-77297384D01*
X159406184Y-77424937D01*
X159310211Y-77577676D01*
X159250631Y-77747945D01*
X159250630Y-77747950D01*
X159230435Y-77927196D01*
X146380025Y-77927196D01*
X146377598Y-77904627D01*
X146377596Y-77904620D01*
X146327354Y-77769913D01*
X146327350Y-77769906D01*
X146241190Y-77654812D01*
X146241187Y-77654809D01*
X146126093Y-77568649D01*
X146126086Y-77568645D01*
X145991379Y-77518403D01*
X145991372Y-77518401D01*
X145931844Y-77512000D01*
X145284000Y-77512000D01*
X145284000Y-78428988D01*
X145226993Y-78396075D01*
X145099826Y-78362000D01*
X144968174Y-78362000D01*
X144841007Y-78396075D01*
X144784000Y-78428988D01*
X144784000Y-77512000D01*
X144136155Y-77512000D01*
X144076627Y-77518401D01*
X144076620Y-77518403D01*
X143941913Y-77568645D01*
X143941906Y-77568649D01*
X143826812Y-77654809D01*
X143826809Y-77654812D01*
X143740649Y-77769906D01*
X143740645Y-77769913D01*
X143691578Y-77901470D01*
X143649707Y-77957404D01*
X143584242Y-77981821D01*
X143515969Y-77966969D01*
X143487715Y-77945819D01*
X143443366Y-77901470D01*
X143365401Y-77823505D01*
X143365397Y-77823502D01*
X143365396Y-77823501D01*
X143171834Y-77687967D01*
X143171830Y-77687965D01*
X143086217Y-77648043D01*
X142957663Y-77588097D01*
X142957659Y-77588096D01*
X142957655Y-77588094D01*
X142729413Y-77526938D01*
X142729403Y-77526936D01*
X142494001Y-77506341D01*
X142493999Y-77506341D01*
X142258596Y-77526936D01*
X142258586Y-77526938D01*
X142030344Y-77588094D01*
X142030335Y-77588098D01*
X141816171Y-77687964D01*
X141816169Y-77687965D01*
X141622597Y-77823505D01*
X141455508Y-77990594D01*
X141325575Y-78176158D01*
X141270998Y-78219782D01*
X141201499Y-78226975D01*
X141139145Y-78195453D01*
X141122425Y-78176157D01*
X140992495Y-77990597D01*
X140825403Y-77823506D01*
X140825396Y-77823501D01*
X140631835Y-77687967D01*
X140631831Y-77687965D01*
X140546218Y-77648043D01*
X140417664Y-77588097D01*
X140417660Y-77588096D01*
X140417656Y-77588094D01*
X140189414Y-77526938D01*
X140189404Y-77526936D01*
X139954002Y-77506341D01*
X139954000Y-77506341D01*
X139718597Y-77526936D01*
X139718587Y-77526938D01*
X139490345Y-77588094D01*
X139490336Y-77588098D01*
X139276172Y-77687964D01*
X139276170Y-77687965D01*
X139082598Y-77823505D01*
X138915509Y-77990594D01*
X138785575Y-78176160D01*
X138730998Y-78219784D01*
X138661499Y-78226977D01*
X138599145Y-78195455D01*
X138582425Y-78176159D01*
X138452494Y-77990597D01*
X138285402Y-77823506D01*
X138285395Y-77823501D01*
X138091834Y-77687967D01*
X138091830Y-77687965D01*
X138006217Y-77648043D01*
X137877663Y-77588097D01*
X137877659Y-77588096D01*
X137877655Y-77588094D01*
X137649413Y-77526938D01*
X137649403Y-77526936D01*
X137414001Y-77506341D01*
X137413999Y-77506341D01*
X137178596Y-77526936D01*
X137178586Y-77526938D01*
X136950344Y-77588094D01*
X136950335Y-77588098D01*
X136736171Y-77687964D01*
X136736169Y-77687965D01*
X136542597Y-77823505D01*
X136375505Y-77990597D01*
X136245575Y-78176158D01*
X136190998Y-78219783D01*
X136121500Y-78226977D01*
X136059145Y-78195454D01*
X136042425Y-78176158D01*
X135912494Y-77990597D01*
X135745402Y-77823506D01*
X135745395Y-77823501D01*
X135551834Y-77687967D01*
X135551830Y-77687965D01*
X135466217Y-77648043D01*
X135337663Y-77588097D01*
X135337659Y-77588096D01*
X135337655Y-77588094D01*
X135109413Y-77526938D01*
X135109403Y-77526936D01*
X134874001Y-77506341D01*
X134873999Y-77506341D01*
X134638596Y-77526936D01*
X134638586Y-77526938D01*
X134410344Y-77588094D01*
X134410335Y-77588098D01*
X134196171Y-77687964D01*
X134196169Y-77687965D01*
X134002597Y-77823505D01*
X133835505Y-77990597D01*
X133699965Y-78184169D01*
X133699964Y-78184171D01*
X133600098Y-78398335D01*
X133600094Y-78398344D01*
X133538938Y-78626586D01*
X133538936Y-78626596D01*
X133518341Y-78861999D01*
X133518341Y-78862000D01*
X133538936Y-79097403D01*
X133538938Y-79097413D01*
X133600094Y-79325655D01*
X133600096Y-79325659D01*
X133600097Y-79325663D01*
X133668013Y-79471309D01*
X133699965Y-79539830D01*
X133699967Y-79539834D01*
X133808281Y-79694521D01*
X133835504Y-79733400D01*
X133835506Y-79733402D01*
X134002597Y-79900493D01*
X134002603Y-79900498D01*
X134188158Y-80030425D01*
X134231783Y-80085002D01*
X134238977Y-80154500D01*
X134207454Y-80216855D01*
X134188158Y-80233575D01*
X134002597Y-80363505D01*
X133835505Y-80530597D01*
X133699965Y-80724169D01*
X133699964Y-80724171D01*
X133600098Y-80938335D01*
X133600094Y-80938344D01*
X133538938Y-81166586D01*
X133538936Y-81166596D01*
X133518341Y-81401999D01*
X133518341Y-81402000D01*
X133538936Y-81637403D01*
X133538938Y-81637413D01*
X133600094Y-81865655D01*
X133600096Y-81865659D01*
X133600097Y-81865663D01*
X133604000Y-81874032D01*
X133699965Y-82079830D01*
X133699967Y-82079834D01*
X133748634Y-82149337D01*
X133835505Y-82273401D01*
X134002599Y-82440495D01*
X134048093Y-82472350D01*
X134196165Y-82576032D01*
X134196167Y-82576033D01*
X134196170Y-82576035D01*
X134410337Y-82675903D01*
X134638592Y-82737063D01*
X134826918Y-82753539D01*
X134873999Y-82757659D01*
X134874000Y-82757659D01*
X134874001Y-82757659D01*
X134913234Y-82754226D01*
X135109408Y-82737063D01*
X135337663Y-82675903D01*
X135551830Y-82576035D01*
X135745401Y-82440495D01*
X135912495Y-82273401D01*
X136042425Y-82087842D01*
X136097002Y-82044217D01*
X136166500Y-82037023D01*
X136228855Y-82068546D01*
X136245575Y-82087842D01*
X136375500Y-82273395D01*
X136375505Y-82273401D01*
X136542599Y-82440495D01*
X136588093Y-82472350D01*
X136736165Y-82576032D01*
X136736167Y-82576033D01*
X136736170Y-82576035D01*
X136950337Y-82675903D01*
X137178592Y-82737063D01*
X137366918Y-82753539D01*
X137413999Y-82757659D01*
X137414000Y-82757659D01*
X137414001Y-82757659D01*
X137453234Y-82754226D01*
X137649408Y-82737063D01*
X137877663Y-82675903D01*
X138091830Y-82576035D01*
X138285401Y-82440495D01*
X138452495Y-82273401D01*
X138582425Y-82087842D01*
X138637002Y-82044217D01*
X138706500Y-82037023D01*
X138768855Y-82068546D01*
X138785575Y-82087842D01*
X138915500Y-82273395D01*
X138915505Y-82273401D01*
X139082599Y-82440495D01*
X139128093Y-82472350D01*
X139276165Y-82576032D01*
X139276167Y-82576033D01*
X139276170Y-82576035D01*
X139490337Y-82675903D01*
X139718592Y-82737063D01*
X139906918Y-82753539D01*
X139953999Y-82757659D01*
X139954000Y-82757659D01*
X139954001Y-82757659D01*
X139993234Y-82754226D01*
X140189408Y-82737063D01*
X140417663Y-82675903D01*
X140631830Y-82576035D01*
X140825401Y-82440495D01*
X140992495Y-82273401D01*
X141122425Y-82087842D01*
X141177002Y-82044217D01*
X141246500Y-82037023D01*
X141308855Y-82068546D01*
X141325575Y-82087842D01*
X141455500Y-82273395D01*
X141455505Y-82273401D01*
X141622599Y-82440495D01*
X141668093Y-82472350D01*
X141816165Y-82576032D01*
X141816167Y-82576033D01*
X141816170Y-82576035D01*
X142030337Y-82675903D01*
X142258592Y-82737063D01*
X142446918Y-82753539D01*
X142493999Y-82757659D01*
X142494000Y-82757659D01*
X142494001Y-82757659D01*
X142533234Y-82754226D01*
X142729408Y-82737063D01*
X142957663Y-82675903D01*
X143171830Y-82576035D01*
X143365401Y-82440495D01*
X143532495Y-82273401D01*
X143662425Y-82087842D01*
X143717002Y-82044217D01*
X143786500Y-82037023D01*
X143848855Y-82068546D01*
X143865575Y-82087842D01*
X143995500Y-82273395D01*
X143995505Y-82273401D01*
X144162599Y-82440495D01*
X144208093Y-82472350D01*
X144356165Y-82576032D01*
X144356167Y-82576033D01*
X144356170Y-82576035D01*
X144570337Y-82675903D01*
X144570342Y-82675904D01*
X144570346Y-82675906D01*
X144662346Y-82700556D01*
X144718184Y-82715517D01*
X144773772Y-82747611D01*
X146568379Y-84542219D01*
X146601864Y-84603542D01*
X146596880Y-84673234D01*
X146555008Y-84729167D01*
X146489544Y-84753584D01*
X146480698Y-84753900D01*
X137112378Y-84753900D01*
X136923507Y-84783813D01*
X136923508Y-84783814D01*
X136917975Y-84784690D01*
X136917970Y-84784691D01*
X136730771Y-84845517D01*
X136555394Y-84934876D01*
X136483091Y-84987408D01*
X136396155Y-85050571D01*
X136396153Y-85050573D01*
X136396152Y-85050573D01*
X133186974Y-88259751D01*
X133186974Y-88259752D01*
X133186972Y-88259754D01*
X133137285Y-88328141D01*
X133071276Y-88418994D01*
X132981917Y-88594369D01*
X132972734Y-88622632D01*
X132955205Y-88676584D01*
X132953376Y-88682212D01*
X132921090Y-88781573D01*
X132890300Y-88975977D01*
X132890300Y-91141007D01*
X132921090Y-91335411D01*
X132981917Y-91522615D01*
X133048393Y-91653080D01*
X133071276Y-91697990D01*
X133186972Y-91857231D01*
X133186974Y-91857233D01*
X133972163Y-92642422D01*
X134005648Y-92703745D01*
X134000664Y-92773437D01*
X133958792Y-92829370D01*
X133936889Y-92842484D01*
X133892973Y-92862963D01*
X133892969Y-92862965D01*
X133699397Y-92998505D01*
X133532305Y-93165597D01*
X133396765Y-93359169D01*
X133396764Y-93359171D01*
X133296898Y-93573335D01*
X133296894Y-93573344D01*
X133235738Y-93801586D01*
X133235736Y-93801596D01*
X133215141Y-94036999D01*
X133215141Y-94041391D01*
X133195456Y-94108430D01*
X133142652Y-94154185D01*
X133073494Y-94164129D01*
X133009938Y-94135104D01*
X132974100Y-94082346D01*
X132958190Y-94036880D01*
X132955284Y-94032255D01*
X132862216Y-93884138D01*
X132734662Y-93756584D01*
X132581922Y-93660611D01*
X132581919Y-93660609D01*
X132445179Y-93612761D01*
X132388403Y-93572040D01*
X132369092Y-93536674D01*
X132362111Y-93516722D01*
X132348589Y-93478078D01*
X132252616Y-93325338D01*
X132125062Y-93197784D01*
X132073837Y-93165597D01*
X131972323Y-93101811D01*
X131802054Y-93042231D01*
X131802049Y-93042230D01*
X131622804Y-93022035D01*
X131622796Y-93022035D01*
X131443550Y-93042230D01*
X131443537Y-93042233D01*
X131273279Y-93101809D01*
X131252260Y-93115016D01*
X131185023Y-93134012D01*
X131118188Y-93113642D01*
X131081299Y-93075991D01*
X131060086Y-93042231D01*
X130982616Y-92918938D01*
X130928878Y-92865200D01*
X130895393Y-92803877D01*
X130899517Y-92736565D01*
X130923134Y-92669073D01*
X130934967Y-92635259D01*
X130934969Y-92635249D01*
X130955165Y-92456003D01*
X130955165Y-92455996D01*
X130934969Y-92276750D01*
X130934968Y-92276745D01*
X130891038Y-92151200D01*
X130875389Y-92106478D01*
X130875388Y-92106476D01*
X130874621Y-92104883D01*
X130874434Y-92103749D01*
X130873089Y-92099905D01*
X130873762Y-92099669D01*
X130863265Y-92035943D01*
X130890983Y-91971807D01*
X130948976Y-91932838D01*
X131000220Y-91927855D01*
X131063701Y-91935007D01*
X131114798Y-91940765D01*
X131114800Y-91940765D01*
X131114804Y-91940765D01*
X131294049Y-91920569D01*
X131294052Y-91920568D01*
X131294055Y-91920568D01*
X131464322Y-91860989D01*
X131617062Y-91765016D01*
X131744616Y-91637462D01*
X131840589Y-91484722D01*
X131900168Y-91314455D01*
X131900169Y-91314449D01*
X131920365Y-91135203D01*
X131920365Y-91135196D01*
X131900169Y-90955950D01*
X131900168Y-90955945D01*
X131895171Y-90941664D01*
X131840589Y-90785678D01*
X131832148Y-90772245D01*
X131744615Y-90632937D01*
X131617062Y-90505384D01*
X131464321Y-90409410D01*
X131294049Y-90349830D01*
X131263810Y-90346423D01*
X131199397Y-90319355D01*
X131159843Y-90261759D01*
X131154476Y-90237086D01*
X131138169Y-90092349D01*
X131138168Y-90092345D01*
X131119087Y-90037815D01*
X131078589Y-89922078D01*
X130982616Y-89769338D01*
X130855062Y-89641784D01*
X130837724Y-89630890D01*
X130702323Y-89545811D01*
X130532054Y-89486231D01*
X130532049Y-89486230D01*
X130352804Y-89466035D01*
X130352796Y-89466035D01*
X130173550Y-89486230D01*
X130173545Y-89486231D01*
X130003276Y-89545811D01*
X129850537Y-89641784D01*
X129722984Y-89769337D01*
X129627011Y-89922076D01*
X129567431Y-90092345D01*
X129567430Y-90092350D01*
X129547235Y-90271596D01*
X129547235Y-90271603D01*
X129567430Y-90450849D01*
X129567431Y-90450854D01*
X129627011Y-90621123D01*
X129714691Y-90760664D01*
X129722984Y-90773862D01*
X129850538Y-90901416D01*
X129899249Y-90932023D01*
X129980126Y-90982842D01*
X130003278Y-90997389D01*
X130173545Y-91056968D01*
X130203785Y-91060375D01*
X130268198Y-91087439D01*
X130307755Y-91145033D01*
X130313123Y-91169712D01*
X130329430Y-91314449D01*
X130329431Y-91314454D01*
X130389011Y-91484722D01*
X130389781Y-91486321D01*
X130389968Y-91487457D01*
X130391311Y-91491295D01*
X130390638Y-91491530D01*
X130401133Y-91555263D01*
X130373412Y-91619397D01*
X130315417Y-91658363D01*
X130264178Y-91663344D01*
X130149604Y-91650435D01*
X130149596Y-91650435D01*
X129970350Y-91670630D01*
X129970345Y-91670631D01*
X129800076Y-91730211D01*
X129647337Y-91826184D01*
X129519784Y-91953737D01*
X129423811Y-92106476D01*
X129364231Y-92276745D01*
X129364230Y-92276750D01*
X129344035Y-92455996D01*
X129344035Y-92456003D01*
X129364230Y-92635249D01*
X129364231Y-92635254D01*
X129423811Y-92805523D01*
X129519784Y-92958262D01*
X129573521Y-93011999D01*
X129607006Y-93073322D01*
X129602881Y-93140635D01*
X129567433Y-93241937D01*
X129567430Y-93241950D01*
X129547235Y-93421196D01*
X129547235Y-93421203D01*
X129567430Y-93600449D01*
X129567431Y-93600454D01*
X129627011Y-93770723D01*
X129722984Y-93923462D01*
X129850538Y-94051016D01*
X130003278Y-94146989D01*
X130161982Y-94202522D01*
X130173545Y-94206568D01*
X130173550Y-94206569D01*
X130352796Y-94226765D01*
X130352800Y-94226765D01*
X130352804Y-94226765D01*
X130532049Y-94206569D01*
X130532052Y-94206568D01*
X130532055Y-94206568D01*
X130702322Y-94146989D01*
X130723333Y-94133786D01*
X130790569Y-94114786D01*
X130857404Y-94135153D01*
X130894300Y-94172808D01*
X130928204Y-94226765D01*
X130992984Y-94329862D01*
X131120538Y-94457416D01*
X131273278Y-94553389D01*
X131410019Y-94601236D01*
X131466794Y-94641958D01*
X131486105Y-94677322D01*
X131506610Y-94735920D01*
X131506610Y-94735922D01*
X131585841Y-94862016D01*
X131602584Y-94888662D01*
X131730138Y-95016216D01*
X131882878Y-95112189D01*
X131986352Y-95148396D01*
X132053145Y-95171768D01*
X132053150Y-95171769D01*
X132232396Y-95191965D01*
X132232400Y-95191965D01*
X132232404Y-95191965D01*
X132411649Y-95171769D01*
X132411652Y-95171768D01*
X132411655Y-95171768D01*
X132581922Y-95112189D01*
X132734662Y-95016216D01*
X132862216Y-94888662D01*
X132958189Y-94735922D01*
X133017768Y-94565655D01*
X133029964Y-94457416D01*
X133032175Y-94437788D01*
X133059241Y-94373374D01*
X133116836Y-94333819D01*
X133186673Y-94331681D01*
X133246579Y-94367639D01*
X133275170Y-94419577D01*
X133296895Y-94500658D01*
X133296896Y-94500660D01*
X133296897Y-94500663D01*
X133352328Y-94619534D01*
X133396765Y-94714830D01*
X133396767Y-94714834D01*
X133455616Y-94798878D01*
X133532305Y-94908401D01*
X133699399Y-95075495D01*
X133892098Y-95210424D01*
X133935723Y-95265001D01*
X133942917Y-95334499D01*
X133911394Y-95396854D01*
X133892099Y-95413574D01*
X133699394Y-95548507D01*
X133532305Y-95715596D01*
X133396765Y-95909168D01*
X133396764Y-95909170D01*
X133296898Y-96123334D01*
X133296894Y-96123343D01*
X133235738Y-96351585D01*
X133235736Y-96351595D01*
X133215141Y-96586998D01*
X133215141Y-96586999D01*
X133235736Y-96822402D01*
X133235738Y-96822412D01*
X133296894Y-97050654D01*
X133296896Y-97050658D01*
X133296897Y-97050662D01*
X133360228Y-97186476D01*
X133396765Y-97264829D01*
X133396767Y-97264833D01*
X133430203Y-97312584D01*
X133532305Y-97458400D01*
X133699399Y-97625494D01*
X133756962Y-97665800D01*
X133892965Y-97761031D01*
X133892967Y-97761032D01*
X133892970Y-97761034D01*
X133922097Y-97774616D01*
X133922099Y-97774617D01*
X133974539Y-97820789D01*
X133993691Y-97887982D01*
X133973476Y-97954863D01*
X133922102Y-97999380D01*
X133892972Y-98012963D01*
X133892969Y-98012965D01*
X133699397Y-98148505D01*
X133532305Y-98315597D01*
X133396765Y-98509169D01*
X133396764Y-98509171D01*
X133296898Y-98723335D01*
X133296894Y-98723344D01*
X133235738Y-98951586D01*
X133235736Y-98951596D01*
X133215141Y-99186999D01*
X133215141Y-99187000D01*
X133235736Y-99422403D01*
X133235738Y-99422413D01*
X133296894Y-99650655D01*
X133296896Y-99650659D01*
X133296897Y-99650663D01*
X133364270Y-99795145D01*
X133396765Y-99864830D01*
X133396767Y-99864834D01*
X133473484Y-99974396D01*
X133532305Y-100058401D01*
X133699399Y-100225495D01*
X133839969Y-100323923D01*
X133892099Y-100360425D01*
X133935723Y-100415002D01*
X133942916Y-100484501D01*
X133911394Y-100546855D01*
X133892099Y-100563575D01*
X133699394Y-100698508D01*
X133532305Y-100865597D01*
X133396765Y-101059169D01*
X133396764Y-101059171D01*
X133296898Y-101273335D01*
X133296894Y-101273344D01*
X133235738Y-101501586D01*
X133235736Y-101501596D01*
X133215141Y-101736999D01*
X133215141Y-101737000D01*
X133235736Y-101972403D01*
X133235738Y-101972413D01*
X133296894Y-102200655D01*
X133296896Y-102200659D01*
X133296897Y-102200663D01*
X133363840Y-102344223D01*
X133396765Y-102414830D01*
X133396767Y-102414834D01*
X133532301Y-102608395D01*
X133532306Y-102608402D01*
X133699397Y-102775493D01*
X133699403Y-102775498D01*
X133755031Y-102814449D01*
X133878044Y-102900584D01*
X133892099Y-102910425D01*
X133935724Y-102965002D01*
X133942918Y-103034500D01*
X133911395Y-103096855D01*
X133892100Y-103113575D01*
X133699394Y-103248509D01*
X133532305Y-103415598D01*
X133396765Y-103609170D01*
X133396764Y-103609172D01*
X133296898Y-103823336D01*
X133296894Y-103823345D01*
X133235738Y-104051587D01*
X133235736Y-104051597D01*
X133215141Y-104287000D01*
X133215141Y-104287001D01*
X133235736Y-104522404D01*
X133235738Y-104522414D01*
X133296894Y-104750656D01*
X133296896Y-104750660D01*
X133296897Y-104750664D01*
X133356524Y-104878534D01*
X133396765Y-104964831D01*
X133396767Y-104964835D01*
X133505081Y-105119522D01*
X133532305Y-105158402D01*
X133699399Y-105325496D01*
X133756311Y-105365346D01*
X133892965Y-105461033D01*
X133892967Y-105461034D01*
X133892970Y-105461036D01*
X133970985Y-105497415D01*
X134023424Y-105543588D01*
X134042576Y-105610781D01*
X134022360Y-105677662D01*
X134006261Y-105697478D01*
X129790816Y-109912923D01*
X129729493Y-109946408D01*
X129659801Y-109941424D01*
X129603868Y-109899552D01*
X129579451Y-109834088D01*
X129586094Y-109784287D01*
X129614166Y-109704062D01*
X129614169Y-109704049D01*
X129634365Y-109524803D01*
X129634365Y-109524796D01*
X129614169Y-109345550D01*
X129614168Y-109345545D01*
X129592824Y-109284547D01*
X129554589Y-109175278D01*
X129550850Y-109169328D01*
X129468279Y-109037917D01*
X129458616Y-109022538D01*
X129331062Y-108894984D01*
X129178323Y-108799011D01*
X129008054Y-108739431D01*
X129008049Y-108739430D01*
X128828804Y-108719235D01*
X128828796Y-108719235D01*
X128649550Y-108739430D01*
X128649545Y-108739431D01*
X128479276Y-108799011D01*
X128326537Y-108894984D01*
X128198984Y-109022537D01*
X128103011Y-109175276D01*
X128043431Y-109345545D01*
X128043430Y-109345550D01*
X128023235Y-109524796D01*
X128023235Y-109524803D01*
X128043430Y-109704049D01*
X128043431Y-109704054D01*
X128103011Y-109874323D01*
X128198984Y-110027062D01*
X128326538Y-110154616D01*
X128479278Y-110250589D01*
X128649539Y-110310166D01*
X128649545Y-110310168D01*
X128649550Y-110310169D01*
X128828796Y-110330365D01*
X128828800Y-110330365D01*
X128828804Y-110330365D01*
X129008049Y-110310169D01*
X129008051Y-110310168D01*
X129008055Y-110310168D01*
X129008058Y-110310166D01*
X129008062Y-110310166D01*
X129088287Y-110282094D01*
X129158065Y-110278531D01*
X129218693Y-110313260D01*
X129250921Y-110375253D01*
X129244516Y-110444829D01*
X129216923Y-110486816D01*
X115146264Y-124557476D01*
X115007081Y-124696658D01*
X115007080Y-124696659D01*
X114895484Y-124850257D01*
X114868051Y-124877689D01*
X114714464Y-124989276D01*
X114714458Y-124989281D01*
X114412974Y-125290765D01*
X114412974Y-125290766D01*
X114412972Y-125290769D01*
X114387251Y-125326171D01*
X114297276Y-125450009D01*
X114207917Y-125625386D01*
X114155636Y-125786290D01*
X114155636Y-125786291D01*
X114147090Y-125812590D01*
X114116300Y-126006992D01*
X102607787Y-126006992D01*
X102607158Y-121319724D01*
X102626834Y-121252683D01*
X102679631Y-121206921D01*
X102748789Y-121196968D01*
X102812348Y-121225984D01*
X102845720Y-121272256D01*
X102851935Y-121287262D01*
X102983560Y-121502053D01*
X102983561Y-121502056D01*
X102983564Y-121502059D01*
X103147176Y-121693624D01*
X103265227Y-121794449D01*
X103338743Y-121857238D01*
X103338746Y-121857239D01*
X103553540Y-121988866D01*
X103786289Y-122085273D01*
X104031252Y-122144083D01*
X104282400Y-122163849D01*
X104533548Y-122144083D01*
X104778511Y-122085273D01*
X105011259Y-121988866D01*
X105226059Y-121857236D01*
X105417624Y-121693624D01*
X105581236Y-121502059D01*
X105712866Y-121287259D01*
X105809273Y-121054511D01*
X105868083Y-120809548D01*
X105887849Y-120558400D01*
X107776951Y-120558400D01*
X107796717Y-120809551D01*
X107855526Y-121054510D01*
X107951933Y-121287259D01*
X108083560Y-121502053D01*
X108083561Y-121502056D01*
X108083564Y-121502059D01*
X108247176Y-121693624D01*
X108365227Y-121794449D01*
X108438743Y-121857238D01*
X108438746Y-121857239D01*
X108653540Y-121988866D01*
X108886289Y-122085273D01*
X109131252Y-122144083D01*
X109382400Y-122163849D01*
X109633548Y-122144083D01*
X109878511Y-122085273D01*
X110111259Y-121988866D01*
X110326059Y-121857236D01*
X110517624Y-121693624D01*
X110681236Y-121502059D01*
X110812866Y-121287259D01*
X110909273Y-121054511D01*
X110968083Y-120809548D01*
X110987849Y-120558400D01*
X110968083Y-120307252D01*
X110909273Y-120062289D01*
X110850959Y-119921505D01*
X110812866Y-119829540D01*
X110681239Y-119614746D01*
X110681238Y-119614743D01*
X110644275Y-119571466D01*
X110517624Y-119423176D01*
X110390971Y-119315004D01*
X110326056Y-119259561D01*
X110326053Y-119259560D01*
X110111259Y-119127933D01*
X109878510Y-119031526D01*
X109633551Y-118972717D01*
X109382400Y-118952951D01*
X109131248Y-118972717D01*
X108886289Y-119031526D01*
X108653540Y-119127933D01*
X108438746Y-119259560D01*
X108438743Y-119259561D01*
X108247176Y-119423176D01*
X108083561Y-119614743D01*
X108083560Y-119614746D01*
X107951933Y-119829540D01*
X107855526Y-120062289D01*
X107796717Y-120307248D01*
X107776951Y-120558400D01*
X105887849Y-120558400D01*
X105868083Y-120307252D01*
X105809273Y-120062289D01*
X105750959Y-119921505D01*
X105712866Y-119829540D01*
X105581239Y-119614746D01*
X105581238Y-119614743D01*
X105544275Y-119571466D01*
X105417624Y-119423176D01*
X105290971Y-119315004D01*
X105226056Y-119259561D01*
X105226053Y-119259560D01*
X105011259Y-119127933D01*
X104778510Y-119031526D01*
X104533551Y-118972717D01*
X104282400Y-118952951D01*
X104031248Y-118972717D01*
X103786289Y-119031526D01*
X103553540Y-119127933D01*
X103338746Y-119259560D01*
X103338743Y-119259561D01*
X103147176Y-119423176D01*
X102983561Y-119614743D01*
X102983560Y-119614746D01*
X102851933Y-119829541D01*
X102851931Y-119829545D01*
X102845512Y-119845041D01*
X102801669Y-119899443D01*
X102735374Y-119921505D01*
X102667675Y-119904223D01*
X102620067Y-119853084D01*
X102606953Y-119797604D01*
X102606473Y-116218071D01*
X102626149Y-116151031D01*
X102678946Y-116105269D01*
X102748104Y-116095316D01*
X102811663Y-116124332D01*
X102845033Y-116170601D01*
X102851932Y-116187257D01*
X102851933Y-116187258D01*
X102983560Y-116402053D01*
X102983561Y-116402056D01*
X103023872Y-116449254D01*
X103147176Y-116593624D01*
X103294627Y-116719559D01*
X103338743Y-116757238D01*
X103338746Y-116757239D01*
X103553540Y-116888866D01*
X103707387Y-116952591D01*
X103786289Y-116985273D01*
X104031252Y-117044083D01*
X104282400Y-117063849D01*
X104533548Y-117044083D01*
X104778511Y-116985273D01*
X105011259Y-116888866D01*
X105226059Y-116757236D01*
X105417624Y-116593624D01*
X105581236Y-116402059D01*
X105712866Y-116187259D01*
X105809273Y-115954511D01*
X105868083Y-115709548D01*
X105887849Y-115458400D01*
X107776951Y-115458400D01*
X107796717Y-115709551D01*
X107855526Y-115954510D01*
X107951933Y-116187259D01*
X108083560Y-116402053D01*
X108083561Y-116402056D01*
X108123872Y-116449254D01*
X108247176Y-116593624D01*
X108394627Y-116719559D01*
X108438743Y-116757238D01*
X108438746Y-116757239D01*
X108653540Y-116888866D01*
X108807387Y-116952591D01*
X108886289Y-116985273D01*
X109131252Y-117044083D01*
X109382400Y-117063849D01*
X109633548Y-117044083D01*
X109878511Y-116985273D01*
X110111259Y-116888866D01*
X110326059Y-116757236D01*
X110517624Y-116593624D01*
X110681236Y-116402059D01*
X110812866Y-116187259D01*
X110909273Y-115954511D01*
X110968083Y-115709548D01*
X110987849Y-115458400D01*
X110968083Y-115207252D01*
X110909273Y-114962289D01*
X110900156Y-114940279D01*
X110812866Y-114729540D01*
X110681239Y-114514746D01*
X110681238Y-114514743D01*
X110644275Y-114471466D01*
X110517624Y-114323176D01*
X110390971Y-114215004D01*
X110326056Y-114159561D01*
X110326053Y-114159560D01*
X110111259Y-114027933D01*
X109878510Y-113931526D01*
X109633551Y-113872717D01*
X109382400Y-113852951D01*
X109131248Y-113872717D01*
X108886289Y-113931526D01*
X108653540Y-114027933D01*
X108438746Y-114159560D01*
X108438743Y-114159561D01*
X108247176Y-114323176D01*
X108083561Y-114514743D01*
X108083560Y-114514746D01*
X107951933Y-114729540D01*
X107855526Y-114962289D01*
X107796717Y-115207248D01*
X107776951Y-115458400D01*
X105887849Y-115458400D01*
X105868083Y-115207252D01*
X105809273Y-114962289D01*
X105800156Y-114940279D01*
X105712866Y-114729540D01*
X105581239Y-114514746D01*
X105581238Y-114514743D01*
X105544275Y-114471466D01*
X105417624Y-114323176D01*
X105290971Y-114215004D01*
X105226056Y-114159561D01*
X105226053Y-114159560D01*
X105011259Y-114027933D01*
X104778510Y-113931526D01*
X104533551Y-113872717D01*
X104282400Y-113852951D01*
X104031248Y-113872717D01*
X103786289Y-113931526D01*
X103553540Y-114027933D01*
X103338746Y-114159560D01*
X103338743Y-114159561D01*
X103147176Y-114323176D01*
X102983561Y-114514743D01*
X102983560Y-114514746D01*
X102851933Y-114729541D01*
X102844828Y-114746693D01*
X102800985Y-114801094D01*
X102734689Y-114823156D01*
X102666991Y-114805874D01*
X102619383Y-114754735D01*
X102606269Y-114699255D01*
X102605245Y-107065705D01*
X102624921Y-106998666D01*
X102677718Y-106952904D01*
X102746876Y-106942951D01*
X102810435Y-106971967D01*
X102843805Y-107018237D01*
X102851930Y-107037853D01*
X102851933Y-107037858D01*
X102983560Y-107252653D01*
X102983561Y-107252656D01*
X102983564Y-107252659D01*
X103147176Y-107444224D01*
X103295466Y-107570875D01*
X103338743Y-107607838D01*
X103338746Y-107607839D01*
X103553540Y-107739466D01*
X103786289Y-107835873D01*
X104031252Y-107894683D01*
X104282400Y-107914449D01*
X104533548Y-107894683D01*
X104778511Y-107835873D01*
X105011259Y-107739466D01*
X105226059Y-107607836D01*
X105417624Y-107444224D01*
X105581236Y-107252659D01*
X105712866Y-107037859D01*
X105809273Y-106805111D01*
X105868083Y-106560148D01*
X105887849Y-106309000D01*
X107776951Y-106309000D01*
X107796717Y-106560151D01*
X107855526Y-106805110D01*
X107951933Y-107037859D01*
X108083560Y-107252653D01*
X108083561Y-107252656D01*
X108083564Y-107252659D01*
X108247176Y-107444224D01*
X108395466Y-107570875D01*
X108438743Y-107607838D01*
X108438746Y-107607839D01*
X108653540Y-107739466D01*
X108886289Y-107835873D01*
X109131252Y-107894683D01*
X109382400Y-107914449D01*
X109633548Y-107894683D01*
X109878511Y-107835873D01*
X110111259Y-107739466D01*
X110326059Y-107607836D01*
X110517624Y-107444224D01*
X110681236Y-107252659D01*
X110812866Y-107037859D01*
X110909273Y-106805111D01*
X110968083Y-106560148D01*
X110987849Y-106309000D01*
X110968083Y-106057852D01*
X110909273Y-105812889D01*
X110812866Y-105580140D01*
X110681239Y-105365346D01*
X110681238Y-105365343D01*
X110644275Y-105322066D01*
X110517624Y-105173776D01*
X110390971Y-105065604D01*
X110326056Y-105010161D01*
X110326053Y-105010160D01*
X110111259Y-104878533D01*
X109878510Y-104782126D01*
X109633551Y-104723317D01*
X109382400Y-104703551D01*
X109131248Y-104723317D01*
X108886289Y-104782126D01*
X108653540Y-104878533D01*
X108438746Y-105010160D01*
X108438743Y-105010161D01*
X108247176Y-105173776D01*
X108083561Y-105365343D01*
X108083560Y-105365346D01*
X107951933Y-105580140D01*
X107855526Y-105812889D01*
X107796717Y-106057848D01*
X107776951Y-106309000D01*
X105887849Y-106309000D01*
X105868083Y-106057852D01*
X105809273Y-105812889D01*
X105712866Y-105580140D01*
X105581239Y-105365346D01*
X105581238Y-105365343D01*
X105544275Y-105322066D01*
X105417624Y-105173776D01*
X105290971Y-105065604D01*
X105226056Y-105010161D01*
X105226053Y-105010160D01*
X105011259Y-104878533D01*
X104778510Y-104782126D01*
X104533551Y-104723317D01*
X104282400Y-104703551D01*
X104031248Y-104723317D01*
X103786289Y-104782126D01*
X103553540Y-104878533D01*
X103338746Y-105010160D01*
X103338743Y-105010161D01*
X103147176Y-105173776D01*
X102983561Y-105365343D01*
X102983560Y-105365346D01*
X102851934Y-105580140D01*
X102843602Y-105600254D01*
X102799759Y-105654656D01*
X102733464Y-105676719D01*
X102665766Y-105659438D01*
X102618157Y-105608299D01*
X102605042Y-105552817D01*
X102604561Y-101964055D01*
X102624237Y-101897014D01*
X102677034Y-101851252D01*
X102746192Y-101841299D01*
X102809751Y-101870315D01*
X102843122Y-101916586D01*
X102851933Y-101937859D01*
X102983560Y-102152653D01*
X102983561Y-102152656D01*
X102983564Y-102152659D01*
X103147176Y-102344224D01*
X103229850Y-102414834D01*
X103338743Y-102507838D01*
X103338746Y-102507839D01*
X103553540Y-102639466D01*
X103759641Y-102724835D01*
X103786289Y-102735873D01*
X104031252Y-102794683D01*
X104282400Y-102814449D01*
X104533548Y-102794683D01*
X104778511Y-102735873D01*
X105011259Y-102639466D01*
X105226059Y-102507836D01*
X105417624Y-102344224D01*
X105581236Y-102152659D01*
X105712866Y-101937859D01*
X105809273Y-101705111D01*
X105868083Y-101460148D01*
X105887849Y-101209000D01*
X107776951Y-101209000D01*
X107796717Y-101460151D01*
X107855526Y-101705110D01*
X107951933Y-101937859D01*
X108083560Y-102152653D01*
X108083561Y-102152656D01*
X108083564Y-102152659D01*
X108247176Y-102344224D01*
X108329850Y-102414834D01*
X108438743Y-102507838D01*
X108438746Y-102507839D01*
X108653540Y-102639466D01*
X108859641Y-102724835D01*
X108886289Y-102735873D01*
X109131252Y-102794683D01*
X109382400Y-102814449D01*
X109633548Y-102794683D01*
X109878511Y-102735873D01*
X110111259Y-102639466D01*
X110326059Y-102507836D01*
X110517624Y-102344224D01*
X110681236Y-102152659D01*
X110812866Y-101937859D01*
X110909273Y-101705111D01*
X110968083Y-101460148D01*
X110987849Y-101209000D01*
X110968083Y-100957852D01*
X110909273Y-100712889D01*
X110903313Y-100698501D01*
X110812866Y-100480140D01*
X110681239Y-100265346D01*
X110681238Y-100265343D01*
X110585842Y-100153649D01*
X110517624Y-100073776D01*
X110390971Y-99965604D01*
X110326056Y-99910161D01*
X110326053Y-99910160D01*
X110111259Y-99778533D01*
X110056374Y-99755799D01*
X124881600Y-99755799D01*
X124881601Y-99755800D01*
X124881602Y-99755800D01*
X126781598Y-99755800D01*
X126781599Y-99755800D01*
X126781600Y-97942396D01*
X128023235Y-97942396D01*
X128023235Y-97942403D01*
X128043430Y-98121649D01*
X128043431Y-98121654D01*
X128103011Y-98291923D01*
X128140924Y-98352260D01*
X128198984Y-98444662D01*
X128326538Y-98572216D01*
X128479278Y-98668189D01*
X128636876Y-98723335D01*
X128649545Y-98727768D01*
X128649550Y-98727769D01*
X128828796Y-98747965D01*
X128828800Y-98747965D01*
X128828804Y-98747965D01*
X129008049Y-98727769D01*
X129008052Y-98727768D01*
X129008055Y-98727768D01*
X129178322Y-98668189D01*
X129331062Y-98572216D01*
X129458616Y-98444662D01*
X129554589Y-98291922D01*
X129614168Y-98121655D01*
X129614169Y-98121649D01*
X129634365Y-97942403D01*
X129634365Y-97942396D01*
X129614169Y-97763150D01*
X129614168Y-97763145D01*
X129613428Y-97761031D01*
X129554589Y-97592878D01*
X129458616Y-97440138D01*
X129331062Y-97312584D01*
X129255067Y-97264833D01*
X129178323Y-97216611D01*
X129008054Y-97157031D01*
X129008049Y-97157030D01*
X128828804Y-97136835D01*
X128828796Y-97136835D01*
X128649550Y-97157030D01*
X128649545Y-97157031D01*
X128479276Y-97216611D01*
X128326537Y-97312584D01*
X128198984Y-97440137D01*
X128103011Y-97592876D01*
X128043431Y-97763145D01*
X128043430Y-97763150D01*
X128023235Y-97942396D01*
X126781600Y-97942396D01*
X126781600Y-97665800D01*
X124881600Y-97665800D01*
X124881600Y-99755799D01*
X110056374Y-99755799D01*
X109878510Y-99682126D01*
X109633551Y-99623317D01*
X109382400Y-99603551D01*
X109131248Y-99623317D01*
X108886289Y-99682126D01*
X108653540Y-99778533D01*
X108438746Y-99910160D01*
X108438743Y-99910161D01*
X108247176Y-100073776D01*
X108083561Y-100265343D01*
X108083560Y-100265346D01*
X107951933Y-100480140D01*
X107855526Y-100712889D01*
X107796717Y-100957848D01*
X107776951Y-101209000D01*
X105887849Y-101209000D01*
X105868083Y-100957852D01*
X105809273Y-100712889D01*
X105803313Y-100698501D01*
X105712866Y-100480140D01*
X105581239Y-100265346D01*
X105581238Y-100265343D01*
X105485842Y-100153649D01*
X105417624Y-100073776D01*
X105290971Y-99965604D01*
X105226056Y-99910161D01*
X105226053Y-99910160D01*
X105011259Y-99778533D01*
X104778510Y-99682126D01*
X104533551Y-99623317D01*
X104282400Y-99603551D01*
X104031248Y-99623317D01*
X103786289Y-99682126D01*
X103553540Y-99778533D01*
X103338746Y-99910160D01*
X103338743Y-99910161D01*
X103147176Y-100073776D01*
X102983561Y-100265343D01*
X102983560Y-100265346D01*
X102851933Y-100480140D01*
X102842918Y-100501905D01*
X102799075Y-100556307D01*
X102732780Y-100578370D01*
X102665081Y-100561089D01*
X102617472Y-100509950D01*
X102604358Y-100454468D01*
X102603967Y-97535996D01*
X121368435Y-97535996D01*
X121368435Y-97536003D01*
X121388630Y-97715249D01*
X121388631Y-97715254D01*
X121448211Y-97885523D01*
X121528289Y-98012965D01*
X121544184Y-98038262D01*
X121671738Y-98165816D01*
X121824478Y-98261789D01*
X121978258Y-98315599D01*
X121994745Y-98321368D01*
X121994750Y-98321369D01*
X122173996Y-98341565D01*
X122174000Y-98341565D01*
X122174004Y-98341565D01*
X122353249Y-98321369D01*
X122353252Y-98321368D01*
X122353255Y-98321368D01*
X122523522Y-98261789D01*
X122676262Y-98165816D01*
X122803816Y-98038262D01*
X122899789Y-97885522D01*
X122959368Y-97715255D01*
X122959369Y-97715249D01*
X122979565Y-97536003D01*
X122979565Y-97535996D01*
X122959369Y-97356750D01*
X122959368Y-97356745D01*
X122943915Y-97312584D01*
X122899789Y-97186478D01*
X122803816Y-97033738D01*
X122676262Y-96906184D01*
X122523523Y-96810211D01*
X122353254Y-96750631D01*
X122353249Y-96750630D01*
X122174004Y-96730435D01*
X122173996Y-96730435D01*
X121994750Y-96750630D01*
X121994745Y-96750631D01*
X121824476Y-96810211D01*
X121671737Y-96906184D01*
X121544184Y-97033737D01*
X121448211Y-97186476D01*
X121388631Y-97356745D01*
X121388630Y-97356750D01*
X121368435Y-97535996D01*
X102603967Y-97535996D01*
X102603690Y-95472430D01*
X102623366Y-95405389D01*
X102676163Y-95359627D01*
X102736758Y-95350906D01*
X102736910Y-95348784D01*
X102741325Y-95349099D01*
X102741326Y-95349100D01*
X102741327Y-95349100D01*
X114074390Y-95349100D01*
X114074400Y-95349100D01*
X114181856Y-95337547D01*
X114233367Y-95326341D01*
X114267597Y-95314947D01*
X114335897Y-95292216D01*
X114335901Y-95292213D01*
X114335904Y-95292213D01*
X114456943Y-95214425D01*
X114509747Y-95168670D01*
X114603967Y-95059936D01*
X114663738Y-94929059D01*
X114683423Y-94862020D01*
X114683424Y-94862016D01*
X114703900Y-94719600D01*
X114703900Y-89407996D01*
X116542435Y-89407996D01*
X116542435Y-89408003D01*
X116562630Y-89587249D01*
X116562631Y-89587254D01*
X116622211Y-89757523D01*
X116669853Y-89833344D01*
X116718184Y-89910262D01*
X116845738Y-90037816D01*
X116998478Y-90133789D01*
X117168745Y-90193368D01*
X117168750Y-90193369D01*
X117347996Y-90213565D01*
X117348000Y-90213565D01*
X117348004Y-90213565D01*
X117527249Y-90193369D01*
X117527252Y-90193368D01*
X117527255Y-90193368D01*
X117697522Y-90133789D01*
X117850262Y-90037816D01*
X117977816Y-89910262D01*
X118073789Y-89757522D01*
X118133368Y-89587255D01*
X118138038Y-89545811D01*
X118153565Y-89408003D01*
X118153565Y-89407996D01*
X118142118Y-89306396D01*
X123959235Y-89306396D01*
X123959235Y-89306403D01*
X123979430Y-89485649D01*
X123979431Y-89485654D01*
X124039011Y-89655923D01*
X124102851Y-89757523D01*
X124134984Y-89808662D01*
X124262538Y-89936216D01*
X124415278Y-90032189D01*
X124585545Y-90091768D01*
X124585550Y-90091769D01*
X124764796Y-90111965D01*
X124764800Y-90111965D01*
X124764804Y-90111965D01*
X124944049Y-90091769D01*
X124944052Y-90091768D01*
X124944055Y-90091768D01*
X125114322Y-90032189D01*
X125267062Y-89936216D01*
X125394616Y-89808662D01*
X125490589Y-89655922D01*
X125550168Y-89485655D01*
X125556898Y-89425926D01*
X125570365Y-89306403D01*
X125570365Y-89306396D01*
X125550169Y-89127150D01*
X125550168Y-89127145D01*
X125526140Y-89058476D01*
X125490589Y-88956878D01*
X125488094Y-88952908D01*
X125394615Y-88804137D01*
X125267062Y-88676584D01*
X125114323Y-88580611D01*
X124944054Y-88521031D01*
X124944049Y-88521030D01*
X124764804Y-88500835D01*
X124764796Y-88500835D01*
X124585550Y-88521030D01*
X124585545Y-88521031D01*
X124415276Y-88580611D01*
X124262537Y-88676584D01*
X124134984Y-88804137D01*
X124039011Y-88956876D01*
X123979431Y-89127145D01*
X123979430Y-89127150D01*
X123959235Y-89306396D01*
X118142118Y-89306396D01*
X118133369Y-89228750D01*
X118133368Y-89228745D01*
X118097818Y-89127150D01*
X118073789Y-89058478D01*
X117977816Y-88905738D01*
X117850262Y-88778184D01*
X117791918Y-88741524D01*
X117697523Y-88682211D01*
X117527254Y-88622631D01*
X117527249Y-88622630D01*
X117348004Y-88602435D01*
X117347996Y-88602435D01*
X117168750Y-88622630D01*
X117168745Y-88622631D01*
X116998476Y-88682211D01*
X116845737Y-88778184D01*
X116718184Y-88905737D01*
X116622211Y-89058476D01*
X116562631Y-89228745D01*
X116562630Y-89228750D01*
X116542435Y-89407996D01*
X114703900Y-89407996D01*
X114703900Y-88391996D01*
X120047635Y-88391996D01*
X120047635Y-88392003D01*
X120067830Y-88571249D01*
X120067831Y-88571254D01*
X120127411Y-88741523D01*
X120174392Y-88816292D01*
X120223384Y-88894262D01*
X120350938Y-89021816D01*
X120409282Y-89058476D01*
X120503518Y-89117689D01*
X120503678Y-89117789D01*
X120673945Y-89177368D01*
X120673950Y-89177369D01*
X120853196Y-89197565D01*
X120853200Y-89197565D01*
X120853204Y-89197565D01*
X121032449Y-89177369D01*
X121032452Y-89177368D01*
X121032455Y-89177368D01*
X121202722Y-89117789D01*
X121355462Y-89021816D01*
X121483016Y-88894262D01*
X121578989Y-88741522D01*
X121638568Y-88571255D01*
X121644227Y-88521030D01*
X121658765Y-88392003D01*
X121658765Y-88391996D01*
X121638569Y-88212750D01*
X121638568Y-88212745D01*
X121578988Y-88042476D01*
X121483015Y-87889737D01*
X121355462Y-87762184D01*
X121202723Y-87666211D01*
X121032454Y-87606631D01*
X121032449Y-87606630D01*
X120853204Y-87586435D01*
X120853196Y-87586435D01*
X120673950Y-87606630D01*
X120673945Y-87606631D01*
X120503676Y-87666211D01*
X120350937Y-87762184D01*
X120223384Y-87889737D01*
X120127411Y-88042476D01*
X120067831Y-88212745D01*
X120067830Y-88212750D01*
X120047635Y-88391996D01*
X114703900Y-88391996D01*
X114703900Y-86969596D01*
X123959235Y-86969596D01*
X123959235Y-86969603D01*
X123979430Y-87148849D01*
X123979431Y-87148854D01*
X124039011Y-87319123D01*
X124087660Y-87396547D01*
X124134984Y-87471862D01*
X124262538Y-87599416D01*
X124289770Y-87616527D01*
X124392064Y-87680803D01*
X124415278Y-87695389D01*
X124585545Y-87754968D01*
X124585550Y-87754969D01*
X124764796Y-87775165D01*
X124764800Y-87775165D01*
X124764804Y-87775165D01*
X124944049Y-87754969D01*
X124944052Y-87754968D01*
X124944055Y-87754968D01*
X125114322Y-87695389D01*
X125267062Y-87599416D01*
X125394616Y-87471862D01*
X125490589Y-87319122D01*
X125550168Y-87148855D01*
X125570365Y-86969600D01*
X125550168Y-86790345D01*
X125490589Y-86620078D01*
X125394616Y-86467338D01*
X125267062Y-86339784D01*
X125114323Y-86243811D01*
X124944054Y-86184231D01*
X124944049Y-86184230D01*
X124764804Y-86164035D01*
X124764796Y-86164035D01*
X124585550Y-86184230D01*
X124585545Y-86184231D01*
X124415276Y-86243811D01*
X124262537Y-86339784D01*
X124134984Y-86467337D01*
X124039011Y-86620076D01*
X123979431Y-86790345D01*
X123979430Y-86790350D01*
X123959235Y-86969596D01*
X114703900Y-86969596D01*
X114703900Y-85467452D01*
X114692584Y-85361092D01*
X114692582Y-85361081D01*
X114681608Y-85310092D01*
X114681602Y-85310070D01*
X114648167Y-85208493D01*
X114648166Y-85208492D01*
X114648164Y-85208484D01*
X114570913Y-85087101D01*
X114549985Y-85062732D01*
X114525394Y-85034097D01*
X114516273Y-85026123D01*
X114417078Y-84939397D01*
X114286466Y-84879047D01*
X114221407Y-84859630D01*
X114219935Y-84859165D01*
X114219521Y-84859066D01*
X114219513Y-84859064D01*
X114219511Y-84859064D01*
X114077188Y-84837958D01*
X110294768Y-84821222D01*
X110294767Y-84821222D01*
X110294762Y-84821222D01*
X110294757Y-84821222D01*
X110216346Y-84826991D01*
X110178319Y-84832788D01*
X110178303Y-84832791D01*
X110101742Y-84850650D01*
X110101737Y-84850652D01*
X109972168Y-84913212D01*
X109914220Y-84952232D01*
X109914208Y-84952242D01*
X109807522Y-85048763D01*
X109807521Y-85048764D01*
X109732338Y-85171452D01*
X109705160Y-85234504D01*
X109704703Y-85235535D01*
X109698275Y-85259299D01*
X109661767Y-85318872D01*
X109598847Y-85349250D01*
X109568850Y-85350536D01*
X109445215Y-85340806D01*
X109423200Y-85339074D01*
X109423199Y-85339074D01*
X109291477Y-85349440D01*
X109223100Y-85335075D01*
X109173343Y-85286024D01*
X109162619Y-85260231D01*
X109162350Y-85259299D01*
X109140634Y-85184115D01*
X109126806Y-85162388D01*
X109087887Y-85101235D01*
X109063383Y-85062732D01*
X109051387Y-85048764D01*
X109043570Y-85039662D01*
X109017862Y-85009726D01*
X109017859Y-85009724D01*
X109017858Y-85009722D01*
X108909545Y-84915027D01*
X108909544Y-84915026D01*
X108789652Y-84859630D01*
X108778935Y-84854678D01*
X108778922Y-84854673D01*
X108712955Y-84834986D01*
X108712032Y-84834702D01*
X108590601Y-84816695D01*
X108569656Y-84813589D01*
X105177823Y-84798581D01*
X105177822Y-84798581D01*
X105177819Y-84798581D01*
X105177810Y-84798581D01*
X105099405Y-84804349D01*
X105061379Y-84810146D01*
X105061360Y-84810149D01*
X104984796Y-84828009D01*
X104984790Y-84828011D01*
X104855221Y-84890571D01*
X104797273Y-84929591D01*
X104797261Y-84929601D01*
X104690575Y-85026122D01*
X104690574Y-85026123D01*
X104615391Y-85148811D01*
X104588208Y-85211874D01*
X104587758Y-85212890D01*
X104576103Y-85255978D01*
X104539596Y-85315552D01*
X104476676Y-85345931D01*
X104446677Y-85347217D01*
X104343200Y-85339074D01*
X104253388Y-85346142D01*
X104185011Y-85331777D01*
X104135255Y-85282726D01*
X104124532Y-85256938D01*
X104097052Y-85161798D01*
X104019801Y-85040415D01*
X104014375Y-85034097D01*
X103974279Y-84987408D01*
X103958703Y-84973791D01*
X103865964Y-84892710D01*
X103735352Y-84832360D01*
X103735347Y-84832358D01*
X103735344Y-84832357D01*
X103735342Y-84832356D01*
X103668436Y-84812388D01*
X103668400Y-84812378D01*
X103575361Y-84798581D01*
X103526075Y-84791272D01*
X102843066Y-84788250D01*
X102843065Y-84788250D01*
X102738760Y-84798834D01*
X102670076Y-84786017D01*
X102619224Y-84738102D01*
X102602242Y-84675484D01*
X102602234Y-84615891D01*
X102601591Y-79826998D01*
X103727709Y-79826998D01*
X103727709Y-79827001D01*
X103746848Y-80094594D01*
X103746849Y-80094601D01*
X103803872Y-80356734D01*
X103897627Y-80608102D01*
X103897629Y-80608106D01*
X104026195Y-80843556D01*
X104026200Y-80843564D01*
X104186964Y-81058321D01*
X104186980Y-81058339D01*
X104376660Y-81248019D01*
X104376678Y-81248035D01*
X104591435Y-81408799D01*
X104591443Y-81408804D01*
X104826893Y-81537370D01*
X104826897Y-81537372D01*
X104826899Y-81537373D01*
X105078261Y-81631126D01*
X105078264Y-81631126D01*
X105078265Y-81631127D01*
X105107116Y-81637403D01*
X105340407Y-81688152D01*
X105587385Y-81705816D01*
X105607999Y-81707291D01*
X105608000Y-81707291D01*
X105608001Y-81707291D01*
X105627140Y-81705922D01*
X105875593Y-81688152D01*
X106137739Y-81631126D01*
X106389101Y-81537373D01*
X106624562Y-81408801D01*
X106839329Y-81248029D01*
X107029029Y-81058329D01*
X107189801Y-80843562D01*
X107318373Y-80608101D01*
X107412126Y-80356739D01*
X107469152Y-80094593D01*
X107488291Y-79827000D01*
X107487745Y-79819372D01*
X107483488Y-79759844D01*
X107469152Y-79559407D01*
X107426209Y-79362000D01*
X107412127Y-79297265D01*
X107367315Y-79177120D01*
X107318373Y-79045899D01*
X107290744Y-78995301D01*
X107189804Y-78810443D01*
X107189799Y-78810435D01*
X107029035Y-78595678D01*
X107029019Y-78595660D01*
X106839339Y-78405980D01*
X106839321Y-78405964D01*
X106624564Y-78245200D01*
X106624556Y-78245195D01*
X106389106Y-78116629D01*
X106389102Y-78116627D01*
X106137734Y-78022872D01*
X105875601Y-77965849D01*
X105875594Y-77965848D01*
X105608001Y-77946709D01*
X105607999Y-77946709D01*
X105340405Y-77965848D01*
X105340398Y-77965849D01*
X105078265Y-78022872D01*
X104826897Y-78116627D01*
X104826893Y-78116629D01*
X104591443Y-78245195D01*
X104591435Y-78245200D01*
X104376678Y-78405964D01*
X104376660Y-78405980D01*
X104186980Y-78595660D01*
X104186964Y-78595678D01*
X104026200Y-78810435D01*
X104026195Y-78810443D01*
X103897629Y-79045893D01*
X103897627Y-79045897D01*
X103803872Y-79297265D01*
X103746849Y-79559398D01*
X103746848Y-79559405D01*
X103727709Y-79826998D01*
X102601591Y-79826998D01*
X102601257Y-77334315D01*
X102602028Y-77320511D01*
X102612698Y-77225402D01*
X102618819Y-77198457D01*
X102647999Y-77114662D01*
X102659936Y-77089747D01*
X102706958Y-77014494D01*
X102724114Y-76992846D01*
X102786641Y-76929879D01*
X102808167Y-76912570D01*
X102883085Y-76865021D01*
X102907917Y-76852909D01*
X102991502Y-76823140D01*
X103018406Y-76816828D01*
X103113064Y-76805534D01*
X103127734Y-76804662D01*
X186178421Y-76794877D01*
X186193098Y-76795749D01*
G37*
%TD.AperFunction*%
%TD*%
%TA.AperFunction,Conductor*%
%TO.N,GND*%
G36*
X136442639Y-125394085D02*
G01*
X136488394Y-125446889D01*
X136499600Y-125498400D01*
X136499600Y-131712391D01*
X136479915Y-131779430D01*
X136427111Y-131825185D01*
X136375589Y-131836391D01*
X122653589Y-131835197D01*
X122586551Y-131815507D01*
X122540801Y-131762699D01*
X122529600Y-131711197D01*
X122529600Y-125498400D01*
X122549285Y-125431361D01*
X122602089Y-125385606D01*
X122653600Y-125374400D01*
X136375600Y-125374400D01*
X136442639Y-125394085D01*
G37*
%TD.AperFunction*%
%TD*%
%TA.AperFunction,Conductor*%
%TO.N,GND*%
G36*
X114074951Y-85343453D02*
G01*
X114141900Y-85363434D01*
X114187421Y-85416440D01*
X114198400Y-85467452D01*
X114198400Y-94719600D01*
X114178715Y-94786639D01*
X114125911Y-94832394D01*
X114074400Y-94843600D01*
X102741326Y-94843600D01*
X102674287Y-94823915D01*
X102628532Y-94771111D01*
X102617333Y-94718281D01*
X102637733Y-92800622D01*
X102658130Y-92733799D01*
X102711417Y-92688608D01*
X102780678Y-92679401D01*
X102843921Y-92709100D01*
X102876287Y-92754490D01*
X102890837Y-92789618D01*
X103024477Y-93007698D01*
X103024484Y-93007707D01*
X103027733Y-93011512D01*
X103589084Y-92450160D01*
X103589940Y-92452226D01*
X103682962Y-92591444D01*
X103801356Y-92709838D01*
X103940574Y-92802860D01*
X103942637Y-92803714D01*
X103381287Y-93365065D01*
X103385097Y-93368319D01*
X103603184Y-93501963D01*
X103603187Y-93501965D01*
X103839497Y-93599847D01*
X104088211Y-93659557D01*
X104088210Y-93659557D01*
X104343200Y-93679624D01*
X104598189Y-93659557D01*
X104846902Y-93599847D01*
X105083212Y-93501965D01*
X105083215Y-93501963D01*
X105301295Y-93368324D01*
X105301310Y-93368313D01*
X105305111Y-93365066D01*
X105305111Y-93365064D01*
X104743762Y-92803714D01*
X104745826Y-92802860D01*
X104885044Y-92709838D01*
X105003438Y-92591444D01*
X105096460Y-92452226D01*
X105097314Y-92450161D01*
X105658664Y-93011511D01*
X105658666Y-93011511D01*
X105661913Y-93007710D01*
X105661924Y-93007695D01*
X105795563Y-92789615D01*
X105795565Y-92789612D01*
X105893447Y-92553302D01*
X105953157Y-92304589D01*
X105973224Y-92049600D01*
X105953157Y-91794610D01*
X105893446Y-91545896D01*
X105867996Y-91484454D01*
X105860527Y-91414984D01*
X105891802Y-91352505D01*
X105951890Y-91316852D01*
X105982557Y-91313000D01*
X107783843Y-91313000D01*
X107850882Y-91332685D01*
X107896637Y-91385489D01*
X107906581Y-91454647D01*
X107898404Y-91484454D01*
X107872953Y-91545896D01*
X107813242Y-91794610D01*
X107793175Y-92049600D01*
X107813242Y-92304589D01*
X107872952Y-92553302D01*
X107970834Y-92789612D01*
X107970836Y-92789615D01*
X108104477Y-93007698D01*
X108104484Y-93007707D01*
X108107733Y-93011512D01*
X108669084Y-92450161D01*
X108669940Y-92452226D01*
X108762962Y-92591444D01*
X108881356Y-92709838D01*
X109020574Y-92802860D01*
X109022637Y-92803714D01*
X108461287Y-93365065D01*
X108465097Y-93368319D01*
X108683184Y-93501963D01*
X108683187Y-93501965D01*
X108919497Y-93599847D01*
X109168211Y-93659557D01*
X109168210Y-93659557D01*
X109423200Y-93679624D01*
X109678189Y-93659557D01*
X109926902Y-93599847D01*
X110163212Y-93501965D01*
X110163215Y-93501963D01*
X110381295Y-93368324D01*
X110381310Y-93368313D01*
X110385111Y-93365066D01*
X110385111Y-93365064D01*
X109823762Y-92803714D01*
X109825826Y-92802860D01*
X109965044Y-92709838D01*
X110083438Y-92591444D01*
X110176460Y-92452226D01*
X110177314Y-92450161D01*
X110738664Y-93011511D01*
X110738666Y-93011511D01*
X110741913Y-93007710D01*
X110741924Y-93007695D01*
X110875563Y-92789615D01*
X110875565Y-92789612D01*
X110973447Y-92553302D01*
X111033157Y-92304589D01*
X111053224Y-92049600D01*
X111033157Y-91794610D01*
X110973447Y-91545897D01*
X110875565Y-91309587D01*
X110875563Y-91309584D01*
X110741919Y-91091497D01*
X110738665Y-91087687D01*
X110177314Y-91649037D01*
X110176460Y-91646974D01*
X110083438Y-91507756D01*
X109965044Y-91389362D01*
X109825826Y-91296340D01*
X109823761Y-91295484D01*
X110385112Y-90734133D01*
X110381307Y-90730884D01*
X110381298Y-90730877D01*
X110163215Y-90597236D01*
X110163212Y-90597234D01*
X109926902Y-90499352D01*
X109678188Y-90439642D01*
X109678189Y-90439642D01*
X109423200Y-90419575D01*
X109168210Y-90439642D01*
X108919497Y-90499352D01*
X108883452Y-90514283D01*
X108813982Y-90521751D01*
X108751503Y-90490475D01*
X108715851Y-90430386D01*
X108712000Y-90399721D01*
X108712000Y-88619477D01*
X108731685Y-88552438D01*
X108784489Y-88506683D01*
X108853647Y-88496739D01*
X108883454Y-88504916D01*
X108919497Y-88519845D01*
X109168212Y-88579557D01*
X109168210Y-88579557D01*
X109423200Y-88599624D01*
X109678189Y-88579557D01*
X109926902Y-88519847D01*
X110163212Y-88421965D01*
X110163215Y-88421963D01*
X110381295Y-88288324D01*
X110381310Y-88288313D01*
X110385111Y-88285066D01*
X110385111Y-88285064D01*
X109823761Y-87723714D01*
X109825826Y-87722860D01*
X109965044Y-87629838D01*
X110083438Y-87511444D01*
X110176460Y-87372226D01*
X110177314Y-87370161D01*
X110738664Y-87931511D01*
X110738666Y-87931511D01*
X110741913Y-87927710D01*
X110741924Y-87927695D01*
X110875563Y-87709615D01*
X110875565Y-87709612D01*
X110973447Y-87473302D01*
X111033157Y-87224589D01*
X111053224Y-86969600D01*
X111033157Y-86714610D01*
X110973447Y-86465897D01*
X110875565Y-86229587D01*
X110875563Y-86229584D01*
X110741919Y-86011497D01*
X110738665Y-86007687D01*
X110177314Y-86569037D01*
X110176460Y-86566974D01*
X110083438Y-86427756D01*
X109965044Y-86309362D01*
X109825826Y-86216340D01*
X109823761Y-86215484D01*
X110385112Y-85654133D01*
X110381307Y-85650884D01*
X110381298Y-85650877D01*
X110227195Y-85556443D01*
X110180320Y-85504632D01*
X110168897Y-85435702D01*
X110196554Y-85371539D01*
X110254510Y-85332514D01*
X110292531Y-85326717D01*
X114074951Y-85343453D01*
G37*
%TD.AperFunction*%
%TA.AperFunction,Conductor*%
G36*
X103589940Y-87372226D02*
G01*
X103682962Y-87511444D01*
X103801356Y-87629838D01*
X103940574Y-87722860D01*
X103942637Y-87723714D01*
X103381287Y-88285065D01*
X103385097Y-88288319D01*
X103603184Y-88421963D01*
X103603187Y-88421965D01*
X103839497Y-88519847D01*
X104088211Y-88579557D01*
X104088210Y-88579557D01*
X104343200Y-88599624D01*
X104598188Y-88579557D01*
X104846903Y-88519845D01*
X104857544Y-88515438D01*
X104927013Y-88507968D01*
X104989493Y-88539240D01*
X105025147Y-88599328D01*
X105029000Y-88629998D01*
X105029000Y-90389200D01*
X105009315Y-90456239D01*
X104956511Y-90501994D01*
X104887353Y-90511938D01*
X104857550Y-90503762D01*
X104846907Y-90499354D01*
X104598188Y-90439642D01*
X104598189Y-90439642D01*
X104343200Y-90419575D01*
X104088210Y-90439642D01*
X103839497Y-90499352D01*
X103603187Y-90597234D01*
X103603184Y-90597236D01*
X103385093Y-90730882D01*
X103381286Y-90734132D01*
X103942638Y-91295484D01*
X103940574Y-91296340D01*
X103801356Y-91389362D01*
X103682962Y-91507756D01*
X103589940Y-91646974D01*
X103589084Y-91649038D01*
X103027732Y-91087686D01*
X103024482Y-91091493D01*
X102890836Y-91309584D01*
X102888632Y-91313909D01*
X102840650Y-91364698D01*
X102772826Y-91381483D01*
X102706695Y-91358936D01*
X102663251Y-91304215D01*
X102654162Y-91256283D01*
X102690704Y-87821368D01*
X102711101Y-87754544D01*
X102764388Y-87709353D01*
X102833649Y-87700146D01*
X102896892Y-87729845D01*
X102920424Y-87757899D01*
X103024477Y-87927698D01*
X103024484Y-87927707D01*
X103027733Y-87931512D01*
X103589084Y-87370160D01*
X103589940Y-87372226D01*
G37*
%TD.AperFunction*%
%TA.AperFunction,Conductor*%
G36*
X108567419Y-85319084D02*
G01*
X108634370Y-85339065D01*
X108679891Y-85392071D01*
X108689529Y-85461273D01*
X108660223Y-85524700D01*
X108631660Y-85548810D01*
X108465093Y-85650882D01*
X108461286Y-85654132D01*
X109022638Y-86215484D01*
X109020574Y-86216340D01*
X108881356Y-86309362D01*
X108762962Y-86427756D01*
X108669940Y-86566974D01*
X108669084Y-86569038D01*
X108107732Y-86007686D01*
X108104482Y-86011493D01*
X107970836Y-86229584D01*
X107970834Y-86229587D01*
X107872952Y-86465897D01*
X107813242Y-86714610D01*
X107793175Y-86969600D01*
X107813242Y-87224589D01*
X107872952Y-87473302D01*
X107919446Y-87585548D01*
X107926915Y-87655017D01*
X107895640Y-87717496D01*
X107835551Y-87753148D01*
X107804885Y-87757000D01*
X105961515Y-87757000D01*
X105894476Y-87737315D01*
X105848721Y-87684511D01*
X105838777Y-87615353D01*
X105846954Y-87585548D01*
X105893447Y-87473302D01*
X105953157Y-87224589D01*
X105973224Y-86969600D01*
X105953157Y-86714610D01*
X105893447Y-86465897D01*
X105795565Y-86229587D01*
X105795563Y-86229584D01*
X105661919Y-86011497D01*
X105658665Y-86007687D01*
X105097314Y-86569037D01*
X105096460Y-86566974D01*
X105003438Y-86427756D01*
X104885044Y-86309362D01*
X104745826Y-86216340D01*
X104743761Y-86215484D01*
X105305112Y-85654133D01*
X105301307Y-85650884D01*
X105301298Y-85650877D01*
X105110248Y-85533802D01*
X105063373Y-85481991D01*
X105051950Y-85413061D01*
X105079607Y-85348898D01*
X105137563Y-85309873D01*
X105175586Y-85304076D01*
X108567419Y-85319084D01*
G37*
%TD.AperFunction*%
%TA.AperFunction,Conductor*%
G36*
X103523838Y-85296767D02*
G01*
X103590788Y-85316748D01*
X103636309Y-85369754D01*
X103645947Y-85438956D01*
X103616641Y-85502383D01*
X103588078Y-85526493D01*
X103385093Y-85650882D01*
X103381286Y-85654132D01*
X103942638Y-86215484D01*
X103940574Y-86216340D01*
X103801356Y-86309362D01*
X103682962Y-86427756D01*
X103589940Y-86566974D01*
X103589084Y-86569038D01*
X103027732Y-86007686D01*
X103024482Y-86011493D01*
X102938896Y-86151158D01*
X102887084Y-86198033D01*
X102818155Y-86209456D01*
X102753992Y-86181798D01*
X102714967Y-86123843D01*
X102709176Y-86085049D01*
X102716289Y-85416424D01*
X102736686Y-85349599D01*
X102789973Y-85304408D01*
X102840829Y-85293745D01*
X103523838Y-85296767D01*
G37*
%TD.AperFunction*%
%TD*%
M02*
