M48
; DRILL file {KiCad 8.0.6} date 2025-01-11T15:36:56-0600
; FORMAT={-:-/ absolute / inch / decimal}
; #@! TF.CreationDate,2025-01-11T15:36:56-06:00
; #@! TF.GenerationSoftware,Kicad,Pcbnew,8.0.6
; #@! TF.FileFunction,Plated,1,4,PTH
FMAT,2
INCH
; #@! TA.AperFunction,Plated,PTH,ViaDrill
T1C0.0118
; #@! TA.AperFunction,Plated,PTH,ComponentDrill
T2C0.0197
; #@! TA.AperFunction,Plated,PTH,ComponentDrill
T3C0.0354
; #@! TA.AperFunction,Plated,PTH,ComponentDrill
T4C0.0394
; #@! TA.AperFunction,Plated,PTH,ComponentDrill
T5C0.0402
; #@! TA.AperFunction,Plated,PTH,ComponentDrill
T6C0.0433
; #@! TA.AperFunction,Plated,PTH,ComponentDrill
T7C0.0591
; #@! TA.AperFunction,Plated,PTH,ComponentDrill
T8C0.0591
; #@! TA.AperFunction,Plated,PTH,ComponentDrill
T9C0.0630
; #@! TA.AperFunction,Plated,PTH,ComponentDrill
T10C0.0669
%
G90
G05
T1
X4.41Y-3.506
X4.41Y-3.636
X4.5308Y-3.852
X4.542Y-4.982
X4.542Y-5.006
X4.5484Y-4.9584
X4.5654Y-4.9414
X4.62Y-3.52
X4.698Y-5.026
X4.758Y-3.48
X4.776Y-5.03
X4.81Y-3.84
X4.862Y-5.028
X4.912Y-3.424
X4.912Y-3.516
X4.915Y-4.975
X4.98Y-5.024
X5.018Y-5.024
X5.054Y-5.024
X5.072Y-3.856
X5.072Y-4.312
X5.08Y-4.95
X5.115Y-4.95
X5.124Y-3.64
X5.132Y-3.554
X5.132Y-3.678
X5.15Y-4.95
X5.162Y-3.588
X5.182Y-3.694
X5.206Y-3.716
X5.206Y-5.022
X5.238Y-5.022
X5.26Y-5.044
X5.31Y-4.98
X5.352Y-5.042
X5.554Y-3.452
X5.81Y-4.41
X5.908Y-4.434
X5.944Y-4.434
X5.95Y-3.695
X6.066Y-3.824
X6.09Y-3.8241
X6.092Y-5.044
X6.114Y-3.8241
X6.138Y-3.8241
X6.236Y-3.686
X6.3006Y-3.068
X6.352Y-4.566
X6.428Y-4.084
X6.462Y-3.91
X6.472Y-4.57
X6.484Y-4.788
X6.504Y-3.746
X6.64Y-3.668
X6.756Y-3.746
X6.784Y-3.972
X6.822Y-4.886
X6.834Y-3.386
X6.874Y-3.386
X6.886Y-3.936
X6.91Y-3.628
X6.914Y-3.386
X6.922Y-4.078
X7.016Y-3.48
X7.046Y-4.075
X7.051Y-3.746
X7.076Y-3.254
X7.097Y-4.076
X7.108Y-3.748
X7.202Y-3.61
T2
X7.196Y-3.318
X7.2452Y-3.318
T3
X6.5851Y-4.5858
X6.5851Y-4.6858
X6.5851Y-4.7858
X6.5851Y-4.8858
X6.6851Y-4.6358
X6.6851Y-4.7358
X6.6851Y-4.8358
X6.6851Y-4.9358
T4
X5.31Y-3.1048
X5.31Y-3.2048
X5.41Y-3.1048
X5.41Y-3.2048
X5.51Y-3.2048
X5.51Y-3.1048
X5.61Y-3.1048
X5.61Y-3.2048
X5.71Y-3.1048
X5.71Y-3.2048
X6.321Y-4.8608
X6.321Y-4.9608
X6.67Y-3.15
X6.77Y-3.15
X6.87Y-3.15
X7.1428Y-3.1122
X7.2412Y-3.1122
T5
X5.2981Y-3.7022
X5.2981Y-3.8026
X5.2981Y-3.905
X5.2981Y-4.0054
X5.2981Y-4.1058
X5.352Y-3.555
X5.352Y-4.255
X5.452Y-3.555
X5.452Y-4.255
X5.552Y-3.555
X5.552Y-4.255
X5.652Y-3.555
X5.652Y-4.255
X5.752Y-3.555
X5.752Y-4.255
X5.852Y-3.555
X5.852Y-4.255
X5.952Y-3.555
X5.952Y-4.255
X6.052Y-3.555
X6.052Y-4.255
X6.152Y-3.555
X6.152Y-4.255
X6.252Y-3.555
X6.252Y-4.255
X6.352Y-3.555
X6.352Y-4.255
X6.452Y-3.555
X6.452Y-4.255
X6.552Y-3.555
X6.552Y-4.255
X6.652Y-3.555
X6.652Y-4.255
X6.752Y-3.555
X6.752Y-4.255
X6.852Y-3.555
X6.852Y-4.255
X6.952Y-3.555
X6.952Y-4.255
X7.052Y-3.555
X7.052Y-4.255
X7.152Y-3.555
X7.152Y-4.255
X7.252Y-3.555
X7.252Y-4.255
T6
X7.0949Y-4.6
X7.0949Y-4.9217
X7.0949Y-5.0217
X7.0949Y-4.5
T7
X4.208Y-3.524
T8
X4.1056Y-3.9846
X4.1056Y-4.1854
X4.1056Y-4.5456
X4.1056Y-4.7464
X4.3064Y-3.9846
X4.3064Y-4.1854
X4.3064Y-4.5456
X4.3064Y-4.7464
T9
X6.815Y-4.4559
X6.815Y-5.0657
T10
X4.108Y-3.424
X4.108Y-3.624
X4.308Y-3.424
X4.308Y-3.624
M30
