<?xml version="1.0" encoding="UTF-8" standalone="no"?>
<svg
   xmlns:dc="http://purl.org/dc/elements/1.1/"
   xmlns:cc="http://creativecommons.org/ns#"
   xmlns:rdf="http://www.w3.org/1999/02/22-rdf-syntax-ns#"
   xmlns:svg="http://www.w3.org/2000/svg"
   xmlns="http://www.w3.org/2000/svg"
   xmlns:sodipodi="http://sodipodi.sourceforge.net/DTD/sodipodi-0.dtd"
   xmlns:inkscape="http://www.inkscape.org/namespaces/inkscape"
   width="44.864151mm"
   height="35.166367mm"
   viewBox="0 0 44.864151 35.166366"
   version="1.1"
   id="svg8"
   inkscape:version="1.0.2-2 (e86c870879, 2021-01-15)"
   sodipodi:docname="foxhat.svg"
   inkscape:export-filename="C:\Users\Matthew Petry\Documents\lora gateway\babelfox\logo\foxhat.png"
   inkscape:export-xdpi="600"
   inkscape:export-ydpi="600">
  <defs
     id="defs2">
    <inkscape:path-effect
       effect="spiro"
       id="path-effect1080"
       is_visible="true"
       lpeversion="1" />
    <inkscape:path-effect
       effect="spiro"
       id="path-effect1065"
       is_visible="true"
       lpeversion="1" />
    <inkscape:path-effect
       effect="spiro"
       id="path-effect1050"
       is_visible="true"
       lpeversion="1" />
    <inkscape:path-effect
       effect="spiro"
       id="path-effect908"
       is_visible="true"
       lpeversion="1" />
    <inkscape:path-effect
       effect="spiro"
       id="path-effect904"
       is_visible="true"
       lpeversion="1" />
    <inkscape:path-effect
       effect="spiro"
       id="path-effect1147"
       is_visible="true"
       lpeversion="1" />
    <inkscape:path-effect
       effect="spiro"
       id="path-effect1145"
       is_visible="true"
       lpeversion="1" />
    <inkscape:path-effect
       effect="spiro"
       id="path-effect1143"
       is_visible="true"
       lpeversion="1" />
    <inkscape:path-effect
       effect="spiro"
       id="path-effect1109"
       is_visible="true"
       lpeversion="1" />
    <inkscape:path-effect
       effect="spiro"
       id="path-effect1085"
       is_visible="true"
       lpeversion="1" />
    <inkscape:path-effect
       effect="spiro"
       id="path-effect1062"
       is_visible="true"
       lpeversion="1" />
    <inkscape:path-effect
       effect="spiro"
       id="path-effect1047"
       is_visible="true"
       lpeversion="1" />
    <inkscape:path-effect
       effect="spiro"
       id="path-effect1045"
       is_visible="true"
       lpeversion="1" />
    <inkscape:path-effect
       effect="spiro"
       id="path-effect1043"
       is_visible="true"
       lpeversion="1" />
    <inkscape:path-effect
       effect="spiro"
       id="path-effect1009"
       is_visible="true"
       lpeversion="1" />
    <inkscape:path-effect
       effect="spiro"
       id="path-effect985"
       is_visible="true"
       lpeversion="1" />
    <inkscape:path-effect
       effect="spiro"
       id="path-effect962"
       is_visible="true"
       lpeversion="1" />
  </defs>
  <sodipodi:namedview
     id="base"
     pagecolor="#ffffff"
     bordercolor="#666666"
     borderopacity="1.0"
     inkscape:pageopacity="0.0"
     inkscape:pageshadow="2"
     inkscape:zoom="7.919596"
     inkscape:cx="71.48344"
     inkscape:cy="72.795943"
     inkscape:document-units="mm"
     inkscape:current-layer="layer1"
     inkscape:document-rotation="0"
     showgrid="false"
     fit-margin-top="0"
     fit-margin-left="0"
     fit-margin-right="0"
     fit-margin-bottom="0"
     inkscape:window-width="2560"
     inkscape:window-height="1377"
     inkscape:window-x="1912"
     inkscape:window-y="-8"
     inkscape:window-maximized="1" />
  <metadata
     id="metadata5">
    <rdf:RDF>
      <cc:Work
         rdf:about="">
        <dc:format>image/svg+xml</dc:format>
        <dc:type
           rdf:resource="http://purl.org/dc/dcmitype/StillImage" />
        <dc:title></dc:title>
      </cc:Work>
    </rdf:RDF>
  </metadata>
  <g
     inkscape:label="Layer 1"
     inkscape:groupmode="layer"
     id="layer1"
     transform="translate(-40.169401,-72.934836)">
    <ellipse
       style="fill:#ffdd55;stroke-width:0.0455604"
       id="path833"
       cx="62.555061"
       cy="95.155518"
       rx="10.772322"
       ry="12.945685" />
    <path
       id="path863"
       style="fill:#ffdd55;stroke-width:0.188976"
       inkscape:transform-center-x="-0.90690664"
       inkscape:transform-center-y="1.3119565"
       d="M 66.400391,61.607422 H 48.189453 33.679688 c 3.593782,9.641949 7.603461,17.640864 10.261718,18.214844 3.344219,0.722095 13.474535,-8.273552 22.458985,-18.214844 z"
       transform="matrix(0.26458333,0,0,0.26458333,40.169401,72.934836)" />
    <path
       id="path863-7"
       style="fill:#ffdd55;stroke-width:0.188976"
       inkscape:transform-center-x="0.90690815"
       inkscape:transform-center-y="1.3119565"
       d="m 135.66211,61.607422 h -32.71875 c 8.98445,9.941292 19.11281,18.936939 22.45703,18.214844 2.65826,-0.57398 6.66794,-8.572895 10.26172,-18.214844 z"
       transform="matrix(0.26458333,0,0,0.26458333,40.169401,72.934836)" />
    <path
       id="path907"
       style="fill:#ffeeaa;stroke-width:0.188976"
       inkscape:transform-center-x="-0.63941108"
       inkscape:transform-center-y="0.70072113"
       d="m 54.28125,61.587891 c -0.542353,-3.8e-5 -1.084597,4.1e-5 -1.626953,0 -5.263144,4.68e-4 -10.527431,-2.9e-5 -15.791016,0 2.078963,5.933365 3.98117,10.739918 4.84961,10.945312 1.073467,0.253885 6.582579,-4.905229 12.568359,-10.945312 z"
       transform="matrix(0.26458333,0,0,0.26458333,40.169401,72.934836)" />
    <path
       id="path907-9"
       style="fill:#ffeeaa;stroke-width:0.188976"
       inkscape:transform-center-x="0.6394109"
       inkscape:transform-center-y="0.70072113"
       d="m 132.18555,61.517578 h -17.51172 c 6.01571,6.074968 11.56088,11.270533 12.63867,11.015625 0.87167,-0.206156 2.78473,-5.048459 4.87305,-11.015625 z"
       transform="matrix(0.26458333,0,0,0.26458333,40.169401,72.934836)" />
    <path
       sodipodi:type="star"
       style="fill:#454837;fill-opacity:1;stroke-width:0.0499999"
       id="path958"
       sodipodi:sides="3"
       sodipodi:cx="62.574127"
       sodipodi:cy="95.39769"
       sodipodi:r1="2.990031"
       sodipodi:r2="1.4950156"
       sodipodi:arg1="1.5707963"
       sodipodi:arg2="2.6179939"
       inkscape:flatsided="true"
       inkscape:rounded="0.06"
       inkscape:randomized="0"
       d="m 62.574127,98.387721 c -0.310733,0 -2.744809,-4.215944 -2.589443,-4.485047 0.155367,-0.269102 5.023519,-0.269103 5.178886,0 0.155367,0.269103 -2.27871,4.485047 -2.589443,4.485047 z"
       inkscape:transform-center-y="0.64659307" />
    <path
       style="fill:none;stroke:#000000;stroke-width:0.264583px;stroke-linecap:butt;stroke-linejoin:miter;stroke-opacity:1"
       d="m 45.203629,96.974802 c 2.293687,-0.07308 4.602275,0.365874 6.709077,1.27567 0.368712,0.159224 0.731296,0.332634 1.086683,0.519719"
       id="path960"
       inkscape:path-effect="#path-effect962"
       inkscape:original-d="m 45.203629,96.974802 c 2.236624,0.42549 4.472982,0.850713 6.709077,1.27567 2.236094,0.424961 0.72472,0.346745 1.086683,0.519719" />
    <path
       style="fill:none;stroke:#000000;stroke-width:0.264583px;stroke-linecap:butt;stroke-linejoin:miter;stroke-opacity:1"
       d="m 45.546939,99.528071 c 2.266615,-0.358886 4.611944,-0.2116 6.815853,0.428034 0.385706,0.111945 0.767105,0.238725 1.143069,0.379975"
       id="path960-8"
       inkscape:path-effect="#path-effect985"
       inkscape:original-d="m 45.546939,99.528071 c 2.272247,0.142907 4.544198,0.285592 6.815853,0.428034 2.271655,0.142445 0.762342,0.253555 1.143069,0.379975" />
    <path
       style="fill:none;stroke:#000000;stroke-width:0.264583px;stroke-linecap:butt;stroke-linejoin:miter;stroke-opacity:1"
       d="m 46.395618,102.21307 c 2.182773,-0.70842 4.522337,-0.92915 6.799088,-0.64147 0.398455,0.0503 0.794972,0.11602 1.18838,0.19684"
       id="path960-8-3"
       inkscape:path-effect="#path-effect1009"
       inkscape:original-d="m 46.395618,102.21307 c 2.266691,-0.21364 4.533053,-0.42746 6.799088,-0.64147 2.266034,-0.214 0.792583,0.13141 1.18838,0.19684" />
    <path
       style="fill:none;stroke:#000000;stroke-width:0.264583px;stroke-linecap:butt;stroke-linejoin:miter;stroke-opacity:1"
       d="m 79.851452,96.974806 c -2.293687,-0.07307 -4.602271,0.365891 -6.709077,1.275675 -0.368711,0.159221 -0.731296,0.332628 -1.086683,0.51971"
       id="path960-9"
       inkscape:path-effect="#path-effect1043"
       inkscape:original-d="m 79.851452,96.974806 c -2.236624,0.42549 -4.472982,0.850713 -6.709077,1.275675 -2.236094,0.42496 -0.72472,0.34674 -1.086683,0.51971" />
    <path
       style="fill:none;stroke:#000000;stroke-width:0.264583px;stroke-linecap:butt;stroke-linejoin:miter;stroke-opacity:1"
       d="m 79.508142,99.528071 c -2.266617,-0.358873 -4.611943,-0.211585 -6.815853,0.42804 -0.385706,0.111939 -0.767105,0.238719 -1.143069,0.379969"
       id="path960-8-1"
       inkscape:path-effect="#path-effect1045"
       inkscape:original-d="m 79.508142,99.528071 c -2.272247,0.14291 -4.544198,0.2856 -6.815853,0.42804 -2.271655,0.142439 -0.762342,0.253549 -1.143069,0.379969" />
    <path
       style="fill:none;stroke:#000000;stroke-width:0.264583px;stroke-linecap:butt;stroke-linejoin:miter;stroke-opacity:1"
       d="m 78.659463,102.21307 c -2.182773,-0.70842 -4.522337,-0.92915 -6.799088,-0.64147 -0.398455,0.0503 -0.794972,0.11602 -1.18838,0.19684"
       id="path960-8-3-1"
       inkscape:path-effect="#path-effect1047"
       inkscape:original-d="m 78.659463,102.21307 c -2.266691,-0.21364 -4.533053,-0.42746 -6.799088,-0.64147 -2.266034,-0.214 -0.792583,0.13141 -1.18838,0.19684" />
    <path
       style="fill:none;stroke:#000000;stroke-width:0.507255px;stroke-linecap:butt;stroke-linejoin:miter;stroke-opacity:1"
       d="m 44.822028,81.677468 c -0.09303,-0.66417 -0.002,-1.353173 0.260441,-1.970363 0.2624,-0.61719 0.695389,-1.160826 1.23823,-1.554653 0.542842,-0.393827 1.194006,-0.636735 1.862154,-0.694651 0.668149,-0.05792 1.351398,0.06932 1.953909,0.363869 0.09104,0.04451 0.180255,0.09274 0.267354,0.144527"
       id="path1060"
       inkscape:path-effect="#path-effect1062"
       inkscape:original-d="m 44.822028,81.677468 c 1.77194,-1.284642 3.543522,-2.569907 5.314734,-3.855798 1.771216,-1.285893 0.178604,0.09697 0.267354,0.144527" />
    <path
       style="fill:none;stroke:#000000;stroke-width:0.722719px;stroke-linecap:butt;stroke-linejoin:miter;stroke-opacity:1"
       d="m 42.590212,81.424254 c -0.04968,-0.935976 0.146729,-1.88393 0.564207,-2.723116 0.417478,-0.839185 1.055062,-1.567663 1.831538,-2.092643 0.776476,-0.52498 1.690052,-0.84525 2.624359,-0.920015 0.934307,-0.07476 1.887188,0.09615 2.737268,0.490968 0.134441,0.06244 0.26634,0.130357 0.395259,0.203522"
       id="path1060-3"
       inkscape:path-effect="#path-effect1085"
       inkscape:original-d="m 42.590212,81.424254 c 2.586335,-1.747402 5.17213,-3.49567 7.757372,-5.244806 2.58525,-1.749141 0.264056,0.136536 0.395259,0.203522" />
    <path
       style="fill:none;stroke:#000000;stroke-width:0.883571px;stroke-linecap:butt;stroke-linejoin:miter;stroke-opacity:1"
       d="m 40.63587,80.543778 c -0.100407,-1.149798 0.107948,-2.325111 0.597479,-3.370327 0.489531,-1.045217 1.259013,-1.957723 2.206569,-2.616704 0.947556,-0.658981 2.070815,-1.062788 3.221058,-1.157959 1.150244,-0.09517 2.324595,0.118533 3.367572,0.612818 0.162043,0.0768 0.320951,0.160204 0.476197,0.249949"
       id="path1060-3-1"
       inkscape:path-effect="#path-effect1109"
       inkscape:original-d="m 40.63587,80.543778 c 3.131544,-2.17632 6.262442,-4.35371 9.392678,-6.532172 3.130243,-2.178468 0.318124,0.167688 0.476197,0.249949" />
    <path
       style="fill:none;stroke:#000000;stroke-width:0.507255px;stroke-linecap:butt;stroke-linejoin:miter;stroke-opacity:1"
       d="m 80.380926,81.677468 c 0.09303,-0.66417 0.002,-1.353173 -0.260441,-1.970363 -0.2624,-0.61719 -0.695389,-1.160826 -1.23823,-1.554653 -0.542842,-0.393827 -1.194006,-0.636735 -1.862154,-0.694651 -0.668149,-0.05792 -1.351398,0.06932 -1.953909,0.363869 -0.09104,0.04451 -0.180255,0.09274 -0.267354,0.144527"
       id="path1060-9"
       inkscape:path-effect="#path-effect1143"
       inkscape:original-d="m 80.380926,81.677468 c -1.77194,-1.284642 -3.543522,-2.569907 -5.314734,-3.855798 -1.771216,-1.285893 -0.178604,0.09697 -0.267354,0.144527" />
    <path
       style="fill:none;stroke:#000000;stroke-width:0.722719px;stroke-linecap:butt;stroke-linejoin:miter;stroke-opacity:1"
       d="m 82.612742,81.424254 c 0.04968,-0.935976 -0.146729,-1.88393 -0.564207,-2.723116 -0.417478,-0.839185 -1.055062,-1.567663 -1.831538,-2.092643 -0.776476,-0.52498 -1.690052,-0.84525 -2.624359,-0.920015 -0.934307,-0.07476 -1.887188,0.09615 -2.737268,0.490968 -0.134441,0.06244 -0.26634,0.130357 -0.395259,0.203522"
       id="path1060-3-15"
       inkscape:path-effect="#path-effect1145"
       inkscape:original-d="m 82.612742,81.424254 c -2.586335,-1.747402 -5.17213,-3.49567 -7.757372,-5.244806 -2.58525,-1.749141 -0.264056,0.136536 -0.395259,0.203522" />
    <path
       style="fill:none;stroke:#000000;stroke-width:0.883571px;stroke-linecap:butt;stroke-linejoin:miter;stroke-opacity:1"
       d="m 84.567084,80.543778 c 0.100407,-1.149798 -0.107948,-2.325111 -0.597479,-3.370327 -0.489531,-1.045217 -1.259013,-1.957723 -2.206569,-2.616704 -0.947556,-0.658981 -2.070815,-1.062788 -3.221058,-1.157959 -1.150244,-0.09517 -2.324595,0.118533 -3.367572,0.612818 -0.162043,0.0768 -0.320951,0.160204 -0.476197,0.249949"
       id="path1060-3-1-2"
       inkscape:path-effect="#path-effect1147"
       inkscape:original-d="m 84.567084,80.543778 c -3.131544,-2.17632 -6.262442,-4.35371 -9.392678,-6.532172 -3.130243,-2.178468 -0.318124,0.167688 -0.476197,0.249949" />
    <text
       xml:space="preserve"
       style="font-style:normal;font-weight:normal;font-size:10.5833px;line-height:1.25;font-family:sans-serif;fill:#000000;fill-opacity:1;stroke:none;stroke-width:0.264583"
       x="38.884304"
       y="109.28236"
       id="text1154"><tspan
         sodipodi:role="line"
         id="tspan1152"
         x="38.884304"
         y="109.28236"
         style="stroke-width:0.264583" /></text>
    <ellipse
       style="fill:#784421;stroke-width:0.0499999"
       id="path864"
       cx="62.646454"
       cy="89.593582"
       rx="15.922246"
       ry="3.5671501" />
    <path
       id="path1083"
       style="fill:#ffdd55;stroke-width:0.188976"
       inkscape:transform-center-x="0.90690815"
       inkscape:transform-center-y="1.3119565"
       d="m 139.13281,24.673828 c -12.41789,-1.272574 -49.966595,7.493259 -51.787107,13.158203 -1.033828,3.216996 6.724176,13.956885 15.597657,23.775391 h 32.71875 c 5.39269,-14.468332 9.81846,-32.712506 7.07812,-35.736328 -0.57081,-0.629869 -1.83343,-1.01547 -3.60742,-1.197266 z"
       transform="matrix(0.26458333,0,0,0.26458333,40.169401,72.934836)" />
    <path
       id="path1068"
       style="fill:#ffeeaa;stroke-width:0.188976"
       inkscape:transform-center-x="0.6394109"
       inkscape:transform-center-y="0.70072113"
       d="m 138.40039,26.974609 c -9.60024,0.612574 -42.827456,8.747565 -43.541015,11.126953 -0.497355,1.65845 10.409975,13.918903 19.814455,23.416016 h 17.51172 c 4.53058,-12.945694 10.05161,-32.892555 8.71875,-34.30664 -0.24341,-0.258237 -1.13245,-0.323839 -2.50391,-0.236329 z"
       transform="matrix(0.26458333,0,0,0.26458333,40.169401,72.934836)" />
    <path
       id="path1053"
       style="fill:#ffdd55;stroke-width:0.188976"
       inkscape:transform-center-x="-0.90690664"
       inkscape:transform-center-y="1.3119565"
       d="m 30.208984,24.673828 c -1.773985,0.181796 -3.03465,0.567397 -3.605468,1.197266 -2.740339,3.023822 1.683481,21.267996 7.076172,35.736328 H 48.189453 66.400391 C 75.273871,51.788916 83.029922,41.049027 81.996094,37.832031 80.175582,32.167087 42.626882,23.401254 30.208984,24.673828 Z"
       transform="matrix(0.26458333,0,0,0.26458333,40.169401,72.934836)" />
    <path
       id="path1038"
       style="fill:#ffeeaa;stroke-width:0.188976"
       inkscape:transform-center-x="-0.63941108"
       inkscape:transform-center-y="0.70072113"
       d="m 30.625,26.974609 c -1.371464,-0.08751 -2.260502,-0.02191 -2.503906,0.236329 -1.33514,1.416496 4.207433,21.434749 8.742187,34.376953 5.263585,-2.9e-5 10.527872,4.68e-4 15.791016,0 0.542356,4.1e-5 1.0846,-3.8e-5 1.626953,0 C 63.700785,52.0829 74.664648,39.764272 74.166016,38.101562 73.452457,35.722174 40.225245,27.587183 30.625,26.974609 Z"
       transform="matrix(0.26458333,0,0,0.26458333,40.169401,72.934836)" />
    <rect
       style="fill:#502d16;stroke-width:0.0560738"
       id="rect868"
       width="17.886333"
       height="10.819569"
       x="54.080315"
       y="78.746216"
       ry="0.51293975" />
    <ellipse
       style="fill:#502d16;stroke-width:0.0551415"
       id="path878"
       cx="63.020252"
       cy="89.097534"
       rx="8.9395962"
       ry="1.5901861" />
    <ellipse
       style="fill:#502d16;stroke-width:0.0551346"
       id="path878-5"
       cx="63.018314"
       cy="79.195488"
       rx="8.9373589"
       ry="1.5901861" />
  </g>
</svg>
